<svg width="106" height="32" viewBox="0 0 106 32" fill="none" xmlns="http://www.w3.org/2000/svg">
<path d="M3.47798 11.9999H0.841614L4.85866 0.363525H8.02911L12.0405 11.9999H9.40411L6.48934 3.02262H6.39843L3.47798 11.9999ZM3.3132 7.42603H9.54048V9.34648H3.3132V7.42603Z" fill="#FEAA62"/>
<path d="M13.441 11.9999V0.363525H15.9013V9.97148H20.8899V11.9999H13.441Z" fill="#FEAA62"/>
<path d="M22.5192 11.9999V0.363525H24.9794V9.97148H29.968V11.9999H22.5192Z" fill="#FEAA62"/>
<path d="M33.8999 11.9999H31.2635L35.2805 0.363525H38.451L42.4624 11.9999H39.826L36.9112 3.02262H36.8203L33.8999 11.9999ZM33.7351 7.42603H39.9624V9.34648H33.7351V7.42603Z" fill="#FEAA62"/>
<path d="M43.8629 11.9999V0.363525H46.3231V5.16466H51.3175V0.363525H53.772V11.9999H51.3175V7.19307H46.3231V11.9999H43.8629Z" fill="#FEAA62"/>
<path d="M59.5035 0.363525H62.5376L65.7422 8.18171H65.8785L69.0831 0.363525H72.1172V11.9999H69.7308V4.42603H69.6342L66.6229 11.9431H64.9979L61.9865 4.39762H61.8899V11.9999H59.5035V0.363525Z" fill="#FEAA62"/>
<path d="M76.1498 11.9999H73.5135L77.5305 0.363525H80.701L84.7124 11.9999H82.076L79.1612 3.02262H79.0703L76.1498 11.9999ZM75.9851 7.42603H82.2124V9.34648H75.9851V7.42603Z" fill="#FEAA62"/>
<path d="M90.2379 11.9999H86.1129V0.363525H90.272C91.4425 0.363525 92.45 0.59648 93.2947 1.06239C94.1394 1.52451 94.7891 2.18928 95.2436 3.05671C95.7019 3.92413 95.9311 4.96201 95.9311 6.17034C95.9311 7.38246 95.7019 8.42413 95.2436 9.29534C94.7891 10.1666 94.1357 10.8351 93.2834 11.301C92.4349 11.7669 91.4197 11.9999 90.2379 11.9999ZM88.5732 9.89194H90.1357C90.8629 9.89194 91.4747 9.76315 91.9709 9.50557C92.4709 9.24421 92.8459 8.8408 93.0959 8.29534C93.3497 7.7461 93.4766 7.03777 93.4766 6.17034C93.4766 5.3105 93.3497 4.60784 93.0959 4.06239C92.8459 3.51693 92.4728 3.11542 91.9766 2.85784C91.4803 2.60027 90.8686 2.47148 90.1413 2.47148H88.5732V9.89194Z" fill="#FEAA62"/>
<path d="M97.7535 11.9999V0.363525H105.594V2.39193H100.214V5.16466H105.191V7.19307H100.214V9.97148H105.617V11.9999H97.7535Z" fill="#FEAA62"/>
<path d="M2.0348 30.9999V19.3635H9.8757V21.3919H4.49502V24.1647H9.4723V26.1931H4.49502V28.9715H9.89843V30.9999H2.0348Z" fill="#FEAA62"/>
<path d="M13.9339 19.3635L16.7464 28.2044H16.8544L19.6726 19.3635H22.3999L18.3885 30.9999H15.218L11.201 19.3635H13.9339Z" fill="#FEAA62"/>
<path d="M23.8004 30.9999V19.3635H31.6413V21.3919H26.2606V24.1647H31.2379V26.1931H26.2606V28.9715H31.6641V30.9999H23.8004Z" fill="#FEAA62"/>
<path d="M33.5973 30.9999V19.3635H38.1882C39.067 19.3635 39.817 19.5207 40.4382 19.8351C41.0632 20.1457 41.5386 20.587 41.8643 21.159C42.1939 21.7272 42.3587 22.3957 42.3587 23.1647C42.3587 23.9374 42.192 24.6022 41.8587 25.159C41.5253 25.712 41.0424 26.1363 40.4098 26.4317C39.781 26.7272 39.0196 26.8749 38.1257 26.8749H35.0518V24.8976H37.728C38.1977 24.8976 38.5878 24.8332 38.8984 24.7044C39.209 24.5756 39.4401 24.3825 39.5916 24.1249C39.7469 23.8673 39.8246 23.5472 39.8246 23.1647C39.8246 22.7783 39.7469 22.4525 39.5916 22.1874C39.4401 21.9222 39.2071 21.7215 38.8927 21.5851C38.5821 21.445 38.1901 21.3749 37.7166 21.3749H36.0575V30.9999H33.5973ZM39.8814 25.7044L42.7734 30.9999H40.0575L37.228 25.7044H39.8814Z" fill="#FEAA62"/>
<path d="M42.9311 19.3635H45.6868L48.3402 24.3749H48.4538L51.1072 19.3635H53.8629L49.6186 26.8863V30.9999H47.1754V26.8863L42.9311 19.3635Z" fill="#FEAA62"/>
<path d="M55.4979 21.3919V19.3635H65.0547V21.3919H61.4922V30.9999H59.0604V21.3919H55.4979Z" fill="#FEAA62"/>
<path d="M66.6285 30.9999V19.3635H69.0888V24.1647H74.0831V19.3635H76.5376V30.9999H74.0831V26.1931H69.0888V30.9999H66.6285Z" fill="#FEAA62"/>
<path d="M81.0263 19.3635V30.9999H78.566V19.3635H81.0263Z" fill="#FEAA62"/>
<path d="M92.7834 19.3635V30.9999H90.6584L85.5959 23.676H85.5107V30.9999H83.0504V19.3635H85.2095L90.2322 26.6817H90.3345V19.3635H92.7834Z" fill="#FEAA62"/>
<path d="M102.532 23.1249C102.452 22.8484 102.341 22.6041 102.197 22.3919C102.053 22.176 101.877 21.9942 101.668 21.8465C101.464 21.695 101.229 21.5794 100.964 21.4999C100.702 21.4203 100.413 21.3806 100.094 21.3806C99.4998 21.3806 98.977 21.5283 98.5263 21.8238C98.0793 22.1192 97.7308 22.5491 97.4808 23.1135C97.2308 23.6741 97.1058 24.3597 97.1058 25.1703C97.1058 25.9809 97.2289 26.6703 97.4751 27.2385C97.7213 27.8067 98.0698 28.2404 98.5206 28.5397C98.9713 28.8351 99.5035 28.9828 100.117 28.9828C100.674 28.9828 101.149 28.8844 101.543 28.6874C101.941 28.4866 102.244 28.2044 102.452 27.8408C102.665 27.4772 102.771 27.0472 102.771 26.551L103.271 26.6249H100.271V24.7726H105.14V26.2385C105.14 27.2613 104.924 28.14 104.492 28.8749C104.06 29.6059 103.466 30.1703 102.708 30.5681C101.951 30.962 101.083 31.159 100.106 31.159C99.0149 31.159 98.0566 30.9184 97.2308 30.4374C96.4051 29.9525 95.7611 29.265 95.299 28.3749C94.8407 27.4809 94.6115 26.4203 94.6115 25.1931C94.6115 24.2499 94.7479 23.409 95.0206 22.6703C95.2971 21.9279 95.6835 21.2991 96.1797 20.784C96.6759 20.2688 97.2535 19.8768 97.9126 19.6078C98.5717 19.3389 99.2857 19.2044 100.055 19.2044C100.714 19.2044 101.327 19.301 101.896 19.4942C102.464 19.6836 102.968 19.9525 103.407 20.301C103.85 20.6495 104.212 21.0643 104.492 21.5453C104.772 22.0226 104.952 22.5491 105.032 23.1249H102.532Z" fill="#FEAA62"/>
</svg>
