<svg width="112" height="16" viewBox="0 0 112 16" fill="none" xmlns="http://www.w3.org/2000/svg">
<path d="M3.5721 15H0.276642L5.29795 0.45459H9.26102L14.2752 15H10.9798L7.3363 3.77845H7.22266L3.5721 15ZM3.36613 9.28271H11.1502V11.6833H3.36613V9.28271Z" fill="#FEAA62"/>
<path d="M16.0259 15V0.45459H19.1012V12.4645H25.337V15H16.0259Z" fill="#FEAA62"/>
<path d="M27.3736 15V0.45459H30.4489V12.4645H36.6847V15H27.3736Z" fill="#FEAA62"/>
<path d="M38.7212 15V0.45459H41.7965V12.4645H48.0323V15H38.7212Z" fill="#FEAA62"/>
<path d="M52.9471 15H49.6516L54.673 0.45459H58.636L63.6502 15H60.3548L56.7113 3.77845H56.5977L52.9471 15ZM52.7411 9.28271H60.5252V11.6833H52.7411V9.28271Z" fill="#FEAA62"/>
<path d="M65.4009 15V0.45459H68.4762V6.45601H74.7191V0.45459H77.7873V15H74.7191V8.99152H68.4762V15H65.4009Z" fill="#FEAA62"/>
<path d="M84.9517 15V0.45459H88.027V6.45601H94.2699V0.45459H97.3381V15H94.2699V8.99152H88.027V15H84.9517Z" fill="#FEAA62"/>
<path d="M108.858 0.45459H111.933V9.90061C111.933 10.9612 111.68 11.8892 111.173 12.6847C110.671 13.4802 109.968 14.1004 109.064 14.5455C108.16 14.9858 107.106 15.206 105.903 15.206C104.696 15.206 103.64 14.9858 102.736 14.5455C101.831 14.1004 101.128 13.4802 100.626 12.6847C100.125 11.8892 99.8736 10.9612 99.8736 9.90061V0.45459H102.949V9.63783C102.949 10.1918 103.07 10.6842 103.311 11.1151C103.557 11.546 103.903 11.8845 104.348 12.1307C104.793 12.3769 105.312 12.5 105.903 12.5C106.5 12.5 107.018 12.3769 107.459 12.1307C107.904 11.8845 108.247 11.546 108.489 11.1151C108.735 10.6842 108.858 10.1918 108.858 9.63783V0.45459Z" fill="#FEAA62"/>
</svg>
