<svg width="49" height="18" viewBox="0 0 49 18" fill="none" xmlns="http://www.w3.org/2000/svg">
<path d="M4.62322 18H0.668671L6.69424 0.545471H11.4499L17.467 18H13.5124L9.14026 4.53411H9.0039L4.62322 18ZM4.37606 11.1392H13.717V14.0199H4.37606V11.1392Z" fill="#FEAA62"/>
<path d="M23.028 0.545471L26.5479 6.49433H26.6843L30.2212 0.545471H34.3888L29.0621 9.27274L34.5082 18H30.2638L26.6843 12.0426H26.5479L22.9684 18H18.7411L24.2042 9.27274L18.8434 0.545471H23.028Z" fill="#FEAA62"/>
<path d="M36.7241 18V0.545471H48.4854V3.58808H40.4144V7.74718H47.8803V10.7898H40.4144V14.9574H48.5195V18H36.7241Z" fill="#FEAA62"/>
</svg>
