<svg width="106" height="32" viewBox="0 0 106 32" fill="none" xmlns="http://www.w3.org/2000/svg">
<path d="M17.1442 11.9999V0.363525H21.8033C22.6593 0.363525 23.3733 0.490419 23.9453 0.744207C24.5173 0.997995 24.9472 1.35027 25.2351 1.80103C25.523 2.248 25.6669 2.76315 25.6669 3.34648C25.6669 3.80103 25.576 4.20065 25.3942 4.54534C25.2123 4.88625 24.9623 5.16656 24.6442 5.38625C24.3298 5.60216 23.9699 5.75557 23.5646 5.84648V5.96012C24.0078 5.97906 24.4226 6.10406 24.8089 6.33512C25.1991 6.56618 25.5154 6.89004 25.7578 7.30671C26.0002 7.71959 26.1214 8.21201 26.1214 8.78398C26.1214 9.4014 25.968 9.95254 25.6612 10.4374C25.3582 10.9184 24.9093 11.2991 24.3146 11.5794C23.7199 11.8597 22.987 11.9999 22.1158 11.9999H17.1442ZM19.6044 9.98853H21.6101C22.2957 9.98853 22.7957 9.85784 23.1101 9.59648C23.4245 9.33133 23.5817 8.97906 23.5817 8.53966C23.5817 8.21769 23.504 7.9336 23.3487 7.68739C23.1934 7.44118 22.9718 7.248 22.6839 7.10784C22.3998 6.96769 22.0608 6.89762 21.6669 6.89762H19.6044V9.98853ZM19.6044 5.23284H21.4283C21.7654 5.23284 22.0646 5.17413 22.326 5.05671C22.5911 4.9355 22.7995 4.76504 22.951 4.54534C23.1063 4.32565 23.1839 4.06239 23.1839 3.75557C23.1839 3.33512 23.0343 2.9961 22.7351 2.73853C22.4396 2.48095 22.0192 2.35216 21.4737 2.35216H19.6044V5.23284Z" fill="#FEAA62"/>
<path d="M29.728 11.9999H27.0916L31.1087 0.363525H34.2791L38.2905 11.9999H35.6541L32.7393 3.02262H32.6484L29.728 11.9999ZM29.5632 7.42603H35.7905V9.34648H29.5632V7.42603Z" fill="#FEAA62"/>
<path d="M41.6967 11.9999H39.0604L43.0774 0.363525H46.2479L50.2592 11.9999H47.6229L44.7081 3.02262H44.6172L41.6967 11.9999ZM41.5319 7.42603H47.7592V9.34648H41.5319V7.42603Z" fill="#FEAA62"/>
<path d="M55.3629 11.9999V0.363525H60.022C60.8781 0.363525 61.5921 0.490419 62.1641 0.744207C62.736 0.997995 63.1659 1.35027 63.4538 1.80103C63.7417 2.248 63.8856 2.76315 63.8856 3.34648C63.8856 3.80103 63.7947 4.20065 63.6129 4.54534C63.4311 4.88625 63.1811 5.16656 62.8629 5.38625C62.5485 5.60216 62.1887 5.75557 61.7834 5.84648V5.96012C62.2266 5.97906 62.6413 6.10406 63.0277 6.33512C63.4178 6.56618 63.7341 6.89004 63.9766 7.30671C64.219 7.71959 64.3402 8.21201 64.3402 8.78398C64.3402 9.4014 64.1868 9.95254 63.88 10.4374C63.5769 10.9184 63.1281 11.2991 62.5334 11.5794C61.9387 11.8597 61.2057 11.9999 60.3345 11.9999H55.3629ZM57.8231 9.98853H59.8288C60.5144 9.98853 61.0144 9.85784 61.3288 9.59648C61.6432 9.33133 61.8004 8.97906 61.8004 8.53966C61.8004 8.21769 61.7228 7.9336 61.5675 7.68739C61.4122 7.44118 61.1906 7.248 60.9027 7.10784C60.6186 6.96769 60.2796 6.89762 59.8856 6.89762H57.8231V9.98853ZM57.8231 5.23284H59.647C59.9841 5.23284 60.2834 5.17413 60.5447 5.05671C60.8099 4.9355 61.0182 4.76504 61.1697 4.54534C61.325 4.32565 61.4027 4.06239 61.4027 3.75557C61.4027 3.33512 61.2531 2.9961 60.9538 2.73853C60.6584 2.48095 60.2379 2.35216 59.6925 2.35216H57.8231V5.23284Z" fill="#FEAA62"/>
<path d="M67.9467 11.9999H65.3104L69.3274 0.363525H72.4979L76.5092 11.9999H73.8729L70.9581 3.02262H70.8672L67.9467 11.9999ZM67.782 7.42603H74.0092V9.34648H67.782V7.42603Z" fill="#FEAA62"/>
<path d="M79.9155 11.9999H77.2791L81.2962 0.363525H84.4666L88.478 11.9999H85.8416L82.9268 3.02262H82.8359L79.9155 11.9999ZM79.7507 7.42603H85.978V9.34648H79.7507V7.42603Z" fill="#FEAA62"/>
<path d="M0.151978 30.9999V19.3635H4.81107C5.66713 19.3635 6.38114 19.4904 6.95311 19.7442C7.52508 19.998 7.95501 20.3503 8.24289 20.801C8.53077 21.248 8.6747 21.7631 8.6747 22.3465C8.6747 22.801 8.5838 23.2006 8.40198 23.5453C8.22016 23.8863 7.97016 24.1666 7.65198 24.3863C7.33758 24.6022 6.97774 24.7556 6.57243 24.8465V24.9601C7.01561 24.9791 7.43039 25.1041 7.81675 25.3351C8.2069 25.5662 8.52319 25.89 8.76561 26.3067C9.00804 26.7196 9.12925 27.212 9.12925 27.784C9.12925 28.4014 8.97584 28.9525 8.66902 29.4374C8.36599 29.9184 7.91713 30.2991 7.32243 30.5794C6.72774 30.8597 5.99478 30.9999 5.12357 30.9999H0.151978ZM2.61221 28.9885H4.61789C5.30349 28.9885 5.80349 28.8578 6.11789 28.5965C6.43228 28.3313 6.58948 27.9791 6.58948 27.5397C6.58948 27.2177 6.51183 26.9336 6.35652 26.6874C6.20122 26.4412 5.97963 26.248 5.69175 26.1078C5.40766 25.9677 5.06864 25.8976 4.67471 25.8976H2.61221V28.9885ZM2.61221 24.2328H4.43607C4.77319 24.2328 5.07243 24.1741 5.3338 24.0567C5.59895 23.9355 5.80728 23.765 5.9588 23.5453C6.1141 23.3256 6.19175 23.0624 6.19175 22.7556C6.19175 22.3351 6.04213 21.9961 5.74289 21.7385C5.44743 21.4809 5.02698 21.3522 4.48152 21.3522H2.61221V24.2328Z" fill="#FEAA62"/>
<path d="M10.7301 30.9999V19.3635H13.1903V28.9715H18.179V30.9999H10.7301Z" fill="#FEAA62"/>
<path d="M22.1108 30.9999H19.4744L23.4915 19.3635H26.6619L30.6733 30.9999H28.0369L25.1221 22.0226H25.0312L22.1108 30.9999ZM21.946 26.426H28.1733V28.3465H21.946V26.426Z" fill="#FEAA62"/>
<path d="M41.794 23.4374H39.3054C39.2599 23.1154 39.1671 22.8294 39.027 22.5794C38.8868 22.3256 38.7069 22.1097 38.4872 21.9317C38.2675 21.7537 38.0137 21.6173 37.7258 21.5226C37.4418 21.4279 37.133 21.3806 36.7997 21.3806C36.1974 21.3806 35.6728 21.5302 35.2258 21.8294C34.7789 22.1249 34.4323 22.5567 34.1861 23.1249C33.9399 23.6893 33.8167 24.3749 33.8167 25.1817C33.8167 26.0113 33.9399 26.7082 34.1861 27.2726C34.4361 27.837 34.7846 28.2631 35.2315 28.551C35.6785 28.8389 36.1955 28.9828 36.7827 28.9828C37.1122 28.9828 37.4171 28.9393 37.6974 28.8522C37.9815 28.765 38.2334 28.6381 38.4531 28.4715C38.6728 28.301 38.8546 28.0946 38.9986 27.8522C39.1463 27.6097 39.2486 27.3332 39.3054 27.0226L41.794 27.034C41.7296 27.5681 41.5686 28.0832 41.3111 28.5794C41.0573 29.0719 40.7145 29.5131 40.2827 29.9033C39.8546 30.2897 39.3433 30.5965 38.7486 30.8238C38.1577 31.0472 37.4891 31.159 36.7429 31.159C35.705 31.159 34.777 30.9241 33.9588 30.4544C33.1444 29.9847 32.5005 29.3048 32.027 28.4147C31.5573 27.5245 31.3224 26.4469 31.3224 25.1817C31.3224 23.9128 31.5611 22.8332 32.0383 21.9431C32.5156 21.0529 33.1633 20.3749 33.9815 19.909C34.7997 19.4393 35.7202 19.2044 36.7429 19.2044C37.4171 19.2044 38.0421 19.2991 38.6179 19.4885C39.1974 19.6779 39.7107 19.9544 40.1577 20.3181C40.6046 20.6779 40.9683 21.1192 41.2486 21.6419C41.5327 22.1647 41.7145 22.7631 41.794 23.4374Z" fill="#FEAA62"/>
<path d="M43.5582 30.9999V19.3635H46.0185V24.4942H46.1719L50.3594 19.3635H53.3082L48.99 24.5738L53.3594 30.9999H50.4162L47.2287 26.2158L46.0185 27.6931V30.9999H43.5582Z" fill="#FEAA62"/>
<path d="M60.8082 22.7101C60.7628 22.2518 60.5677 21.8957 60.223 21.6419C59.8783 21.3881 59.4105 21.2613 58.8196 21.2613C58.4181 21.2613 58.0791 21.3181 57.8025 21.4317C57.526 21.5416 57.3139 21.695 57.1662 21.8919C57.0222 22.0889 56.9503 22.3124 56.9503 22.5624C56.9427 22.7707 56.9863 22.9525 57.081 23.1078C57.1794 23.2631 57.3139 23.3976 57.4844 23.5113C57.6548 23.6211 57.8518 23.7177 58.0753 23.801C58.2988 23.8806 58.5374 23.9488 58.7912 24.0056L59.8366 24.2556C60.3442 24.3692 60.8101 24.5207 61.2344 24.7101C61.6586 24.8995 62.026 25.1325 62.3366 25.409C62.6472 25.6855 62.8878 26.0113 63.0582 26.3863C63.2325 26.7613 63.3215 27.1912 63.3253 27.676C63.3215 28.3881 63.1397 29.0056 62.7798 29.5283C62.4238 30.0472 61.9086 30.4506 61.2344 30.7385C60.5639 31.0226 59.7552 31.1647 58.8082 31.1647C57.8688 31.1647 57.0507 31.0207 56.3537 30.7328C55.6605 30.445 55.1188 30.0188 54.7287 29.4544C54.3423 28.8863 54.1397 28.1836 54.1207 27.3465H56.5014C56.5279 27.7366 56.6397 28.0624 56.8366 28.3238C57.0374 28.5813 57.3044 28.7764 57.6378 28.909C57.9749 29.0378 58.3556 29.1022 58.7798 29.1022C59.1965 29.1022 59.5582 29.0416 59.865 28.9203C60.1757 28.7991 60.4162 28.6306 60.5866 28.4147C60.7571 28.1988 60.8423 27.9506 60.8423 27.6703C60.8423 27.409 60.7647 27.1893 60.6094 27.0113C60.4578 26.8332 60.2344 26.6817 59.9389 26.5567C59.6472 26.4317 59.2893 26.3181 58.865 26.2158L57.598 25.8976C56.6169 25.659 55.8423 25.2859 55.2741 24.7783C54.706 24.2707 54.4238 23.587 54.4275 22.7272C54.4238 22.0226 54.6113 21.4071 54.99 20.8806C55.3726 20.3541 55.8972 19.9431 56.5639 19.6476C57.2306 19.3522 57.9882 19.2044 58.8366 19.2044C59.7003 19.2044 60.4541 19.3522 61.098 19.6476C61.7457 19.9431 62.2495 20.3541 62.6094 20.8806C62.9692 21.4071 63.1548 22.0169 63.1662 22.7101H60.8082Z" fill="#FEAA62"/>
<path d="M64.9801 30.9999V19.3635H67.4403V24.1647H72.4346V19.3635H74.8892V30.9999H72.4346V26.1931H67.4403V30.9999H64.9801Z" fill="#FEAA62"/>
<path d="M76.9176 30.9999V19.3635H84.7585V21.3919H79.3778V24.1647H84.3551V26.1931H79.3778V28.9715H84.7812V30.9999H76.9176Z" fill="#FEAA62"/>
<path d="M86.7145 30.9999V19.3635H94.5554V21.3919H89.1747V24.1647H94.152V26.1931H89.1747V28.9715H94.5781V30.9999H86.7145Z" fill="#FEAA62"/>
<path d="M96.5114 30.9999V19.3635H101.102C101.985 19.3635 102.737 19.5321 103.358 19.8692C103.979 20.2025 104.453 20.6666 104.778 21.2613C105.108 21.8522 105.273 22.534 105.273 23.3067C105.273 24.0794 105.106 24.7613 104.773 25.3522C104.439 25.9431 103.956 26.4033 103.324 26.7328C102.695 27.0624 101.934 27.2272 101.04 27.2272H98.1136V25.2556H100.642C101.116 25.2556 101.506 25.1741 101.812 25.0113C102.123 24.8446 102.354 24.6154 102.506 24.3238C102.661 24.0283 102.739 23.6893 102.739 23.3067C102.739 22.9203 102.661 22.5832 102.506 22.2953C102.354 22.0037 102.123 21.7783 101.812 21.6192C101.502 21.4563 101.108 21.3749 100.631 21.3749H98.9716V30.9999H96.5114Z" fill="#FEAA62"/>
</svg>
