<svg width="87" height="15" viewBox="0 0 87 15" fill="none" xmlns="http://www.w3.org/2000/svg">
<path d="M0.504425 15V0.454529H6.32829C7.39836 0.454529 8.29088 0.613146 9.00585 0.930381C9.72081 1.24762 10.2582 1.68796 10.6181 2.2514C10.9779 2.81012 11.1578 3.45406 11.1578 4.18322C11.1578 4.7514 11.0442 5.25093 10.8169 5.6818C10.5897 6.10794 10.2772 6.45832 9.87943 6.73294C9.48643 7.00282 9.03662 7.19459 8.52999 7.30822V7.45027C9.08397 7.47394 9.60244 7.63019 10.0854 7.91902C10.5731 8.20784 10.9684 8.61267 11.2715 9.13351C11.5745 9.64961 11.726 10.2651 11.726 10.9801C11.726 11.7519 11.5343 12.4408 11.1507 13.0469C10.7719 13.6482 10.2109 14.124 9.46749 14.4744C8.72412 14.8248 7.80793 15 6.71891 15H0.504425ZM3.57971 12.4858H6.08681C6.94382 12.4858 7.56882 12.3224 7.96181 11.9957C8.3548 11.6643 8.5513 11.2239 8.5513 10.6747C8.5513 10.2722 8.45424 9.91712 8.26011 9.60936C8.06598 9.30159 7.78899 9.06012 7.42914 8.88493C7.07403 8.70974 6.65026 8.62214 6.15783 8.62214H3.57971V12.4858ZM3.57971 6.54118H5.85954C6.28094 6.54118 6.65499 6.46779 6.9817 6.32101C7.31314 6.16949 7.57355 5.95642 7.76295 5.6818C7.95708 5.40718 8.05414 5.07811 8.05414 4.69459C8.05414 4.16902 7.86711 3.74525 7.49306 3.42328C7.12374 3.10131 6.59818 2.94032 5.91636 2.94032H3.57971V6.54118Z" fill="#FEAA62"/>
<path d="M16.2342 15H12.9387L17.96 0.454529H21.9231L26.9373 15H23.6419L19.9984 3.77839H19.8848L16.2342 15ZM16.0282 9.28265H23.8123V11.6832H16.0282V9.28265Z" fill="#FEAA62"/>
<path d="M40.8542 0.454529V15H38.198L31.8698 5.84515H31.7633V15H28.688V0.454529H31.3869L37.6653 9.60226H37.7931V0.454529H40.8542Z" fill="#FEAA62"/>
<path d="M45.9022 15H42.6067L47.628 0.454529H51.5911L56.6053 15H53.3098L49.6664 3.77839H49.5527L45.9022 15ZM45.6962 9.28265H53.4803V11.6832H45.6962V9.28265Z" fill="#FEAA62"/>
<path d="M70.5222 0.454529V15H67.8659L61.5378 5.84515H61.4313V15H58.356V0.454529H61.0549L67.3333 9.60226H67.4611V0.454529H70.5222Z" fill="#FEAA62"/>
<path d="M75.5701 15H72.2747L77.296 0.454529H81.259L86.2732 15H82.9778L79.3343 3.77839H79.2207L75.5701 15ZM75.3642 9.28265H83.1482V11.6832H75.3642V9.28265Z" fill="#FEAA62"/>
</svg>
