<svg width="94" height="27" viewBox="0 0 94 27" fill="none" xmlns="http://www.w3.org/2000/svg">
<path d="M0.076355 26.9999V0.818115H10.5593C12.4854 0.818115 14.092 1.10363 15.3789 1.67465C16.6658 2.24567 17.6332 3.03829 18.2809 4.05249C18.9286 5.05817 19.2525 6.21726 19.2525 7.52976C19.2525 8.55249 19.0479 9.45164 18.6389 10.2272C18.2298 10.9943 17.6673 11.6249 16.9514 12.1193C16.244 12.605 15.4343 12.9502 14.5224 13.1548V13.4104C15.5195 13.4531 16.4528 13.7343 17.3221 14.2542C18.1999 14.7741 18.9116 15.5028 19.457 16.4403C20.0025 17.3693 20.2752 18.4772 20.2752 19.7641C20.2752 21.1533 19.93 22.3934 19.2397 23.4843C18.5579 24.5667 17.5479 25.4232 16.2099 26.0539C14.8718 26.6846 13.2227 26.9999 11.2624 26.9999H0.076355ZM5.61187 22.4744H10.1247C11.6673 22.4744 12.7923 22.1803 13.4997 21.5923C14.207 20.9957 14.5607 20.2031 14.5607 19.2144C14.5607 18.49 14.386 17.8508 14.0366 17.2968C13.6872 16.7428 13.1886 16.3082 12.5408 15.9928C11.9016 15.6775 11.1389 15.5198 10.2525 15.5198H5.61187V22.4744ZM5.61187 11.7741H9.71556C10.4741 11.7741 11.1474 11.642 11.7354 11.3778C12.332 11.105 12.8008 10.7215 13.1417 10.2272C13.4911 9.73289 13.6658 9.14056 13.6658 8.45022C13.6658 7.5042 13.3292 6.74141 12.6559 6.16187C11.9911 5.58232 11.0451 5.29255 9.81783 5.29255H5.61187V11.7741Z" fill="#FEAA62"/>
<path d="M23.8771 26.9999V0.818115H41.5192V5.38204H29.4126V11.6207H40.6115V16.1846H29.4126V22.436H41.5703V26.9999H23.8771Z" fill="#FEAA62"/>
<path d="M50.4329 26.9999H44.5011L53.5394 0.818115H60.6729L69.6985 26.9999H63.7667L57.2085 6.80107H57.0039L50.4329 26.9999ZM50.0621 16.7087H64.0735V21.0298H50.0621V16.7087Z" fill="#FEAA62"/>
<path d="M72.8498 26.9999V0.818115H83.1793C85.1566 0.818115 86.8441 1.17181 88.2418 1.87919C89.6481 2.57806 90.7177 3.57096 91.4506 4.85789C92.1921 6.1363 92.5629 7.64056 92.5629 9.37067C92.5629 11.1093 92.1879 12.605 91.4379 13.8579C90.6879 15.1022 89.6012 16.0568 88.1779 16.7215C86.7631 17.3863 85.0501 17.7187 83.0387 17.7187H76.1225V13.2698H82.1438C83.2006 13.2698 84.0785 13.1249 84.7774 12.8352C85.4762 12.5454 85.9961 12.1107 86.337 11.5312C86.6864 10.9516 86.8612 10.2315 86.8612 9.37067C86.8612 8.50135 86.6864 7.7684 86.337 7.17181C85.9961 6.57522 85.472 6.12351 84.7646 5.8167C84.0657 5.50135 83.1836 5.34368 82.1183 5.34368H78.3853V26.9999H72.8498ZM86.989 15.0852L93.4961 26.9999H87.3853L81.0188 15.0852H86.989Z" fill="#FEAA62"/>
</svg>
