<svg width="107" height="16" viewBox="0 0 107 16" fill="none" xmlns="http://www.w3.org/2000/svg">
<path d="M0.36969 14.9999V0.454479H6.19355C7.26363 0.454479 8.15615 0.613096 8.87111 0.930331C9.58607 1.24757 10.1235 1.68791 10.4833 2.25135C10.8432 2.81007 11.0231 3.45401 11.0231 4.18317C11.0231 4.75135 10.9095 5.25088 10.6822 5.68175C10.4549 6.10789 10.1424 6.45827 9.74469 6.73289C9.3517 7.00277 8.90189 7.19454 8.39526 7.30817V7.45022C8.94924 7.47389 9.4677 7.63014 9.95066 7.91897C10.4383 8.20779 10.8337 8.61262 11.1367 9.13346C11.4398 9.64955 11.5913 10.2651 11.5913 10.98C11.5913 11.7518 11.3995 12.4407 11.016 13.0468C10.6372 13.6481 10.0761 14.124 9.33276 14.4744C8.58939 14.8247 7.67319 14.9999 6.58418 14.9999H0.36969ZM3.44497 12.4857H5.95208C6.80908 12.4857 7.43408 12.3224 7.82708 11.9957C8.22007 11.6642 8.41656 11.2239 8.41656 10.6746C8.41656 10.2722 8.3195 9.91707 8.12537 9.60931C7.93124 9.30154 7.65425 9.06007 7.29441 8.88488C6.93929 8.70969 6.51552 8.62209 6.0231 8.62209H3.44497V12.4857ZM3.44497 6.54113H5.7248C6.14621 6.54113 6.52026 6.46774 6.84696 6.32096C7.1784 6.16944 7.43882 5.95637 7.62821 5.68175C7.82234 5.40713 7.91941 5.07806 7.91941 4.69454C7.91941 4.16897 7.73238 3.7452 7.35833 3.42323C6.98901 3.10126 6.46344 2.94027 5.78162 2.94027H3.44497V6.54113Z" fill="#FEAA62"/>
<path d="M16.6676 0.454479V14.9999H13.5923V0.454479H16.6676Z" fill="#FEAA62"/>
<path d="M27.0884 4.63772C27.0316 4.0648 26.7878 3.61973 26.3569 3.30249C25.926 2.98526 25.3413 2.82664 24.6026 2.82664C24.1007 2.82664 23.677 2.89766 23.3313 3.03971C22.9857 3.17702 22.7205 3.36878 22.5359 3.61499C22.356 3.8612 22.266 4.14056 22.266 4.45306C22.2565 4.71348 22.311 4.94075 22.4293 5.13488C22.5525 5.32901 22.7205 5.49709 22.9336 5.63914C23.1467 5.77645 23.3929 5.89719 23.6722 6.00135C23.9516 6.10079 24.2499 6.18601 24.5671 6.25704L25.874 6.56954C26.5084 6.71158 27.0908 6.90098 27.6211 7.13772C28.1514 7.37446 28.6107 7.66565 28.999 8.0113C29.3872 8.35694 29.6879 8.76414 29.9009 9.23289C30.1187 9.70164 30.23 10.239 30.2347 10.8451C30.23 11.7353 30.0027 12.507 29.5529 13.1604C29.1079 13.8091 28.4639 14.3134 27.6211 14.6732C26.783 15.0283 25.7722 15.2059 24.5884 15.2059C23.4142 15.2059 22.3915 15.026 21.5203 14.6661C20.6538 14.3063 19.9767 13.7736 19.489 13.0681C19.0061 12.3579 18.7527 11.4796 18.7291 10.4332H21.7049C21.7381 10.9209 21.8777 11.3281 22.124 11.6548C22.3749 11.9767 22.7087 12.2206 23.1254 12.3863C23.5468 12.5473 24.0226 12.6278 24.5529 12.6278C25.0738 12.6278 25.5259 12.552 25.9095 12.4005C26.2977 12.249 26.5984 12.0383 26.8115 11.7684C27.0245 11.4985 27.1311 11.1884 27.1311 10.838C27.1311 10.5113 27.034 10.2367 26.8399 10.0141C26.6505 9.7916 26.3711 9.60221 26.0018 9.44596C25.6372 9.28971 25.1898 9.14766 24.6595 9.01982L23.0757 8.62209C21.8493 8.3238 20.8811 7.85741 20.1708 7.22295C19.4606 6.58848 19.1079 5.73384 19.1126 4.65902C19.1079 3.77834 19.3422 3.00893 19.8157 2.35079C20.2939 1.69264 20.9497 1.17891 21.783 0.809593C22.6164 0.440274 23.5633 0.255615 24.624 0.255615C25.7035 0.255615 26.6457 0.440274 27.4507 0.809593C28.2603 1.17891 28.8901 1.69264 29.3399 2.35079C29.7897 3.00893 30.0217 3.77124 30.0359 4.63772H27.0884Z" fill="#FEAA62"/>
<path d="M32.3033 0.454479H36.0959L40.1016 10.2272H40.272L44.2777 0.454479H48.0703V14.9999H45.0874V5.5326H44.9666L41.2024 14.9289H39.1712L35.407 5.49709H35.2862V14.9999H32.3033V0.454479Z" fill="#FEAA62"/>
<path d="M53.6793 0.454479V14.9999H50.6041V0.454479H53.6793Z" fill="#FEAA62"/>
<path d="M56.2095 14.9999V0.454479H59.2848V12.4644H65.5206V14.9999H56.2095Z" fill="#FEAA62"/>
<path d="M67.5572 14.9999V0.454479H70.6325V12.4644H76.8683V14.9999H67.5572Z" fill="#FEAA62"/>
<path d="M81.783 14.9999H78.4876L83.5089 0.454479H87.472L92.4862 14.9999H89.1907L85.5472 3.77834H85.4336L81.783 14.9999ZM81.5771 9.2826H89.3612V11.6832H81.5771V9.2826Z" fill="#FEAA62"/>
<path d="M94.2369 14.9999V0.454479H97.3122V6.4559H103.555V0.454479H106.623V14.9999H103.555V8.99141H97.3122V14.9999H94.2369Z" fill="#FEAA62"/>
</svg>
