<svg width="114" height="28" viewBox="0 0 114 28" fill="none" xmlns="http://www.w3.org/2000/svg">
<path d="M23.9213 9.98435H18.3219C18.2196 9.25992 18.0108 8.61646 17.6955 8.05396C17.3801 7.48293 16.9753 6.99714 16.481 6.59657C15.9867 6.196 15.4157 5.88918 14.7679 5.67611C14.1287 5.46305 13.4341 5.35651 12.6841 5.35651C11.329 5.35651 10.1486 5.69316 9.14293 6.36646C8.13725 7.03123 7.35742 8.00282 6.80344 9.28123C6.24947 10.5511 5.97248 12.0937 5.97248 13.9091C5.97248 15.7755 6.24947 17.3437 6.80344 18.6136C7.36594 19.8835 8.15003 20.8423 9.15571 21.49C10.1614 22.1378 11.3247 22.4616 12.6458 22.4616C13.3872 22.4616 14.0733 22.3636 14.704 22.1676C15.3432 21.9716 15.91 21.6861 16.4043 21.3111C16.8986 20.9275 17.3077 20.463 17.6316 19.9176C17.964 19.3721 18.1941 18.75 18.3219 18.0511L23.9213 18.0767C23.7765 19.2784 23.4142 20.4375 22.8347 21.554C22.2637 22.6619 21.4924 23.6548 20.5208 24.5326C19.5577 25.402 18.4071 26.0923 17.0691 26.6037C15.7395 27.1065 14.2353 27.3579 12.5563 27.3579C10.2211 27.3579 8.13299 26.8295 6.29208 25.7727C4.45969 24.7159 3.01083 23.1861 1.94549 21.1832C0.888669 19.1804 0.36026 16.7557 0.36026 13.9091C0.36026 11.054 0.897192 8.62498 1.97106 6.62214C3.04492 4.6193 4.50231 3.09373 6.34321 2.04543C8.18412 0.988615 10.2551 0.460205 12.5563 0.460205C14.0733 0.460205 15.4796 0.673273 16.775 1.09941C18.079 1.52555 19.2338 2.14771 20.2395 2.96589C21.2452 3.77555 22.0634 4.76844 22.6941 5.94458C23.3333 7.12072 23.7424 8.46731 23.9213 9.98435Z" fill="#FEAA62"/>
<path d="M27.8908 27V0.81816H33.4263V11.6207H44.6635V0.81816H50.1863V27H44.6635V16.1846H33.4263V27H27.8908Z" fill="#FEAA62"/>
<path d="M60.2857 0.81816V27H54.7502V0.81816H60.2857Z" fill="#FEAA62"/>
<path d="M87.9409 9.98435H82.3414C82.2392 9.25992 82.0304 8.61646 81.715 8.05396C81.3997 7.48293 80.9948 6.99714 80.5005 6.59657C80.0062 6.196 79.4352 5.88918 78.7875 5.67611C78.1483 5.46305 77.4537 5.35651 76.7037 5.35651C75.3485 5.35651 74.1681 5.69316 73.1625 6.36646C72.1568 7.03123 71.377 8.00282 70.823 9.28123C70.269 10.5511 69.992 12.0937 69.992 13.9091C69.992 15.7755 70.269 17.3437 70.823 18.6136C71.3855 19.8835 72.1696 20.8423 73.1752 21.49C74.1809 22.1378 75.3443 22.4616 76.6653 22.4616C77.4068 22.4616 78.0929 22.3636 78.7235 22.1676C79.3627 21.9716 79.9295 21.6861 80.4238 21.3111C80.9181 20.9275 81.3272 20.463 81.6511 19.9176C81.9835 19.3721 82.2136 18.75 82.3414 18.0511L87.9409 18.0767C87.796 19.2784 87.4338 20.4375 86.8542 21.554C86.2832 22.6619 85.5119 23.6548 84.5403 24.5326C83.5772 25.402 82.4267 26.0923 81.0886 26.6037C79.7591 27.1065 78.2548 27.3579 76.5758 27.3579C74.2406 27.3579 72.1525 26.8295 70.3116 25.7727C68.4792 24.7159 67.0304 23.1861 65.965 21.1832C64.9082 19.1804 64.3798 16.7557 64.3798 13.9091C64.3798 11.054 64.9167 8.62498 65.9906 6.62214C67.0644 4.6193 68.5218 3.09373 70.3627 2.04543C72.2037 0.988615 74.2747 0.460205 76.5758 0.460205C78.0929 0.460205 79.4991 0.673273 80.7946 1.09941C82.0985 1.52555 83.2534 2.14771 84.2591 2.96589C85.2647 3.77555 86.0829 4.76844 86.7136 5.94458C87.3528 7.12072 87.7619 8.46731 87.9409 9.98435Z" fill="#FEAA62"/>
<path d="M91.9103 27V0.81816H97.4458V12.3622H97.791L107.213 0.81816H113.848L104.132 12.5412L113.963 27H107.341L100.169 16.2358L97.4458 19.5596V27H91.9103Z" fill="#FEAA62"/>
</svg>
