<svg width="50" height="19" viewBox="0 0 50 19" fill="none" xmlns="http://www.w3.org/2000/svg">
<path d="M16.3707 6.65626H12.6378C12.5696 6.1733 12.4304 5.74432 12.2201 5.36932C12.0099 4.98864 11.74 4.66478 11.4105 4.39773C11.0809 4.13069 10.7003 3.92614 10.2684 3.7841C9.84231 3.64205 9.37924 3.57103 8.87924 3.57103C7.97583 3.57103 7.1889 3.79546 6.51844 4.24432C5.84799 4.68751 5.3281 5.33523 4.95879 6.18751C4.58947 7.0341 4.40481 8.06251 4.40481 9.27273C4.40481 10.5171 4.58947 11.5625 4.95879 12.4091C5.33378 13.2557 5.85651 13.8949 6.52697 14.3267C7.19742 14.7585 7.97299 14.9744 8.85367 14.9744C9.34799 14.9744 9.80538 14.9091 10.2258 14.7784C10.652 14.6477 11.0298 14.4574 11.3594 14.2074C11.6889 13.9517 11.9616 13.6421 12.1775 13.2784C12.3991 12.9148 12.5525 12.5 12.6378 12.0341L16.3707 12.0511C16.2741 12.8523 16.0326 13.625 15.6463 14.3693C15.2656 15.108 14.7514 15.7699 14.1037 16.3551C13.4616 16.9347 12.6946 17.3949 11.8025 17.7358C10.9162 18.071 9.91333 18.2386 8.79401 18.2386C7.23719 18.2386 5.84515 17.8864 4.61788 17.1818C3.39628 16.4773 2.43038 15.4574 1.72015 14.1222C1.0156 12.7869 0.66333 11.1705 0.66333 9.27273C0.66333 7.36932 1.02128 5.75001 1.73719 4.41478C2.4531 3.07955 3.42469 2.06251 4.65197 1.36364C5.87924 0.659097 7.25992 0.306824 8.79401 0.306824C9.80538 0.306824 10.7429 0.448869 11.6065 0.73296C12.4758 1.01705 13.2457 1.43182 13.9162 1.97728C14.5866 2.51705 15.1321 3.17898 15.5525 3.96307C15.9787 4.74716 16.2514 5.64489 16.3707 6.65626Z" fill="#FEAA62"/>
<path d="M29.7983 0.54546H33.4886V11.8807C33.4886 13.1534 33.1846 14.2671 32.5767 15.2216C31.9744 16.1761 31.1307 16.9205 30.0454 17.4546C28.9602 17.983 27.696 18.2472 26.2528 18.2472C24.804 18.2472 23.5369 17.983 22.4517 17.4546C21.3665 16.9205 20.5227 16.1761 19.9204 15.2216C19.3182 14.2671 19.017 13.1534 19.017 11.8807V0.54546H22.7074V11.5653C22.7074 12.2301 22.8523 12.821 23.142 13.3381C23.4375 13.8551 23.8523 14.2614 24.3863 14.5568C24.9204 14.8523 25.5426 15 26.2528 15C26.9687 15 27.5909 14.8523 28.1193 14.5568C28.6534 14.2614 29.0653 13.8551 29.3551 13.3381C29.6505 12.821 29.7983 12.2301 29.7983 11.5653V0.54546Z" fill="#FEAA62"/>
<path d="M36.5248 18V0.54546H43.4112C44.7351 0.54546 45.8629 0.798301 46.7947 1.30398C47.7265 1.80398 48.4368 2.50001 48.9254 3.39205C49.4197 4.27841 49.6669 5.30114 49.6669 6.46023C49.6669 7.61932 49.4169 8.64205 48.9169 9.52841C48.4169 10.4148 47.6925 11.1051 46.7436 11.5994C45.8004 12.0938 44.6584 12.3409 43.3175 12.3409H38.9282V9.38353H42.7209C43.4311 9.38353 44.0163 9.26137 44.4765 9.01705C44.9424 8.76705 45.289 8.4233 45.5163 7.9858C45.7493 7.54262 45.8657 7.0341 45.8657 6.46023C45.8657 5.88069 45.7493 5.37501 45.5163 4.94319C45.289 4.50569 44.9424 4.16762 44.4765 3.92898C44.0106 3.68467 43.4197 3.56251 42.7038 3.56251H40.2152V18H36.5248Z" fill="#FEAA62"/>
</svg>
