<svg width="92" height="27" viewBox="0 0 92 27" fill="none" xmlns="http://www.w3.org/2000/svg">
<path d="M9.60565 26.9999H0.324402V0.818115H9.68236C12.3159 0.818115 14.5829 1.34226 16.4835 2.39056C18.3841 3.43033 19.8457 4.92607 20.8684 6.87777C21.8997 8.82948 22.4153 11.1647 22.4153 13.8835C22.4153 16.6107 21.8997 18.9545 20.8684 20.9147C19.8457 22.8749 18.3755 24.3792 16.4579 25.4275C14.5488 26.4758 12.2647 26.9999 9.60565 26.9999ZM5.85991 22.257H9.37554C11.0119 22.257 12.3883 21.9673 13.5048 21.3877C14.6298 20.7996 15.4735 19.892 16.036 18.6647C16.6071 17.4289 16.8926 15.8352 16.8926 13.8835C16.8926 11.9488 16.6071 10.3678 16.036 9.14056C15.4735 7.91329 14.6341 7.00988 13.5176 6.43033C12.4011 5.85079 11.0247 5.56101 9.38832 5.56101H5.85991V22.257Z" fill="#FEAA62"/>
<path d="M26.5158 26.9999V0.818115H44.1579V5.38204H32.0513V11.6207H43.2502V16.1846H32.0513V22.436H44.209V26.9999H26.5158Z" fill="#FEAA62"/>
<path d="M48.5588 26.9999V0.818115H66.2008V5.38204H54.0943V11.6207H65.2932V16.1846H54.0943V22.436H66.252V26.9999H48.5588Z" fill="#FEAA62"/>
<path d="M70.6017 26.9999V0.818115H80.9313C82.9086 0.818115 84.5961 1.17181 85.9938 1.87919C87.4 2.57806 88.4696 3.57096 89.2026 4.85789C89.9441 6.1363 90.3148 7.64056 90.3148 9.37067C90.3148 11.1093 89.9398 12.605 89.1898 13.8579C88.4398 15.1022 87.3532 16.0568 85.9299 16.7215C84.5151 17.3863 82.802 17.7187 80.7907 17.7187H73.8745V13.2698H79.8958C80.9526 13.2698 81.8304 13.1249 82.5293 12.8352C83.2282 12.5454 83.748 12.1107 84.089 11.5312C84.4384 10.9516 84.6131 10.2315 84.6131 9.37067C84.6131 8.50135 84.4384 7.7684 84.089 7.17181C83.748 6.57522 83.2239 6.12351 82.5165 5.8167C81.8177 5.50135 80.9355 5.34368 79.8702 5.34368H76.1373V26.9999H70.6017ZM84.741 15.0852L91.2481 26.9999H85.1373L78.7708 15.0852H84.741Z" fill="#FEAA62"/>
</svg>
