<svg width="78" height="28" viewBox="0 0 78 28" fill="none" xmlns="http://www.w3.org/2000/svg">
<path d="M9.68768 27H0.406433V0.81816H9.76439C12.3979 0.81816 14.665 1.34231 16.5655 2.3906C18.4661 3.43038 19.9277 4.92611 20.9505 6.87782C21.9817 8.82952 22.4973 11.1648 22.4973 13.8835C22.4973 16.6108 21.9817 18.9545 20.9505 20.9148C19.9277 22.875 18.4576 24.3792 16.54 25.4275C14.6309 26.4758 12.3468 27 9.68768 27ZM5.94194 22.2571H9.45757C11.0939 22.2571 12.4704 21.9673 13.5868 21.3878C14.7118 20.7997 15.5556 19.892 16.1181 18.6648C16.6891 17.429 16.9746 15.8352 16.9746 13.8835C16.9746 11.9488 16.6891 10.3679 16.1181 9.1406C15.5556 7.91333 14.7161 7.00992 13.5996 6.43038C12.4831 5.85083 11.1067 5.56106 9.47035 5.56106H5.94194V22.2571Z" fill="#FEAA62"/>
<path d="M50.6575 13.9091C50.6575 16.7642 50.1163 19.1932 49.0339 21.196C47.9601 23.1988 46.4941 24.7287 44.6362 25.7855C42.7868 26.8338 40.7072 27.3579 38.3976 27.3579C36.0709 27.3579 33.9828 26.8295 32.1334 25.7727C30.2839 24.7159 28.8223 23.1861 27.7484 21.1832C26.6745 19.1804 26.1376 16.7557 26.1376 13.9091C26.1376 11.054 26.6745 8.62498 27.7484 6.62214C28.8223 4.6193 30.2839 3.09373 32.1334 2.04543C33.9828 0.988615 36.0709 0.460205 38.3976 0.460205C40.7072 0.460205 42.7868 0.988615 44.6362 2.04543C46.4941 3.09373 47.9601 4.6193 49.0339 6.62214C50.1163 8.62498 50.6575 11.054 50.6575 13.9091ZM45.0453 13.9091C45.0453 12.0596 44.7683 10.5 44.2143 9.23009C43.6689 7.96021 42.8976 6.99714 41.9004 6.34089C40.9032 5.68464 39.7356 5.35651 38.3976 5.35651C37.0595 5.35651 35.8919 5.68464 34.8947 6.34089C33.8976 6.99714 33.122 7.96021 32.568 9.23009C32.0226 10.5 31.7498 12.0596 31.7498 13.9091C31.7498 15.7585 32.0226 17.3182 32.568 18.588C33.122 19.8579 33.8976 20.821 34.8947 21.4773C35.8919 22.1335 37.0595 22.4616 38.3976 22.4616C39.7356 22.4616 40.9032 22.1335 41.9004 21.4773C42.8976 20.821 43.6689 19.8579 44.2143 18.588C44.7683 17.3182 45.0453 15.7585 45.0453 13.9091Z" fill="#FEAA62"/>
<path d="M72.1188 9.28123C71.9398 8.65907 71.6884 8.10935 71.3645 7.63208C71.0407 7.14629 70.6444 6.7372 70.1756 6.40481C69.7154 6.0639 69.187 5.80396 68.5904 5.62498C68.0023 5.446 67.3503 5.35651 66.6344 5.35651C65.2963 5.35651 64.1202 5.6889 63.106 6.35367C62.1003 7.01844 61.3162 7.98577 60.7537 9.25566C60.1912 10.517 59.91 12.0596 59.91 13.8835C59.91 15.7074 60.187 17.2585 60.741 18.5369C61.2949 19.8153 62.079 20.7912 63.0932 21.4645C64.1074 22.1292 65.3049 22.4616 66.6856 22.4616C67.9384 22.4616 69.008 22.24 69.8944 21.7969C70.7892 21.3451 71.4711 20.7102 71.9398 19.892C72.4171 19.0738 72.6557 18.1065 72.6557 16.99L73.7807 17.1562H67.0307V12.9886H77.9867V16.2869C77.9867 18.588 77.5009 20.5653 76.5293 22.2187C75.5577 23.8636 74.2196 25.1335 72.5151 26.0284C70.8106 26.9148 68.8588 27.3579 66.66 27.3579C64.2054 27.3579 62.0492 26.8167 60.1912 25.7344C58.3333 24.6434 56.8844 23.0966 55.8446 21.0937C54.8134 19.0824 54.2978 16.696 54.2978 13.9346C54.2978 11.8125 54.6046 9.92043 55.2182 8.2585C55.8404 6.58805 56.7097 5.17327 57.8262 4.01418C58.9427 2.85509 60.2424 1.97299 61.7253 1.36788C63.2083 0.762762 64.8148 0.460205 66.5449 0.460205C68.0279 0.460205 69.4086 0.677535 70.687 1.11219C71.9654 1.53833 73.0989 2.14344 74.0875 2.92753C75.0847 3.71163 75.8986 4.64486 76.5293 5.72725C77.16 6.80111 77.5648 7.98577 77.7438 9.28123H72.1188Z" fill="#FEAA62"/>
</svg>
