<svg width="88" height="16" viewBox="0 0 88 16" fill="none" xmlns="http://www.w3.org/2000/svg">
<path d="M5.55719 15H0.40094V0.45454H5.5998C7.06287 0.45454 8.32234 0.745733 9.37821 1.32812C10.4341 1.90577 11.2461 2.73674 11.8143 3.82102C12.3872 4.9053 12.6737 6.20265 12.6737 7.71306C12.6737 9.22821 12.3872 10.5303 11.8143 11.6193C11.2461 12.7083 10.4293 13.544 9.36401 14.1264C8.3034 14.7088 7.03446 15 5.55719 15ZM3.47622 12.3651H5.42935C6.33844 12.3651 7.10312 12.2041 7.72338 11.8821C8.34838 11.5554 8.81713 11.0511 9.12963 10.3693C9.44687 9.68276 9.60548 8.79734 9.60548 7.71306C9.60548 6.63825 9.44687 5.75994 9.12963 5.07812C8.81713 4.3963 8.35075 3.89441 7.73049 3.57244C7.11022 3.25047 6.34554 3.08948 5.43645 3.08948H3.47622V12.3651Z" fill="#FEAA62"/>
<path d="M28.3182 7.72727C28.3182 9.31344 28.0175 10.6629 27.4162 11.7756C26.8196 12.8883 26.0052 13.7382 24.973 14.3253C23.9456 14.9077 22.7903 15.1989 21.5071 15.1989C20.2145 15.1989 19.0545 14.9053 18.027 14.3182C16.9995 13.7311 16.1875 12.8812 15.5909 11.7685C14.9943 10.6558 14.696 9.30871 14.696 7.72727C14.696 6.14109 14.9943 4.79166 15.5909 3.67897C16.1875 2.56628 16.9995 1.71874 18.027 1.13636C19.0545 0.549237 20.2145 0.255676 21.5071 0.255676C22.7903 0.255676 23.9456 0.549237 24.973 1.13636C26.0052 1.71874 26.8196 2.56628 27.4162 3.67897C28.0175 4.79166 28.3182 6.14109 28.3182 7.72727ZM25.2003 7.72727C25.2003 6.69981 25.0464 5.83333 24.7387 5.12784C24.4356 4.42234 24.0071 3.88731 23.4531 3.52272C22.8992 3.15814 22.2505 2.97585 21.5071 2.97585C20.7637 2.97585 20.1151 3.15814 19.5611 3.52272C19.0071 3.88731 18.5762 4.42234 18.2685 5.12784C17.9655 5.83333 17.8139 6.69981 17.8139 7.72727C17.8139 8.75473 17.9655 9.62121 18.2685 10.3267C18.5762 11.0322 19.0071 11.5672 19.5611 11.9318C20.1151 12.2964 20.7637 12.4787 21.5071 12.4787C22.2505 12.4787 22.8992 12.2964 23.4531 11.9318C24.0071 11.5672 24.4356 11.0322 24.7387 10.3267C25.0464 9.62121 25.2003 8.75473 25.2003 7.72727Z" fill="#FEAA62"/>
<path d="M30.5963 15V0.45454H33.6715V12.4645H39.9073V15H30.5963Z" fill="#FEAA62"/>
<path d="M41.9439 15V0.45454H47.6825C48.7858 0.45454 49.7256 0.665241 50.5021 1.08664C51.2787 1.50331 51.8705 2.08333 52.2777 2.8267C52.6896 3.56534 52.8956 4.41761 52.8956 5.38352C52.8956 6.34943 52.6873 7.2017 52.2706 7.94034C51.8539 8.67897 51.2503 9.25426 50.4595 9.66619C49.6735 10.0781 48.7218 10.2841 47.6044 10.2841H43.9468V7.8196H47.1073C47.6991 7.8196 48.1868 7.7178 48.5703 7.5142C48.9586 7.30587 49.2474 7.01941 49.4368 6.65482C49.6309 6.28551 49.728 5.86174 49.728 5.38352C49.728 4.90056 49.6309 4.47916 49.4368 4.11931C49.2474 3.75473 48.9586 3.47301 48.5703 3.27414C48.1821 3.07054 47.6896 2.96874 47.0931 2.96874H45.0192V15H41.9439Z" fill="#FEAA62"/>
<path d="M54.8931 15V0.45454H57.9684V6.45596H64.2113V0.45454H67.2795V15H64.2113V8.99147H57.9684V15H54.8931Z" fill="#FEAA62"/>
<path d="M72.8903 0.45454V15H69.815V0.45454H72.8903Z" fill="#FEAA62"/>
<path d="M87.5867 0.45454V15H84.9304L78.6023 5.84517H78.4958V15H75.4205V0.45454H78.1193L84.3977 9.60227H84.5256V0.45454H87.5867Z" fill="#FEAA62"/>
</svg>
