<svg width="50" height="19" viewBox="0 0 50 19" fill="none" xmlns="http://www.w3.org/2000/svg">
<path d="M0.91156 18V0.54546H12.6729V3.58807H4.6019V7.74716H12.0678V10.7898H4.6019V14.9574H12.707V18H0.91156Z" fill="#FEAA62"/>
<path d="M27.1807 6.18751C27.0614 5.77273 26.8938 5.40626 26.6779 5.08807C26.462 4.76421 26.1978 4.49148 25.8853 4.26989C25.5785 4.04262 25.2262 3.86932 24.8285 3.75001C24.4364 3.63069 24.0018 3.57103 23.5245 3.57103C22.6324 3.57103 21.8484 3.79262 21.1722 4.2358C20.5018 4.67898 19.979 5.32387 19.604 6.17046C19.229 7.01137 19.0415 8.03978 19.0415 9.25569C19.0415 10.4716 19.2262 11.5057 19.5955 12.358C19.9648 13.2102 20.4876 13.8608 21.1637 14.3097C21.8398 14.7528 22.6381 14.9744 23.5586 14.9744C24.3938 14.9744 25.1069 14.8267 25.6978 14.5313C26.2944 14.2301 26.7489 13.8068 27.0614 13.2614C27.3796 12.7159 27.5387 12.071 27.5387 11.3267L28.2887 11.4375H23.7887V8.6591H31.0927V10.858C31.0927 12.3921 30.7688 13.7102 30.1211 14.8125C29.4733 15.9091 28.5813 16.7557 27.4449 17.3523C26.3086 17.9432 25.0074 18.2386 23.5415 18.2386C21.9052 18.2386 20.4677 17.8778 19.229 17.1563C17.9904 16.429 17.0245 15.3977 16.3313 14.0625C15.6438 12.7216 15.3001 11.1307 15.3001 9.28978C15.3001 7.87501 15.5046 6.61364 15.9137 5.50569C16.3285 4.39205 16.908 3.44887 17.6523 2.67614C18.3966 1.90341 19.2631 1.31535 20.2518 0.911937C21.2404 0.508528 22.3114 0.306824 23.4648 0.306824C24.4535 0.306824 25.3739 0.45171 26.2262 0.741483C27.0785 1.02557 27.8341 1.42898 28.4932 1.95171C29.158 2.47444 29.7006 3.0966 30.1211 3.81819C30.5415 4.5341 30.8114 5.32387 30.9307 6.18751H27.1807Z" fill="#FEAA62"/>
<path d="M45.4385 6.18751C45.3192 5.77273 45.1516 5.40626 44.9357 5.08807C44.7198 4.76421 44.4556 4.49148 44.1431 4.26989C43.8363 4.04262 43.484 3.86932 43.0863 3.75001C42.6942 3.63069 42.2596 3.57103 41.7823 3.57103C40.8903 3.57103 40.1062 3.79262 39.43 4.2358C38.7596 4.67898 38.2368 5.32387 37.8618 6.17046C37.4868 7.01137 37.2993 8.03978 37.2993 9.25569C37.2993 10.4716 37.484 11.5057 37.8533 12.358C38.2226 13.2102 38.7454 13.8608 39.4215 14.3097C40.0976 14.7528 40.8959 14.9744 41.8164 14.9744C42.6516 14.9744 43.3647 14.8267 43.9556 14.5313C44.5522 14.2301 45.0067 13.8068 45.3192 13.2614C45.6374 12.7159 45.7965 12.071 45.7965 11.3267L46.5465 11.4375H42.0465V8.6591H49.3505V10.858C49.3505 12.3921 49.0266 13.7102 48.3789 14.8125C47.7312 15.9091 46.8391 16.7557 45.7028 17.3523C44.5664 17.9432 43.2653 18.2386 41.7993 18.2386C40.163 18.2386 38.7255 17.8778 37.4868 17.1563C36.2482 16.429 35.2823 15.3977 34.5891 14.0625C33.9016 12.7216 33.5579 11.1307 33.5579 9.28978C33.5579 7.87501 33.7624 6.61364 34.1715 5.50569C34.5863 4.39205 35.1658 3.44887 35.9101 2.67614C36.6545 1.90341 37.5209 1.31535 38.5096 0.911937C39.4982 0.508528 40.5692 0.306824 41.7226 0.306824C42.7113 0.306824 43.6317 0.45171 44.484 0.741483C45.3363 1.02557 46.092 1.42898 46.751 1.95171C47.4158 2.47444 47.9584 3.0966 48.3789 3.81819C48.7993 4.5341 49.0692 5.32387 49.1885 6.18751H45.4385Z" fill="#FEAA62"/>
</svg>
