<svg width="107" height="28" viewBox="0 0 107 28" fill="none" xmlns="http://www.w3.org/2000/svg">
<path d="M0.0626831 27V0.81816H17.7047V5.38208H5.59819V11.6207H16.7971V16.1846H5.59819V22.4361H17.7559V27H0.0626831Z" fill="#FEAA62"/>
<path d="M27.6412 0.81816V27H22.1057V0.81816H27.6412Z" fill="#FEAA62"/>
<path d="M49.5563 9.28123C49.3773 8.65907 49.1259 8.10935 48.802 7.63208C48.4782 7.14629 48.0819 6.7372 47.6131 6.40481C47.1529 6.0639 46.6245 5.80396 46.0279 5.62498C45.4398 5.446 44.7878 5.35651 44.0719 5.35651C42.7339 5.35651 41.5577 5.6889 40.5435 6.35367C39.5378 7.01844 38.7537 7.98577 38.1912 9.25566C37.6287 10.517 37.3475 12.0596 37.3475 13.8835C37.3475 15.7074 37.6245 17.2585 38.1785 18.5369C38.7324 19.8153 39.5165 20.7912 40.5307 21.4645C41.5449 22.1292 42.7424 22.4616 44.1231 22.4616C45.3759 22.4616 46.4455 22.24 47.3319 21.7969C48.2267 21.3451 48.9086 20.7102 49.3773 19.892C49.8546 19.0738 50.0932 18.1065 50.0932 16.99L51.2182 17.1562H44.4682V12.9886H55.4242V16.2869C55.4242 18.588 54.9384 20.5653 53.9668 22.2187C52.9952 23.8636 51.6571 25.1335 49.9526 26.0284C48.2481 26.9148 46.2963 27.3579 44.0975 27.3579C41.6429 27.3579 39.4867 26.8167 37.6287 25.7344C35.7708 24.6434 34.3219 23.0966 33.2821 21.0937C32.2509 19.0824 31.7353 16.696 31.7353 13.9346C31.7353 11.8125 32.0421 9.92043 32.6557 8.2585C33.2779 6.58805 34.1472 5.17327 35.2637 4.01418C36.3802 2.85509 37.6799 1.97299 39.1628 1.36788C40.6458 0.762762 42.2523 0.460205 43.9824 0.460205C45.4654 0.460205 46.8461 0.677535 48.1245 1.11219C49.4029 1.53833 50.5364 2.14344 51.525 2.92753C52.5222 3.71163 53.3361 4.64486 53.9668 5.72725C54.5975 6.80111 55.0023 7.98577 55.1813 9.28123H49.5563Z" fill="#FEAA62"/>
<path d="M59.5822 27V0.81816H65.1177V11.6207H76.3549V0.81816H81.8777V27H76.3549V16.1846H65.1177V27H59.5822Z" fill="#FEAA62"/>
<path d="M85.4444 5.38208V0.81816H106.947V5.38208H98.9316V27H93.4601V5.38208H85.4444Z" fill="#FEAA62"/>
</svg>
