<svg width="127" height="18" viewBox="0 0 127 18" fill="none" xmlns="http://www.w3.org/2000/svg">
<path d="M0.47406 18V0.54541H12.2354V3.58802H4.1644V7.74712H11.6303V10.7897H4.1644V14.9573H12.2695V18H0.47406Z" fill="#FEAA62"/>
<path d="M15.1694 18V0.54541H18.8597V14.9573H26.3427V18H15.1694Z" fill="#FEAA62"/>
<path d="M28.7866 18V0.54541H40.5479V3.58802H32.4769V7.74712H39.9428V10.7897H32.4769V14.9573H40.582V18H28.7866Z" fill="#FEAA62"/>
<path d="M43.4819 18V0.54541H50.3682C51.6921 0.54541 52.8199 0.798251 53.7518 1.30393C54.6836 1.80393 55.3938 2.49996 55.8824 3.392C56.3768 4.27836 56.6239 5.30109 56.6239 6.46018C56.6239 7.61927 56.3739 8.642 55.8739 9.52837C55.3739 10.4147 54.6495 11.1051 53.7006 11.5994C52.7574 12.0937 51.6154 12.3409 50.2745 12.3409H45.8853V9.38348H49.6779C50.3881 9.38348 50.9734 9.26132 51.4336 9.017C51.8995 8.767 52.2461 8.42325 52.4734 7.98575C52.7063 7.54257 52.8228 7.03405 52.8228 6.46018C52.8228 5.88064 52.7063 5.37496 52.4734 4.94314C52.2461 4.50564 51.8995 4.16757 51.4336 3.92893C50.9677 3.68462 50.3768 3.56246 49.6609 3.56246H47.1722V18H43.4819Z" fill="#FEAA62"/>
<path d="M59.0209 18V0.54541H62.7113V7.74712H70.2028V0.54541H73.8846V18H70.2028V10.7897H62.7113V18H59.0209Z" fill="#FEAA62"/>
<path d="M79.9357 18H75.9812L82.0067 0.54541H86.7624L92.7795 18H88.8249L84.4528 4.53405H84.3164L79.9357 18ZM79.6885 11.1392H89.0295V14.0198H79.6885V11.1392Z" fill="#FEAA62"/>
<path d="M109.48 0.54541V18H106.292L98.6985 7.01416H98.5706V18H94.8803V0.54541H98.1189L105.653 11.5227H105.806V0.54541H109.48Z" fill="#FEAA62"/>
<path d="M111.864 3.58802V0.54541H126.199V3.58802H120.855V18H117.208V3.58802H111.864Z" fill="#FEAA62"/>
</svg>
