<svg width="108" height="31" viewBox="0 0 108 31" fill="none" xmlns="http://www.w3.org/2000/svg">
<path d="M0.469788 30V0.90908H19.7312V5.9801H6.62036V12.9119H18.4527V17.9829H6.62036V30H0.469788Z" fill="#FEAA62"/>
<path d="M50.6012 15.4545C50.6012 18.6269 49.9999 21.3257 48.7972 23.5511C47.604 25.7765 45.9752 27.4763 43.9108 28.6506C41.8559 29.8153 39.5453 30.3977 36.979 30.3977C34.3938 30.3977 32.0737 29.8106 30.0188 28.6364C27.9639 27.4621 26.3398 25.7623 25.1466 23.5369C23.9535 21.3115 23.3569 18.6174 23.3569 15.4545C23.3569 12.2822 23.9535 9.58332 25.1466 7.35794C26.3398 5.13257 27.9639 3.43749 30.0188 2.27272C32.0737 1.09847 34.3938 0.511353 36.979 0.511353C39.5453 0.511353 41.8559 1.09847 43.9108 2.27272C45.9752 3.43749 47.604 5.13257 48.7972 7.35794C49.9999 9.58332 50.6012 12.2822 50.6012 15.4545ZM44.3654 15.4545C44.3654 13.3996 44.0576 11.6667 43.4421 10.2557C42.836 8.84469 41.979 7.77461 40.8711 7.04544C39.7631 6.31628 38.4658 5.95169 36.979 5.95169C35.4923 5.95169 34.1949 6.31628 33.087 7.04544C31.979 7.77461 31.1173 8.84469 30.5017 10.2557C29.8957 11.6667 29.5927 13.3996 29.5927 15.4545C29.5927 17.5095 29.8957 19.2424 30.5017 20.6534C31.1173 22.0644 31.979 23.1345 33.087 23.8636C34.1949 24.5928 35.4923 24.9574 36.979 24.9574C38.4658 24.9574 39.7631 24.5928 40.8711 23.8636C41.979 23.1345 42.836 22.0644 43.4421 20.6534C44.0576 19.2424 44.3654 17.5095 44.3654 15.4545Z" fill="#FEAA62"/>
<path d="M73.126 0.90908H79.2766V19.8011C79.2766 21.9223 78.77 23.7784 77.7567 25.3693C76.7529 26.9602 75.3467 28.2007 73.538 29.0909C71.7293 29.9716 69.6223 30.4119 67.2169 30.4119C64.8022 30.4119 62.6904 29.9716 60.8817 29.0909C59.073 28.2007 57.6668 26.9602 56.663 25.3693C55.6592 23.7784 55.1573 21.9223 55.1573 19.8011V0.90908H61.3079V19.2756C61.3079 20.3835 61.5493 21.3684 62.0323 22.2301C62.5247 23.0918 63.216 23.7689 64.1062 24.2614C64.9963 24.7538 66.0332 25 67.2169 25C68.4101 25 69.4471 24.7538 70.3277 24.2614C71.2179 23.7689 71.9045 23.0918 72.3874 22.2301C72.8798 21.3684 73.126 20.3835 73.126 19.2756V0.90908Z" fill="#FEAA62"/>
<path d="M84.337 30V0.90908H95.8142C98.0112 0.90908 99.8862 1.30207 101.439 2.08806C103.002 2.86457 104.19 3.96779 105.005 5.39772C105.828 6.81817 106.24 8.48957 106.24 10.4119C106.24 12.3437 105.824 14.0057 104.99 15.3977C104.157 16.7803 102.95 17.8409 101.368 18.5795C99.7963 19.3182 97.8928 19.6875 95.658 19.6875H87.9733V14.7443H94.6637C95.8379 14.7443 96.8133 14.5833 97.5898 14.2614C98.3663 13.9394 98.944 13.4564 99.3228 12.8125C99.711 12.1686 99.9052 11.3684 99.9052 10.4119C99.9052 9.44601 99.711 8.63162 99.3228 7.96874C98.944 7.30586 98.3616 6.80397 97.5756 6.46306C96.7991 6.11268 95.819 5.93749 94.6353 5.93749H90.4875V30H84.337ZM100.047 16.7614L107.277 30H100.488L93.4137 16.7614H100.047Z" fill="#FEAA62"/>
</svg>
