<svg width="65" height="19" viewBox="0 0 65 19" fill="none" xmlns="http://www.w3.org/2000/svg">
<path d="M0.106873 18V0.54546H11.6637V3.58807H3.79721V7.74716H10.8966V10.7898H3.79721V18H0.106873Z" fill="#FEAA62"/>
<path d="M14.1459 18V0.54546H21.0323C22.3505 0.54546 23.4755 0.781256 24.4073 1.25285C25.3448 1.71876 26.0579 2.38069 26.5465 3.23864C27.0408 4.09091 27.288 5.09376 27.288 6.24716C27.288 7.40626 27.038 8.40341 26.538 9.23864C26.038 10.0682 25.3135 10.7046 24.3647 11.1477C23.4215 11.5909 22.2795 11.8125 20.9385 11.8125H16.3278V8.8466H20.342C21.0465 8.8466 21.6317 8.75001 22.0976 8.55682C22.5635 8.36364 22.9101 8.07387 23.1374 7.68751C23.3704 7.30114 23.4868 6.82103 23.4868 6.24716C23.4868 5.66762 23.3704 5.17898 23.1374 4.78126C22.9101 4.38353 22.5607 4.08239 22.0891 3.87785C21.6232 3.66762 21.0351 3.56251 20.3249 3.56251H17.8363V18H14.1459ZM23.5721 10.0568L27.9101 18H23.8363L19.592 10.0568H23.5721Z" fill="#FEAA62"/>
<path d="M45.9357 9.27273C45.9357 11.1761 45.5749 12.7955 44.8533 14.1307C44.1374 15.4659 43.1601 16.4858 41.9215 17.1903C40.6886 17.8892 39.3022 18.2386 37.7624 18.2386C36.2113 18.2386 34.8192 17.8864 33.5863 17.1818C32.3533 16.4773 31.3789 15.4574 30.663 14.1222C29.9471 12.7869 29.5891 11.1705 29.5891 9.27273C29.5891 7.36932 29.9471 5.75001 30.663 4.41478C31.3789 3.07955 32.3533 2.06251 33.5863 1.36364C34.8192 0.659097 36.2113 0.306824 37.7624 0.306824C39.3022 0.306824 40.6886 0.659097 41.9215 1.36364C43.1601 2.06251 44.1374 3.07955 44.8533 4.41478C45.5749 5.75001 45.9357 7.36932 45.9357 9.27273ZM42.1942 9.27273C42.1942 8.03978 42.0096 7.00001 41.6403 6.15341C41.2766 5.30682 40.7624 4.66478 40.0976 4.22728C39.4329 3.78978 38.6545 3.57103 37.7624 3.57103C36.8704 3.57103 36.092 3.78978 35.4272 4.22728C34.7624 4.66478 34.2454 5.30682 33.876 6.15341C33.5124 7.00001 33.3306 8.03978 33.3306 9.27273C33.3306 10.5057 33.5124 11.5455 33.876 12.3921C34.2454 13.2386 34.7624 13.8807 35.4272 14.3182C36.092 14.7557 36.8704 14.9744 37.7624 14.9744C38.6545 14.9744 39.4329 14.7557 40.0976 14.3182C40.7624 13.8807 41.2766 13.2386 41.6403 12.3921C42.0096 11.5455 42.1942 10.5057 42.1942 9.27273Z" fill="#FEAA62"/>
<path d="M60.2432 6.18751C60.1239 5.77273 59.9563 5.40626 59.7404 5.08807C59.5245 4.76421 59.2603 4.49148 58.9478 4.26989C58.641 4.04262 58.2887 3.86932 57.891 3.75001C57.4989 3.63069 57.0643 3.57103 56.587 3.57103C55.6949 3.57103 54.9109 3.79262 54.2347 4.2358C53.5643 4.67898 53.0415 5.32387 52.6665 6.17046C52.2915 7.01137 52.104 8.03978 52.104 9.25569C52.104 10.4716 52.2887 11.5057 52.658 12.358C53.0273 13.2102 53.5501 13.8608 54.2262 14.3097C54.9023 14.7528 55.7006 14.9744 56.6211 14.9744C57.4563 14.9744 58.1694 14.8267 58.7603 14.5313C59.3569 14.2301 59.8114 13.8068 60.1239 13.2614C60.4421 12.7159 60.6012 12.071 60.6012 11.3267L61.3512 11.4375H56.8512V8.6591H64.1552V10.858C64.1552 12.3921 63.8313 13.7102 63.1836 14.8125C62.5359 15.9091 61.6438 16.7557 60.5074 17.3523C59.3711 17.9432 58.0699 18.2386 56.604 18.2386C54.9677 18.2386 53.5302 17.8778 52.2915 17.1563C51.0529 16.429 50.087 15.3977 49.3938 14.0625C48.7063 12.7216 48.3626 11.1307 48.3626 9.28978C48.3626 7.87501 48.5671 6.61364 48.9762 5.50569C49.391 4.39205 49.9705 3.44887 50.7148 2.67614C51.4591 1.90341 52.3256 1.31535 53.3143 0.911937C54.3029 0.508528 55.3739 0.306824 56.5273 0.306824C57.516 0.306824 58.4364 0.45171 59.2887 0.741483C60.141 1.02557 60.8966 1.42898 61.5557 1.95171C62.2205 2.47444 62.7631 3.0966 63.1836 3.81819C63.604 4.5341 63.8739 5.32387 63.9932 6.18751H60.2432Z" fill="#FEAA62"/>
</svg>
