<svg width="80" height="16" viewBox="0 0 80 16" fill="none" xmlns="http://www.w3.org/2000/svg">
<path d="M10.1083 5.15625C10.0089 4.8106 9.8692 4.5052 9.68928 4.24005C9.50935 3.97017 9.28918 3.74289 9.02876 3.55823C8.77308 3.36884 8.47952 3.22443 8.14808 3.12499C7.82138 3.02556 7.45916 2.97585 7.06143 2.97585C6.31806 2.97585 5.66465 3.16051 5.10121 3.52982C4.54249 3.89914 4.10689 4.43655 3.79439 5.14204C3.48189 5.8428 3.32564 6.69981 3.32564 7.71306C3.32564 8.72632 3.47952 9.58806 3.78729 10.2983C4.09505 11.0085 4.53066 11.5507 5.0941 11.9247C5.65755 12.294 6.3228 12.4787 7.08984 12.4787C7.78587 12.4787 8.38009 12.3556 8.87251 12.1094C9.36967 11.8584 9.74846 11.5057 10.0089 11.0511C10.274 10.5966 10.4066 10.0592 10.4066 9.43892L11.0316 9.53125H7.2816V7.2159H13.3683V9.04829C13.3683 10.3267 13.0984 11.4252 12.5586 12.3437C12.0188 13.2576 11.2754 13.9631 10.3285 14.4602C9.38151 14.9526 8.29723 15.1989 7.07564 15.1989C5.712 15.1989 4.51409 14.8982 3.48189 14.2969C2.44969 13.6908 1.64477 12.8314 1.06712 11.7187C0.494199 10.6013 0.207741 9.27556 0.207741 7.74147C0.207741 6.56249 0.378195 5.51136 0.719104 4.58806C1.06475 3.66003 1.5477 2.87405 2.16797 2.23011C2.78823 1.58617 3.5103 1.09611 4.33416 0.759938C5.15803 0.423763 6.05054 0.255676 7.01172 0.255676C7.83558 0.255676 8.60263 0.376415 9.31285 0.617893C10.0231 0.854635 10.6528 1.19081 11.2021 1.62642C11.756 2.06202 12.2082 2.58049 12.5586 3.18181C12.909 3.7784 13.1339 4.43655 13.2333 5.15625H10.1083Z" fill="#FEAA62"/>
<path d="M15.6783 15V0.45454H21.4169C22.5154 0.45454 23.4529 0.651036 24.2294 1.04403C25.0107 1.43229 25.6049 1.9839 26.0121 2.69886C26.424 3.40909 26.63 4.24479 26.63 5.20596C26.63 6.17187 26.4216 7.00284 26.005 7.69886C25.5883 8.39015 24.9846 8.92045 24.1939 9.28977C23.4079 9.65909 22.4562 9.84375 21.3388 9.84375H17.4964V7.37215H20.8416C21.4287 7.37215 21.9164 7.29166 22.3047 7.13068C22.6929 6.96969 22.9818 6.72821 23.1712 6.40625C23.3653 6.08428 23.4624 5.68418 23.4624 5.20596C23.4624 4.72301 23.3653 4.31581 23.1712 3.98437C22.9818 3.65293 22.6906 3.40198 22.2976 3.23153C21.9093 3.05634 21.4193 2.96874 20.8274 2.96874H18.7536V15H15.6783ZM23.5334 8.38068L27.1484 15H23.7536L20.2166 8.38068H23.5334Z" fill="#FEAA62"/>
<path d="M31.3104 15H28.0149L33.0362 0.45454H36.9993L42.0135 15H38.718L35.0746 3.7784H34.9609L31.3104 15ZM31.1044 9.28267H38.8885V11.6832H31.1044V9.28267Z" fill="#FEAA62"/>
<path d="M43.7642 15V0.45454H49.5028C50.6061 0.45454 51.5459 0.665241 52.3224 1.08664C53.099 1.50331 53.6908 2.08333 54.098 2.8267C54.5099 3.56534 54.7159 4.41761 54.7159 5.38352C54.7159 6.34943 54.5076 7.2017 54.0909 7.94034C53.6742 8.67897 53.0706 9.25426 52.2798 9.66619C51.4938 10.0781 50.5421 10.2841 49.4247 10.2841H45.767V7.8196H48.9276C49.5194 7.8196 50.0071 7.7178 50.3906 7.5142C50.7789 7.30587 51.0677 7.01941 51.2571 6.65482C51.4512 6.28551 51.5483 5.86174 51.5483 5.38352C51.5483 4.90056 51.4512 4.47916 51.2571 4.11931C51.0677 3.75473 50.7789 3.47301 50.3906 3.27414C50.0024 3.07054 49.5099 2.96874 48.9134 2.96874H46.8395V15H43.7642Z" fill="#FEAA62"/>
<path d="M56.7134 15V0.45454H66.5146V2.99005H59.7887V6.45596H66.0103V8.99147H59.7887V12.4645H66.543V15H56.7134Z" fill="#FEAA62"/>
<path d="M76.8501 4.63778C76.7933 4.06486 76.5495 3.61979 76.1186 3.30255C75.6877 2.98532 75.103 2.8267 74.3643 2.8267C73.8625 2.8267 73.4387 2.89772 73.093 3.03977C72.7474 3.17708 72.4822 3.36884 72.2976 3.61505C72.1177 3.86126 72.0277 4.14062 72.0277 4.45312C72.0182 4.71354 72.0727 4.94081 72.191 5.13494C72.3142 5.32907 72.4822 5.49715 72.6953 5.6392C72.9084 5.77651 73.1546 5.89725 73.4339 6.00142C73.7133 6.10085 74.0116 6.18607 74.3288 6.2571L75.6357 6.5696C76.2701 6.71164 76.8525 6.90104 77.3828 7.13778C77.9131 7.37452 78.3724 7.66571 78.7607 8.01136C79.1489 8.357 79.4496 8.7642 79.6626 9.23295C79.8804 9.7017 79.9917 10.2391 79.9964 10.8452C79.9917 11.7353 79.7644 12.5071 79.3146 13.1605C78.8696 13.8092 78.2256 14.3134 77.3828 14.6733C76.5447 15.0284 75.5339 15.206 74.3501 15.206C73.1759 15.206 72.1532 15.026 71.282 14.6662C70.4155 14.3063 69.7384 13.7737 69.2507 13.0682C68.7678 12.3579 68.5144 11.4796 68.4908 10.4332H71.4666C71.4998 10.9209 71.6394 11.3281 71.8857 11.6548C72.1366 11.9768 72.4704 12.2206 72.8871 12.3864C73.3085 12.5473 73.7843 12.6278 74.3146 12.6278C74.8355 12.6278 75.2876 12.5521 75.6712 12.4006C76.0594 12.249 76.3601 12.0383 76.5732 11.7685C76.7862 11.4986 76.8928 11.1884 76.8928 10.8381C76.8928 10.5114 76.7957 10.2367 76.6016 10.0142C76.4122 9.79166 76.1328 9.60227 75.7635 9.44602C75.3989 9.28977 74.9515 9.14772 74.4212 9.01988L72.8374 8.62215C71.611 8.32386 70.6428 7.85748 69.9325 7.22301C69.2223 6.58854 68.8696 5.7339 68.8743 4.65909C68.8696 3.7784 69.1039 3.00899 69.5774 2.35085C70.0556 1.6927 70.7114 1.17897 71.5447 0.809654C72.3781 0.440335 73.325 0.255676 74.3857 0.255676C75.4652 0.255676 76.4074 0.440335 77.2124 0.809654C78.022 1.17897 78.6518 1.6927 79.1016 2.35085C79.5514 3.00899 79.7834 3.7713 79.7976 4.63778H76.8501Z" fill="#FEAA62"/>
</svg>
