<svg width="34" height="16" viewBox="0 0 34 16" fill="none" xmlns="http://www.w3.org/2000/svg">
<g filter="url(#filter0_d_546_1597)">
<path d="M4.76765 7.37125C4.76765 7.33098 4.7945 7.29743 4.84818 7.27058C4.90187 7.23703 4.96227 7.21019 5.02938 7.19005C5.1032 7.16321 5.17701 7.13972 5.25083 7.11959C5.32465 7.09946 5.37834 7.07932 5.41189 7.05919V1.5429C5.37834 1.52277 5.32465 1.50599 5.25083 1.49257C5.17701 1.47244 5.1032 1.44895 5.02938 1.42211C4.96227 1.39526 4.90187 1.36842 4.84818 1.34158C4.7945 1.30802 4.76765 1.27111 4.76765 1.23085C4.76765 1.19058 4.77772 1.14025 4.79785 1.07985C4.8247 1.01946 4.87838 0.989258 4.95891 0.989258H6.6903C6.8111 0.989258 6.89834 1.01946 6.95203 1.07985C7.00571 1.13354 7.03255 1.17716 7.03255 1.21071C7.03255 1.29124 6.99565 1.34829 6.92183 1.38184C6.85472 1.40868 6.77754 1.43217 6.6903 1.4523C6.60306 1.47244 6.51918 1.49928 6.43865 1.53283C6.36483 1.55968 6.32456 1.61336 6.31785 1.69389V3.93866H9.47865V1.5429C9.44509 1.52277 9.39141 1.50599 9.31759 1.49257C9.24377 1.47244 9.16995 1.44895 9.09613 1.42211C9.02902 1.39526 8.96863 1.36842 8.91494 1.34158C8.86125 1.30802 8.83441 1.27111 8.83441 1.23085C8.83441 1.19058 8.84448 1.14025 8.86461 1.07985C8.89145 1.01946 8.94514 0.989258 9.02567 0.989258H10.7571C10.8779 0.989258 10.9651 1.01946 11.0188 1.07985C11.0725 1.13354 11.0993 1.17716 11.0993 1.21071C11.0993 1.29796 11.0624 1.355 10.9886 1.38184C10.9148 1.40868 10.8309 1.43217 10.7369 1.4523C10.6497 1.46573 10.5692 1.49257 10.4953 1.53283C10.4215 1.56639 10.3846 1.6335 10.3846 1.73416V6.86793C10.3846 6.9686 10.4215 7.03906 10.4953 7.07932C10.5692 7.11288 10.6497 7.13972 10.7369 7.15985C10.8309 7.17328 10.9148 7.19341 10.9886 7.22025C11.0624 7.2471 11.0993 7.30414 11.0993 7.39138C11.0993 7.42493 11.0725 7.47191 11.0188 7.5323C10.9651 7.58599 10.8779 7.61283 10.7571 7.61283H9.02567C8.94514 7.61283 8.89145 7.58264 8.86461 7.52224C8.84448 7.46184 8.83441 7.41151 8.83441 7.37125C8.83441 7.33098 8.86125 7.29743 8.91494 7.27058C8.96863 7.23703 9.02902 7.21019 9.09613 7.19005C9.16995 7.16321 9.24377 7.13972 9.31759 7.11959C9.39141 7.09946 9.44509 7.07932 9.47865 7.05919V4.46211C9.43838 4.47553 9.40818 4.48224 9.38805 4.48224H6.31785V6.86793C6.31785 6.9686 6.35476 7.03906 6.42858 7.07932C6.5024 7.11288 6.58293 7.13972 6.67017 7.15985C6.76412 7.17328 6.84801 7.19341 6.92183 7.22025C6.99565 7.2471 7.03255 7.30414 7.03255 7.39138C7.03255 7.42493 7.00571 7.47191 6.95203 7.5323C6.89834 7.58599 6.8111 7.61283 6.6903 7.61283H4.95891C4.87838 7.61283 4.8247 7.58264 4.79785 7.52224C4.77772 7.46184 4.76765 7.41151 4.76765 7.37125Z" fill="black"/>
<path d="M11.9527 5.49893C11.9527 5.15668 12.003 4.82449 12.1037 4.50237C12.2043 4.18025 12.3553 3.89504 12.5566 3.64674C12.758 3.39173 13.0096 3.19041 13.3116 3.04277C13.6136 2.88842 13.9625 2.81124 14.3585 2.81124C14.7209 2.81124 15.0296 2.88171 15.2846 3.02264C15.5463 3.16356 15.7577 3.34811 15.9188 3.57628C16.0798 3.79773 16.1973 4.04939 16.2711 4.33125C16.3449 4.60639 16.3818 4.88153 16.3818 5.15668C16.3818 5.31773 16.3684 5.49222 16.3415 5.68012C16.3147 5.86131 16.2711 6.0425 16.2107 6.2237C16.1503 6.40489 16.0697 6.57937 15.9691 6.74714C15.8751 6.9082 15.7543 7.05248 15.6067 7.17999C15.392 7.3746 15.1336 7.52224 14.8316 7.6229C14.5363 7.72356 14.2377 7.77389 13.9357 7.77389C13.6606 7.77389 13.4022 7.72692 13.1606 7.63297C12.919 7.53902 12.7076 7.39809 12.5264 7.21019C12.352 7.01557 12.211 6.77734 12.1037 6.49548C12.003 6.21363 11.9527 5.88144 11.9527 5.49893ZM12.8687 5.15668C12.8687 5.39826 12.8922 5.64656 12.9391 5.90158C12.9928 6.14988 13.0767 6.37804 13.1908 6.58608C13.3049 6.7874 13.4592 6.95517 13.6539 7.08939C13.8552 7.22361 14.1001 7.29072 14.3887 7.29072C14.59 7.29072 14.7578 7.24038 14.892 7.13972C15.0329 7.03906 15.147 6.90484 15.2342 6.73707C15.3215 6.5693 15.3819 6.37804 15.4154 6.1633C15.4557 5.94855 15.4758 5.72709 15.4758 5.49893C15.4758 5.25063 15.449 4.99562 15.3953 4.73389C15.3483 4.47217 15.2644 4.23729 15.1437 4.02926C15.0296 3.81451 14.8752 3.64003 14.6806 3.50581C14.4927 3.36489 14.2545 3.29442 13.9659 3.29442C13.7646 3.29442 13.5935 3.34811 13.4525 3.45548C13.3116 3.56286 13.1975 3.70714 13.1103 3.88833C13.0297 4.06281 12.9693 4.26078 12.9291 4.48224C12.8888 4.7037 12.8687 4.92851 12.8687 5.15668Z" fill="black"/>
<path d="M17.2608 7.41151C17.2608 7.37796 17.2809 7.34776 17.3212 7.32091C17.3682 7.28736 17.4218 7.25716 17.4822 7.23032C17.5426 7.20347 17.603 7.17999 17.6634 7.15985C17.7238 7.13301 17.7674 7.11288 17.7943 7.09946V3.78767C17.6601 3.76083 17.5225 3.71721 17.3816 3.65681C17.2407 3.59641 17.1702 3.54272 17.1702 3.49575C17.1702 3.42864 17.2105 3.36153 17.291 3.29442C17.3715 3.2206 17.4688 3.15685 17.5829 3.10317C17.7037 3.04948 17.8312 3.00586 17.9654 2.9723C18.0996 2.93204 18.2171 2.91191 18.3177 2.91191C18.4654 2.91191 18.5459 2.94546 18.5593 3.01257V3.52595C18.8009 3.33133 19.0593 3.16356 19.3344 3.02264C19.6163 2.88171 19.9216 2.81124 20.2505 2.81124C20.5256 2.81124 20.7672 2.86158 20.9752 2.96224C21.19 3.05619 21.3611 3.24409 21.4886 3.52595C21.7235 3.33133 21.9785 3.16356 22.2536 3.02264C22.5288 2.88171 22.8173 2.81124 23.1193 2.81124C23.3341 2.81124 23.5388 2.8448 23.7334 2.91191C23.928 2.9723 24.0857 3.08974 24.2065 3.26423C24.3273 3.43871 24.4011 3.61319 24.4279 3.78767C24.4548 3.96215 24.4682 4.13328 24.4682 4.30105V6.9082C24.4682 6.99544 24.5018 7.05584 24.5689 7.08939C24.6427 7.11623 24.7199 7.13972 24.8004 7.15985C24.8876 7.17999 24.9648 7.20347 25.0319 7.23032C25.1057 7.25716 25.1426 7.31085 25.1426 7.39138C25.1426 7.42493 25.1158 7.47191 25.0621 7.5323C25.0084 7.58599 24.9212 7.61283 24.8004 7.61283H23.2905C23.2099 7.61283 23.1562 7.58935 23.1294 7.54237C23.1093 7.49539 23.0992 7.45178 23.0992 7.41151C23.0992 7.37796 23.1193 7.34776 23.1596 7.32091C23.2066 7.28736 23.2569 7.25716 23.3106 7.23032C23.371 7.20347 23.428 7.17999 23.4817 7.15985C23.5421 7.13301 23.5857 7.11288 23.6126 7.09946L23.6025 4.7037C23.5958 4.23394 23.5119 3.90175 23.3508 3.70714C23.1965 3.51253 22.9885 3.41522 22.7267 3.41522C22.5523 3.41522 22.3644 3.44542 22.163 3.50581C21.9684 3.56621 21.8141 3.66687 21.7 3.8078L21.5993 3.8984C21.6195 4.03932 21.6295 4.17354 21.6295 4.30105V6.86793C21.6295 6.9686 21.6631 7.03906 21.7302 7.07932C21.804 7.11288 21.8812 7.13972 21.9617 7.15985C22.049 7.17999 22.1261 7.20347 22.1932 7.23032C22.2671 7.25716 22.304 7.31085 22.304 7.39138C22.304 7.42493 22.2771 7.47191 22.2234 7.5323C22.1697 7.58599 22.0825 7.61283 21.9617 7.61283H20.4417C20.3612 7.61283 20.3075 7.58935 20.2807 7.54237C20.2605 7.49539 20.2505 7.45178 20.2505 7.41151C20.2505 7.37796 20.2706 7.34776 20.3108 7.32091C20.3578 7.28736 20.4082 7.25716 20.4618 7.23032C20.5222 7.20347 20.5793 7.17999 20.633 7.15985C20.6934 7.13301 20.737 7.11288 20.7638 7.09946V4.7037C20.7638 4.23394 20.6766 3.90175 20.5021 3.70714C20.3276 3.51253 20.1095 3.41522 19.8478 3.41522C19.6465 3.41522 19.4384 3.45548 19.2237 3.53601C19.009 3.61654 18.8244 3.73398 18.6701 3.88833L18.66 6.86793C18.66 6.9686 18.6935 7.03906 18.7607 7.07932C18.8345 7.11288 18.915 7.13972 19.0022 7.15985C19.0895 7.17999 19.1667 7.20347 19.2338 7.23032C19.3076 7.25716 19.3445 7.31085 19.3445 7.39138C19.3445 7.53902 19.2304 7.61283 19.0022 7.61283H17.452C17.3715 7.61283 17.3178 7.58935 17.291 7.54237C17.2708 7.49539 17.2608 7.45178 17.2608 7.41151Z" fill="black"/>
<path d="M25.6053 5.57946C25.6053 5.19023 25.659 4.82785 25.7664 4.4923C25.8737 4.15676 26.0247 3.86484 26.2193 3.61654C26.4207 3.36824 26.6622 3.17363 26.9441 3.0327C27.2327 2.88506 27.5514 2.81124 27.9004 2.81124C28.2829 2.81124 28.5882 2.88842 28.8164 3.04277C29.0446 3.19041 29.2191 3.38166 29.3399 3.61654C29.4674 3.85142 29.5513 4.10979 29.5915 4.39164C29.6318 4.66679 29.6553 4.93522 29.662 5.19694C29.662 5.2976 29.6184 5.35464 29.5311 5.36807C29.4439 5.38149 29.3533 5.3882 29.2593 5.3882H26.5314C26.5448 5.61637 26.5784 5.83782 26.632 6.05257C26.6924 6.26732 26.7763 6.45857 26.8837 6.62634C26.9978 6.79411 27.1387 6.93169 27.3065 7.03906C27.481 7.13972 27.6823 7.19005 27.9105 7.19005C28.1588 7.19005 28.3601 7.17328 28.5144 7.13972C28.6688 7.09946 28.7963 7.05919 28.8969 7.01893C28.9976 6.97195 29.0815 6.93169 29.1486 6.89813C29.2224 6.85787 29.2996 6.83773 29.3801 6.83773C29.4741 6.83773 29.5211 6.87464 29.5211 6.94846C29.5211 7.0357 29.4707 7.12966 29.3701 7.23032C29.2694 7.32427 29.1318 7.41487 28.9573 7.50211C28.7896 7.58264 28.5916 7.64639 28.3634 7.69336C28.142 7.74705 27.9071 7.77389 27.6588 7.77389C27.3031 7.77389 26.9944 7.7135 26.7327 7.5927C26.4777 7.47191 26.2663 7.31085 26.0985 7.10952C25.9308 6.9082 25.8066 6.67668 25.7261 6.41495C25.6456 6.14652 25.6053 5.86802 25.6053 5.57946ZM28.6654 4.86475C28.6587 4.65672 28.6419 4.46211 28.6151 4.28091C28.5882 4.09301 28.5379 3.93195 28.4641 3.79774C28.3903 3.66352 28.2829 3.55615 28.142 3.47562C28.0011 3.39509 27.8165 3.35482 27.5883 3.35482C27.2528 3.35482 26.9978 3.50581 26.8233 3.8078C26.6555 4.10308 26.5582 4.47888 26.5314 4.93522L28.6654 4.86475Z" fill="black"/>
</g>
<defs>
<filter id="filter0_d_546_1597" x="0.767654" y="0.989258" width="32.8943" height="14.7847" filterUnits="userSpaceOnUse" color-interpolation-filters="sRGB">
<feFlood flood-opacity="0" result="BackgroundImageFix"/>
<feColorMatrix in="SourceAlpha" type="matrix" values="0 0 0 0 0 0 0 0 0 0 0 0 0 0 0 0 0 0 127 0" result="hardAlpha"/>
<feOffset dy="4"/>
<feGaussianBlur stdDeviation="2"/>
<feComposite in2="hardAlpha" operator="out"/>
<feColorMatrix type="matrix" values="0 0 0 0 0 0 0 0 0 0 0 0 0 0 0 0 0 0 0.25 0"/>
<feBlend mode="normal" in2="BackgroundImageFix" result="effect1_dropShadow_546_1597"/>
<feBlend mode="normal" in="SourceGraphic" in2="effect1_dropShadow_546_1597" result="shape"/>
</filter>
</defs>
</svg>
