<svg width="121" height="28" viewBox="0 0 121 28" fill="none" xmlns="http://www.w3.org/2000/svg">
<path d="M0.636902 27V0.81816H6.17241V11.6207H17.4096V0.81816H22.9324V27H17.4096V16.1846H6.17241V27H0.636902Z" fill="#FEAA62"/>
<path d="M51.5559 13.9091C51.5559 16.7642 51.0147 19.1932 49.9324 21.196C48.8585 23.1988 47.3926 24.7287 45.5346 25.7855C43.6852 26.8338 41.6057 27.3579 39.296 27.3579C36.9693 27.3579 34.8812 26.8295 33.0318 25.7727C31.1824 24.7159 29.7207 23.1861 28.6468 21.1832C27.573 19.1804 27.036 16.7557 27.036 13.9091C27.036 11.054 27.573 8.62498 28.6468 6.62214C29.7207 4.6193 31.1824 3.09373 33.0318 2.04543C34.8812 0.988615 36.9693 0.460205 39.296 0.460205C41.6057 0.460205 43.6852 0.988615 45.5346 2.04543C47.3926 3.09373 48.8585 4.6193 49.9324 6.62214C51.0147 8.62498 51.5559 11.054 51.5559 13.9091ZM45.9437 13.9091C45.9437 12.0596 45.6667 10.5 45.1128 9.23009C44.5673 7.96021 43.796 6.99714 42.7988 6.34089C41.8017 5.68464 40.6341 5.35651 39.296 5.35651C37.9579 5.35651 36.7903 5.68464 35.7932 6.34089C34.796 6.99714 34.0204 7.96021 33.4664 9.23009C32.921 10.5 32.6483 12.0596 32.6483 13.9091C32.6483 15.7585 32.921 17.3182 33.4664 18.588C34.0204 19.8579 34.796 20.821 35.7932 21.4773C36.7903 22.1335 37.9579 22.4616 39.296 22.4616C40.6341 22.4616 41.8017 22.1335 42.7988 21.4773C43.796 20.821 44.5673 19.8579 45.1128 18.588C45.6667 17.3182 45.9437 15.7585 45.9437 13.9091Z" fill="#FEAA62"/>
<path d="M55.6564 27V0.81816H65.986C67.9633 0.81816 69.6508 1.17185 71.0485 1.87924C72.4547 2.5781 73.5243 3.571 74.2573 4.85793C74.9988 6.13634 75.3695 7.6406 75.3695 9.37072C75.3695 11.1094 74.9945 12.6051 74.2445 13.8579C73.4945 15.1023 72.4079 16.0568 70.9846 16.7216C69.5698 17.3863 67.8567 17.7187 65.8454 17.7187H58.9292V13.2699H64.9505C66.0073 13.2699 66.8851 13.125 67.584 12.8352C68.2829 12.5454 68.8027 12.1108 69.1436 11.5312C69.4931 10.9517 69.6678 10.2315 69.6678 9.37072C69.6678 8.5014 69.4931 7.76844 69.1436 7.17185C68.8027 6.57526 68.2786 6.12356 67.5712 5.81674C66.8723 5.5014 65.9902 5.34373 64.9249 5.34373H61.1919V27H55.6564ZM69.7956 15.0852L76.3027 27H70.1919L63.8255 15.0852H69.7956Z" fill="#FEAA62"/>
<path d="M93.4846 8.34799C93.3823 7.31674 92.9434 6.5156 92.1678 5.94458C91.3922 5.37356 90.3397 5.08805 89.0101 5.08805C88.1067 5.08805 87.3439 5.21589 86.7218 5.47157C86.0996 5.71873 85.6223 6.0639 85.29 6.50708C84.9661 6.95026 84.8042 7.4531 84.8042 8.0156C84.7871 8.48435 84.8851 8.89344 85.0982 9.24288C85.3198 9.59231 85.6223 9.89487 86.0059 10.1505C86.3894 10.3977 86.8326 10.615 87.3354 10.8025C87.8383 10.9815 88.3752 11.1349 88.9462 11.2628L91.2985 11.8253C92.4405 12.0809 93.4888 12.4219 94.4434 12.848C95.3979 13.2741 96.2246 13.7983 96.9235 14.4204C97.6223 15.0426 98.1635 15.7755 98.5471 16.6193C98.9391 17.463 99.1394 18.4304 99.1479 19.5213C99.1394 21.1236 98.7303 22.5128 97.9206 23.6889C97.1195 24.8565 95.9604 25.7642 94.4434 26.4119C92.9348 27.0511 91.1152 27.3707 88.9846 27.3707C86.8709 27.3707 85.03 27.0469 83.4618 26.3991C81.9022 25.7514 80.6834 24.7926 79.8056 23.5227C78.9363 22.2443 78.4803 20.6633 78.4377 18.7798H83.7942C83.8539 19.6576 84.1053 20.3906 84.5485 20.9787C85.0002 21.5582 85.601 21.9971 86.351 22.2954C87.1096 22.5852 87.9661 22.7301 88.9206 22.7301C89.8581 22.7301 90.6721 22.5937 91.3624 22.321C92.0613 22.0483 92.6025 21.669 92.986 21.1832C93.3695 20.6974 93.5613 20.1392 93.5613 19.5085C93.5613 18.9204 93.3865 18.4261 93.0371 18.0255C92.6962 17.625 92.1934 17.2841 91.5286 17.0028C90.8723 16.7216 90.0669 16.4659 89.1124 16.2358L86.2615 15.5199C84.0542 14.9829 82.3113 14.1434 81.0329 13.0014C79.7544 11.8594 79.1195 10.321 79.128 8.38634C79.1195 6.80111 79.5414 5.41617 80.3936 4.23151C81.2544 3.04685 82.4348 2.12214 83.9348 1.45736C85.4348 0.792592 87.1394 0.460205 89.0485 0.460205C90.9917 0.460205 92.6877 0.792592 94.1365 1.45736C95.5939 2.12214 96.7275 3.04685 97.5371 4.23151C98.3468 5.41617 98.7644 6.78833 98.79 8.34799H93.4846Z" fill="#FEAA62"/>
<path d="M102.871 27V0.81816H120.513V5.38208H108.407V11.6207H119.606V16.1846H108.407V22.4361H120.564V27H102.871Z" fill="#FEAA62"/>
</svg>
