<svg width="69" height="16" viewBox="0 0 69 16" fill="none" xmlns="http://www.w3.org/2000/svg">
<path d="M0.0102997 15V0.45454H3.08558V6.45596H9.32848V0.45454H12.3967V15H9.32848V8.99147H3.08558V15H0.0102997Z" fill="#FEAA62"/>
<path d="M28.2987 7.72727C28.2987 9.31344 27.998 10.6629 27.3967 11.7756C26.8001 12.8883 25.9857 13.7382 24.9535 14.3253C23.926 14.9077 22.7707 15.1989 21.4876 15.1989C20.195 15.1989 19.0349 14.9053 18.0075 14.3182C16.98 13.7311 16.168 12.8812 15.5714 11.7685C14.9748 10.6558 14.6765 9.30871 14.6765 7.72727C14.6765 6.14109 14.9748 4.79166 15.5714 3.67897C16.168 2.56628 16.98 1.71874 18.0075 1.13636C19.0349 0.549237 20.195 0.255676 21.4876 0.255676C22.7707 0.255676 23.926 0.549237 24.9535 1.13636C25.9857 1.71874 26.8001 2.56628 27.3967 3.67897C27.998 4.79166 28.2987 6.14109 28.2987 7.72727ZM25.1808 7.72727C25.1808 6.69981 25.0269 5.83333 24.7191 5.12784C24.4161 4.42234 23.9876 3.88731 23.4336 3.52272C22.8796 3.15814 22.2309 2.97585 21.4876 2.97585C20.7442 2.97585 20.0955 3.15814 19.5415 3.52272C18.9876 3.88731 18.5567 4.42234 18.2489 5.12784C17.9459 5.83333 17.7944 6.69981 17.7944 7.72727C17.7944 8.75473 17.9459 9.62121 18.2489 10.3267C18.5567 11.0322 18.9876 11.5672 19.5415 11.9318C20.0955 12.2964 20.7442 12.4787 21.4876 12.4787C22.2309 12.4787 22.8796 12.2964 23.4336 11.9318C23.9876 11.5672 24.4161 11.0322 24.7191 10.3267C25.0269 9.62121 25.1808 8.75473 25.1808 7.72727Z" fill="#FEAA62"/>
<path d="M39.5611 0.45454H42.6364V9.90056C42.6364 10.9612 42.3831 11.8892 41.8764 12.6847C41.3745 13.4801 40.6714 14.1004 39.767 14.5454C38.8627 14.9858 37.8092 15.206 36.6065 15.206C35.3992 15.206 34.3433 14.9858 33.4389 14.5454C32.5346 14.1004 31.8314 13.4801 31.3295 12.6847C30.8277 11.8892 30.5767 10.9612 30.5767 9.90056V0.45454H33.652V9.63778C33.652 10.1918 33.7727 10.6842 34.0142 11.1151C34.2604 11.5459 34.6061 11.8845 35.0511 12.1307C35.4962 12.3769 36.0147 12.5 36.6065 12.5C37.2031 12.5 37.7216 12.3769 38.1619 12.1307C38.607 11.8845 38.9503 11.5459 39.1918 11.1151C39.438 10.6842 39.5611 10.1918 39.5611 9.63778V0.45454Z" fill="#FEAA62"/>
<path d="M53.0572 4.63778C53.0004 4.06486 52.7565 3.61979 52.3256 3.30255C51.8948 2.98532 51.31 2.8267 50.5714 2.8267C50.0695 2.8267 49.6457 2.89772 49.3001 3.03977C48.9544 3.17708 48.6893 3.36884 48.5046 3.61505C48.3247 3.86126 48.2347 4.14062 48.2347 4.45312C48.2253 4.71354 48.2797 4.94081 48.3981 5.13494C48.5212 5.32907 48.6893 5.49715 48.9023 5.6392C49.1154 5.77651 49.3616 5.89725 49.641 6.00142C49.9203 6.10085 50.2186 6.18607 50.5359 6.2571L51.8427 6.5696C52.4772 6.71164 53.0595 6.90104 53.5898 7.13778C54.1201 7.37452 54.5794 7.66571 54.9677 8.01136C55.3559 8.357 55.6566 8.7642 55.8697 9.23295C56.0875 9.7017 56.1987 10.2391 56.2035 10.8452C56.1987 11.7353 55.9715 12.5071 55.5217 13.1605C55.0766 13.8092 54.4326 14.3134 53.5898 14.6733C52.7518 15.0284 51.7409 15.206 50.5572 15.206C49.3829 15.206 48.3602 15.026 47.489 14.6662C46.6225 14.3063 45.9454 13.7737 45.4577 13.0682C44.9748 12.3579 44.7215 11.4796 44.6978 10.4332H47.6737C47.7068 10.9209 47.8465 11.3281 48.0927 11.6548C48.3436 11.9768 48.6774 12.2206 49.0941 12.3864C49.5155 12.5473 49.9914 12.6278 50.5217 12.6278C51.0425 12.6278 51.4947 12.5521 51.8782 12.4006C52.2665 12.249 52.5671 12.0383 52.7802 11.7685C52.9933 11.4986 53.0998 11.1884 53.0998 10.8381C53.0998 10.5114 53.0027 10.2367 52.8086 10.0142C52.6192 9.79166 52.3398 9.60227 51.9705 9.44602C51.6059 9.28977 51.1585 9.14772 50.6282 9.01988L49.0444 8.62215C47.8181 8.32386 46.8498 7.85748 46.1396 7.22301C45.4293 6.58854 45.0766 5.7339 45.0813 4.65909C45.0766 3.7784 45.311 3.00899 45.7844 2.35085C46.2627 1.6927 46.9184 1.17897 47.7518 0.809654C48.5851 0.440335 49.5321 0.255676 50.5927 0.255676C51.6722 0.255676 52.6145 0.440335 53.4194 0.809654C54.2291 1.17897 54.8588 1.6927 55.3086 2.35085C55.7584 3.00899 55.9904 3.7713 56.0046 4.63778H53.0572Z" fill="#FEAA62"/>
<path d="M58.272 15V0.45454H68.0732V2.99005H61.3473V6.45596H67.5689V8.99147H61.3473V12.4645H68.1016V15H58.272Z" fill="#FEAA62"/>
</svg>
