<svg width="88" height="40" viewBox="0 0 88 40" fill="none" xmlns="http://www.w3.org/2000/svg">
<path d="M0.457565 15V0.45459H3.53285V6.45601H9.77575V0.45459H12.8439V15H9.77575V8.99152H3.53285V15H0.457565Z" fill="#FEAA62"/>
<path d="M24.3638 0.45459H27.4391V9.90061C27.4391 10.9612 27.1858 11.8892 26.6792 12.6847C26.1773 13.4802 25.4741 14.1004 24.5698 14.5455C23.6654 14.9858 22.6119 15.206 21.4093 15.206C20.2019 15.206 19.146 14.9858 18.2417 14.5455C17.3373 14.1004 16.6342 13.4802 16.1323 12.6847C15.6304 11.8892 15.3794 10.9612 15.3794 9.90061V0.45459H18.4547V9.63783C18.4547 10.1918 18.5755 10.6842 18.8169 11.1151C19.0632 11.546 19.4088 11.8845 19.8539 12.1307C20.2989 12.3769 20.8174 12.5 21.4093 12.5C22.0059 12.5 22.5243 12.3769 22.9647 12.1307C23.4097 11.8845 23.753 11.546 23.9945 11.1151C24.2407 10.6842 24.3638 10.1918 24.3638 9.63783V0.45459Z" fill="#FEAA62"/>
<path d="M29.9693 0.45459H33.7619L37.7676 10.2273H37.938L41.9437 0.45459H45.7363V15H42.7534V5.53271H42.6326L38.8684 14.929H36.8372L33.073 5.4972H32.9522V15H29.9693V0.45459Z" fill="#FEAA62"/>
<path d="M48.2701 15V0.45459H54.0087C55.1119 0.45459 56.0518 0.665291 56.8283 1.08669C57.6048 1.50336 58.1967 2.08338 58.6039 2.82675C59.0158 3.56539 59.2218 4.41766 59.2218 5.38357C59.2218 6.34948 59.0134 7.20175 58.5968 7.94039C58.1801 8.67902 57.5764 9.25431 56.7857 9.66624C55.9997 10.0782 55.048 10.2841 53.9306 10.2841H50.2729V7.81965H53.4334C54.0253 7.81965 54.513 7.71785 54.8965 7.51425C55.2847 7.30592 55.5736 7.01946 55.763 6.65487C55.9571 6.28556 56.0542 5.86179 56.0542 5.38357C56.0542 4.90061 55.9571 4.47921 55.763 4.11936C55.5736 3.75478 55.2847 3.47306 54.8965 3.27419C54.5082 3.07059 54.0158 2.96879 53.4192 2.96879H51.3453V15H48.2701Z" fill="#FEAA62"/>
<path d="M60.6653 2.9901V0.45459H72.6113V2.9901H68.1582V15H65.1184V2.9901H60.6653Z" fill="#FEAA62"/>
<path d="M73.7264 0.45459H77.171L80.4877 6.71879H80.6298L83.9466 0.45459H87.3912L82.0858 9.858V15H79.0318V9.858L73.7264 0.45459Z" fill="#FEAA62"/>
<path d="M5.79936 39H0.643112V24.4546H5.84198C7.30504 24.4546 8.56451 24.7458 9.62039 25.3282C10.6763 25.9058 11.4883 26.7368 12.0565 27.8211C12.6294 28.9053 12.9158 30.2027 12.9158 31.7131C12.9158 33.2283 12.6294 34.5303 12.0565 35.6194C11.4883 36.7084 10.6715 37.5441 9.60618 38.1265C8.54557 38.7089 7.27664 39 5.79936 39ZM3.7184 36.3651H5.67152C6.58061 36.3651 7.34529 36.2041 7.96556 35.8821C8.59056 35.5554 9.05931 35.0512 9.37181 34.3694C9.68904 33.6828 9.84766 32.7974 9.84766 31.7131C9.84766 30.6383 9.68904 29.76 9.37181 29.0782C9.05931 28.3964 8.59292 27.8945 7.97266 27.5725C7.35239 27.2505 6.58771 27.0895 5.67862 27.0895H3.7184V36.3651Z" fill="#FEAA62"/>
<path d="M24.1783 24.4546H27.2536V33.9006C27.2536 34.9612 27.0002 35.8892 26.4936 36.6847C25.9917 37.4802 25.2886 38.1004 24.3842 38.5455C23.4799 38.9858 22.4264 39.206 21.2237 39.206C20.0163 39.206 18.9605 38.9858 18.0561 38.5455C17.1518 38.1004 16.4486 37.4802 15.9467 36.6847C15.4448 35.8892 15.1939 34.9612 15.1939 33.9006V24.4546H18.2692V33.6378C18.2692 34.1918 18.3899 34.6842 18.6314 35.1151C18.8776 35.546 19.2233 35.8845 19.6683 36.1307C20.1134 36.3769 20.6319 36.5 21.2237 36.5C21.8203 36.5 22.3388 36.3769 22.7791 36.1307C23.2242 35.8845 23.5675 35.546 23.809 35.1151C24.0552 34.6842 24.1783 34.1918 24.1783 33.6378V24.4546Z" fill="#FEAA62"/>
<path d="M29.7837 24.4546H33.5764L37.582 34.2273H37.7525L41.7582 24.4546H45.5508V39H42.5678V29.5327H42.4471L38.6829 38.929H36.6516L32.8874 29.4972H32.7667V39H29.7837V24.4546Z" fill="#FEAA62"/>
<path d="M48.0845 39V24.4546H53.8232C54.9264 24.4546 55.8662 24.6653 56.6428 25.0867C57.4193 25.5034 58.0111 26.0834 58.4183 26.8267C58.8303 27.5654 59.0362 28.4177 59.0362 29.3836C59.0362 30.3495 58.8279 31.2017 58.4112 31.9404C57.9946 32.679 57.3909 33.2543 56.6001 33.6662C55.8142 34.0782 54.8625 34.2841 53.745 34.2841H50.0874V31.8196H53.2479C53.8397 31.8196 54.3274 31.7178 54.7109 31.5142C55.0992 31.3059 55.388 31.0195 55.5774 30.6549C55.7715 30.2856 55.8686 29.8618 55.8686 29.3836C55.8686 28.9006 55.7715 28.4792 55.5774 28.1194C55.388 27.7548 55.0992 27.4731 54.7109 27.2742C54.3227 27.0706 53.8303 26.9688 53.2337 26.9688H51.1598V39H48.0845Z" fill="#FEAA62"/>
<path d="M60.4798 26.9901V24.4546H72.4258V26.9901H67.9727V39H64.9329V26.9901H60.4798Z" fill="#FEAA62"/>
<path d="M73.5408 24.4546H76.9854L80.3022 30.7188H80.4443L83.761 24.4546H87.2056L81.9002 33.858V39H78.8462V33.858L73.5408 24.4546Z" fill="#FEAA62"/>
</svg>
