<svg width="88" height="13" viewBox="0 0 88 13" fill="none" xmlns="http://www.w3.org/2000/svg">
<path d="M2.99502 0.36362V12H0.53479V0.36362H2.99502Z" fill="#FEAA62"/>
<path d="M15.2862 4.43748H12.7976C12.7521 4.11551 12.6593 3.82953 12.5192 3.57953C12.379 3.32574 12.1991 3.10983 11.9794 2.9318C11.7597 2.75377 11.5059 2.61741 11.218 2.52271C10.9339 2.42801 10.6252 2.38067 10.2919 2.38067C9.68962 2.38067 9.165 2.53029 8.71803 2.82953C8.27106 3.12498 7.92447 3.5568 7.67826 4.12498C7.43204 4.68938 7.30894 5.37498 7.30894 6.1818C7.30894 7.01135 7.43204 7.70832 7.67826 8.27271C7.92826 8.8371 8.27674 9.26324 8.72371 9.55112C9.17068 9.839 9.68773 9.98294 10.2748 9.98294C10.6044 9.98294 10.9093 9.93938 11.1896 9.85226C11.4737 9.76514 11.7256 9.63824 11.9453 9.47157C12.165 9.30112 12.3468 9.09468 12.4908 8.85226C12.6385 8.60983 12.7408 8.33332 12.7976 8.02271L15.2862 8.03407C15.2218 8.56817 15.0608 9.08332 14.8033 9.57953C14.5495 10.072 14.2067 10.5132 13.7748 10.9034C13.3468 11.2898 12.8355 11.5966 12.2408 11.8238C11.6498 12.0473 10.9813 12.1591 10.2351 12.1591C9.1972 12.1591 8.26917 11.9242 7.45098 11.4545C6.63659 10.9848 5.99265 10.3049 5.51917 9.41476C5.04947 8.52461 4.81462 7.44695 4.81462 6.1818C4.81462 4.91286 5.05326 3.83332 5.53053 2.94317C6.0078 2.05301 6.65553 1.37498 7.47371 0.909075C8.29189 0.439377 9.21235 0.204529 10.2351 0.204529C10.9093 0.204529 11.5343 0.299226 12.1101 0.48862C12.6896 0.678014 13.2029 0.954529 13.6498 1.31816C14.0968 1.67801 14.4605 2.1193 14.7408 2.64203C15.0248 3.16476 15.2067 3.76324 15.2862 4.43748Z" fill="#FEAA62"/>
<path d="M17.0504 12V0.36362H24.8913V2.39203H19.5106V5.16476H24.4879V7.19317H19.5106V9.97157H24.9141V12H17.0504Z" fill="#FEAA62"/>
<path d="M40.8175 4.43748H38.3288C38.2834 4.11551 38.1906 3.82953 38.0504 3.57953C37.9103 3.32574 37.7303 3.10983 37.5106 2.9318C37.2909 2.75377 37.0372 2.61741 36.7493 2.52271C36.4652 2.42801 36.1565 2.38067 35.8231 2.38067C35.2209 2.38067 34.6962 2.53029 34.2493 2.82953C33.8023 3.12498 33.4557 3.5568 33.2095 4.12498C32.9633 4.68938 32.8402 5.37498 32.8402 6.1818C32.8402 7.01135 32.9633 7.70832 33.2095 8.27271C33.4595 8.8371 33.808 9.26324 34.255 9.55112C34.7019 9.839 35.219 9.98294 35.8061 9.98294C36.1356 9.98294 36.4406 9.93938 36.7209 9.85226C37.005 9.76514 37.2569 9.63824 37.4766 9.47157C37.6962 9.30112 37.8781 9.09468 38.022 8.85226C38.1697 8.60983 38.272 8.33332 38.3288 8.02271L40.8175 8.03407C40.7531 8.56817 40.5921 9.08332 40.3345 9.57953C40.0807 10.072 39.7379 10.5132 39.3061 10.9034C38.8781 11.2898 38.3667 11.5966 37.772 11.8238C37.1811 12.0473 36.5125 12.1591 35.7663 12.1591C34.7284 12.1591 33.8004 11.9242 32.9822 11.4545C32.1678 10.9848 31.5239 10.3049 31.0504 9.41476C30.5807 8.52461 30.3459 7.44695 30.3459 6.1818C30.3459 4.91286 30.5845 3.83332 31.0618 2.94317C31.5391 2.05301 32.1868 1.37498 33.005 0.909075C33.8231 0.439377 34.7436 0.204529 35.7663 0.204529C36.4406 0.204529 37.0656 0.299226 37.6413 0.48862C38.2209 0.678014 38.7341 0.954529 39.1811 1.31816C39.6281 1.67801 39.9917 2.1193 40.272 2.64203C40.5561 3.16476 40.7379 3.76324 40.8175 4.43748Z" fill="#FEAA62"/>
<path d="M42.5817 12V0.36362H47.1726C48.0514 0.36362 48.8014 0.520817 49.4226 0.835211C50.0476 1.14582 50.523 1.5871 50.8487 2.15907C51.1783 2.72726 51.343 3.39582 51.343 4.16476C51.343 4.93748 51.1764 5.60226 50.843 6.15907C50.5097 6.7121 50.0267 7.13635 49.3942 7.4318C48.7654 7.72726 48.004 7.87498 47.1101 7.87498H44.0362V5.89771H46.7123C47.182 5.89771 47.5722 5.83332 47.8828 5.70453C48.1934 5.57574 48.4245 5.38256 48.576 5.12498C48.7313 4.86741 48.8089 4.54733 48.8089 4.16476C48.8089 3.77839 48.7313 3.45264 48.576 3.18748C48.4245 2.92233 48.1915 2.72157 47.8771 2.58521C47.5665 2.44506 47.1745 2.37498 46.701 2.37498H45.0419V12H42.5817ZM48.8658 6.70453L51.7578 12H49.0419L46.2123 6.70453H48.8658Z" fill="#FEAA62"/>
<path d="M53.0817 12V0.36362H60.9226V2.39203H55.5419V5.16476H60.5192V7.19317H55.5419V9.97157H60.9453V12H53.0817Z" fill="#FEAA62"/>
<path d="M64.8842 12H62.2479L66.2649 0.36362H69.4354L73.4467 12H70.8104L67.8956 3.02271H67.8047L64.8842 12ZM64.7195 7.42612H70.9467V9.34657H64.7195V7.42612Z" fill="#FEAA62"/>
<path d="M74.8473 0.36362H77.8814L81.0859 8.1818H81.2223L84.4268 0.36362H87.4609V12H85.0746V4.42612H84.978L81.9666 11.9432H80.3416L77.3302 4.39771H77.2337V12H74.8473V0.36362Z" fill="#FEAA62"/>
</svg>
