<svg width="87" height="13" viewBox="0 0 87 13" fill="none" xmlns="http://www.w3.org/2000/svg">
<path d="M6.09233 0.36362H8.52415V8.47726C8.52415 9.22726 8.35559 9.87877 8.01847 10.4318C7.68514 10.9848 7.22112 11.411 6.62642 11.7102C6.03173 12.0095 5.34044 12.1591 4.55256 12.1591C3.8518 12.1591 3.21544 12.036 2.64347 11.7898C2.07529 11.5398 1.62453 11.161 1.2912 10.6534C0.957863 10.142 0.79309 9.49998 0.796878 8.72726H3.24574C3.25332 9.03408 3.31582 9.29733 3.43324 9.51703C3.55445 9.73294 3.71923 9.8996 3.92756 10.017C4.13968 10.1307 4.38968 10.1875 4.67756 10.1875C4.98059 10.1875 5.23627 10.1231 5.44461 9.9943C5.65673 9.86173 5.81771 9.66854 5.92756 9.41476C6.03741 9.16097 6.09233 8.84847 6.09233 8.47726V0.36362Z" fill="#FEAA62"/>
<path d="M10.5582 12V0.36362H18.3992V2.39203H13.0185V5.16476H17.9957V7.19317H13.0185V9.97157H18.4219V12H10.5582Z" fill="#FEAA62"/>
<path d="M20.3551 12V0.36362H22.8153V9.97157H27.804V12H20.3551Z" fill="#FEAA62"/>
<path d="M29.4332 12V0.36362H31.8935V9.97157H36.8821V12H29.4332Z" fill="#FEAA62"/>
<path d="M36.3452 0.36362H39.1009L41.7543 5.37498H41.8679L44.5213 0.36362H47.277L43.0327 7.88635V12H40.5895V7.88635L36.3452 0.36362Z" fill="#FEAA62"/>
<path d="M52.3239 12V0.36362H60.0284V2.39203H54.7841V5.16476H59.517V7.19317H54.7841V12H52.3239Z" fill="#FEAA62"/>
<path d="M64.1435 0.36362V12H61.6832V0.36362H64.1435Z" fill="#FEAA62"/>
<path d="M72.4801 3.71021C72.4347 3.25188 72.2396 2.89582 71.8949 2.64203C71.5502 2.38824 71.0824 2.26135 70.4915 2.26135C70.09 2.26135 69.7509 2.31817 69.4744 2.4318C69.1979 2.54165 68.9858 2.69506 68.8381 2.89203C68.6941 3.089 68.6222 3.31248 68.6222 3.56248C68.6146 3.77082 68.6581 3.95264 68.7528 4.10794C68.8513 4.26324 68.9858 4.39771 69.1562 4.51135C69.3267 4.6212 69.5237 4.71779 69.7472 4.80112C69.9706 4.88067 70.2093 4.94885 70.4631 5.00567L71.5085 5.25567C72.0161 5.3693 72.482 5.52082 72.9062 5.71021C73.3305 5.8996 73.6979 6.13256 74.0085 6.40907C74.3191 6.68559 74.5597 7.01135 74.7301 7.38635C74.9044 7.76135 74.9934 8.19127 74.9972 8.67612C74.9934 9.38824 74.8116 10.0057 74.4517 10.5284C74.0956 11.0473 73.5805 11.4507 72.9062 11.7386C72.2358 12.0227 71.4271 12.1648 70.4801 12.1648C69.5407 12.1648 68.7225 12.0208 68.0256 11.7329C67.3324 11.4451 66.7907 11.0189 66.4006 10.4545C66.0142 9.88635 65.8116 9.1837 65.7926 8.34657H68.1733C68.1998 8.73673 68.3116 9.06248 68.5085 9.32385C68.7093 9.58142 68.9763 9.7765 69.3097 9.90907C69.6468 10.0379 70.0275 10.1023 70.4517 10.1023C70.8684 10.1023 71.2301 10.0417 71.5369 9.92044C71.8475 9.79923 72.0881 9.63067 72.2585 9.41476C72.429 9.19885 72.5142 8.95074 72.5142 8.67044C72.5142 8.40908 72.4366 8.18938 72.2812 8.01135C72.1297 7.83332 71.9063 7.6818 71.6108 7.5568C71.3191 7.4318 70.9612 7.31817 70.5369 7.21589L69.2699 6.89771C68.2888 6.65907 67.5142 6.28597 66.946 5.77839C66.3778 5.27082 66.0956 4.5871 66.0994 3.72726C66.0956 3.02271 66.2831 2.40718 66.6619 1.88067C67.0445 1.35415 67.5691 0.943165 68.2358 0.647711C68.9025 0.352256 69.66 0.204529 70.5085 0.204529C71.3722 0.204529 72.126 0.352256 72.7699 0.647711C73.4176 0.943165 73.9214 1.35415 74.2812 1.88067C74.6411 2.40718 74.8267 3.01703 74.8381 3.71021H72.4801Z" fill="#FEAA62"/>
<path d="M76.652 12V0.36362H79.1122V5.16476H84.1065V0.36362H86.5611V12H84.1065V7.19317H79.1122V12H76.652Z" fill="#FEAA62"/>
</svg>
