<svg width="81" height="28" viewBox="0 0 81 28" fill="none" xmlns="http://www.w3.org/2000/svg">
<path d="M0.711121 27V0.81816H6.24663V22.4361H17.4711V27H0.711121Z" fill="#FEAA62"/>
<path d="M44.177 13.9091C44.177 16.7642 43.6358 19.1932 42.5535 21.196C41.4796 23.1988 40.0137 24.7287 38.1557 25.7855C36.3063 26.8338 34.2267 27.3579 31.9171 27.3579C29.5904 27.3579 27.5023 26.8295 25.6529 25.7727C23.8034 24.7159 22.3418 23.1861 21.2679 21.1832C20.1941 19.1804 19.6571 16.7557 19.6571 13.9091C19.6571 11.054 20.1941 8.62498 21.2679 6.62214C22.3418 4.6193 23.8034 3.09373 25.6529 2.04543C27.5023 0.988615 29.5904 0.460205 31.9171 0.460205C34.2267 0.460205 36.3063 0.988615 38.1557 2.04543C40.0137 3.09373 41.4796 4.6193 42.5535 6.62214C43.6358 8.62498 44.177 11.054 44.177 13.9091ZM38.5648 13.9091C38.5648 12.0596 38.2878 10.5 37.7338 9.23009C37.1884 7.96021 36.4171 6.99714 35.4199 6.34089C34.4228 5.68464 33.2552 5.35651 31.9171 5.35651C30.579 5.35651 29.4114 5.68464 28.4142 6.34089C27.4171 6.99714 26.6415 7.96021 26.0875 9.23009C25.5421 10.5 25.2694 12.0596 25.2694 13.9091C25.2694 15.7585 25.5421 17.3182 26.0875 18.588C26.6415 19.8579 27.4171 20.821 28.4142 21.4773C29.4114 22.1335 30.579 22.4616 31.9171 22.4616C33.2552 22.4616 34.4228 22.1335 35.4199 21.4773C36.4171 20.821 37.1884 19.8579 37.7338 18.588C38.2878 17.3182 38.5648 15.7585 38.5648 13.9091Z" fill="#FEAA62"/>
<path d="M53.813 0.81816V27H48.2775V0.81816H53.813Z" fill="#FEAA62"/>
<path d="M80.2665 0.81816V27H75.4853L64.0946 10.5213H63.9029V27H58.3674V0.81816H63.2253L74.5265 17.2841H74.7566V0.81816H80.2665Z" fill="#FEAA62"/>
</svg>
