<svg width="54" height="19" viewBox="0 0 54 19" fill="none" xmlns="http://www.w3.org/2000/svg">
<path d="M0.47406 18V0.54546H4.1644V14.9574H11.6474V18H0.47406Z" fill="#FEAA62"/>
<path d="M29.4513 9.27273C29.4513 11.1761 29.0905 12.7955 28.3689 14.1307C27.653 15.4659 26.6758 16.4858 25.4371 17.1903C24.2042 17.8892 22.8178 18.2386 21.278 18.2386C19.7269 18.2386 18.3349 17.8864 17.1019 17.1818C15.8689 16.4773 14.8945 15.4574 14.1786 14.1222C13.4627 12.7869 13.1047 11.1705 13.1047 9.27273C13.1047 7.36932 13.4627 5.75001 14.1786 4.41478C14.8945 3.07955 15.8689 2.06251 17.1019 1.36364C18.3349 0.659097 19.7269 0.306824 21.278 0.306824C22.8178 0.306824 24.2042 0.659097 25.4371 1.36364C26.6758 2.06251 27.653 3.07955 28.3689 4.41478C29.0905 5.75001 29.4513 7.36932 29.4513 9.27273ZM25.7099 9.27273C25.7099 8.03978 25.5252 7.00001 25.1559 6.15341C24.7922 5.30682 24.278 4.66478 23.6133 4.22728C22.9485 3.78978 22.1701 3.57103 21.278 3.57103C20.386 3.57103 19.6076 3.78978 18.9428 4.22728C18.278 4.66478 17.761 5.30682 17.3917 6.15341C17.028 7.00001 16.8462 8.03978 16.8462 9.27273C16.8462 10.5057 17.028 11.5455 17.3917 12.3921C17.761 13.2386 18.278 13.8807 18.9428 14.3182C19.6076 14.7557 20.386 14.9744 21.278 14.9744C22.1701 14.9744 22.9485 14.7557 23.6133 14.3182C24.278 13.8807 24.7922 13.2386 25.1559 12.3921C25.5252 11.5455 25.7099 10.5057 25.7099 9.27273Z" fill="#FEAA62"/>
<path d="M35.8753 0.54546V18H32.185V0.54546H35.8753Z" fill="#FEAA62"/>
<path d="M53.511 0.54546V18H50.3235L42.7297 7.01421H42.6019V18H38.9116V0.54546H42.1502L49.6843 11.5227H49.8377V0.54546H53.511Z" fill="#FEAA62"/>
</svg>
