<svg width="124" height="22" viewBox="0 0 124 22" fill="none" xmlns="http://www.w3.org/2000/svg">
<path d="M0.844116 0.636319H6.15378L11.7617 14.3181H12.0004L17.6083 0.636319H22.918V21H18.7418V7.74569H18.5728L13.3029 20.9005H10.4592L5.18929 7.69598H5.02025V21H0.844116V0.636319Z" fill="#FEAA62"/>
<path d="M45.1783 10.8181C45.1783 13.0388 44.7573 14.928 43.9155 16.4858C43.0803 18.0435 41.9401 19.2334 40.495 20.0554C39.0566 20.8707 37.4392 21.2784 35.6428 21.2784C33.8331 21.2784 32.2091 20.8674 30.7706 20.0454C29.3322 19.2234 28.1953 18.0336 27.3601 16.4758C26.5249 14.918 26.1073 13.0322 26.1073 10.8181C26.1073 8.59749 26.5249 6.70829 27.3601 5.15053C28.1953 3.59276 29.3322 2.40621 30.7706 1.59087C32.2091 0.768895 33.8331 0.35791 35.6428 0.35791C37.4392 0.35791 39.0566 0.768895 40.495 1.59087C41.9401 2.40621 43.0803 3.59276 43.9155 5.15053C44.7573 6.70829 45.1783 8.59749 45.1783 10.8181ZM40.8132 10.8181C40.8132 9.37969 40.5978 8.16662 40.1669 7.17893C39.7427 6.19124 39.1428 5.44219 38.3672 4.93178C37.5916 4.42136 36.6835 4.16615 35.6428 4.16615C34.602 4.16615 33.6939 4.42136 32.9183 4.93178C32.1428 5.44219 31.5395 6.19124 31.1087 7.17893C30.6844 8.16662 30.4723 9.37969 30.4723 10.8181C30.4723 12.2566 30.6844 13.4697 31.1087 14.4573C31.5395 15.445 32.1428 16.1941 32.9183 16.7045C33.6939 17.2149 34.602 17.4701 35.6428 17.4701C36.6835 17.4701 37.5916 17.2149 38.3672 16.7045C39.1428 16.1941 39.7427 15.445 40.1669 14.4573C40.5978 13.4697 40.8132 12.2566 40.8132 10.8181Z" fill="#FEAA62"/>
<path d="M65.4002 0.636319V21H61.6815L52.8221 8.18319H52.673V21H48.3676V0.636319H52.146L60.9357 13.4431H61.1147V0.636319H65.4002Z" fill="#FEAA62"/>
<path d="M68.9574 21V0.636319H73.2628V9.61501H73.5313L80.8594 0.636319H86.0199L78.4631 9.75422L86.1094 21H80.9588L75.3807 12.6278L73.2628 15.213V21H68.9574Z" fill="#FEAA62"/>
<path d="M88.2621 21V0.636319H101.984V4.18604H92.5675V9.03831H101.278V12.588H92.5675V17.4502H102.023V21H88.2621Z" fill="#FEAA62"/>
<path d="M104.213 0.636319H109.036L113.679 9.40621H113.878L118.522 0.636319H123.344L115.917 13.8011V21H111.641V13.8011L104.213 0.636319Z" fill="#FEAA62"/>
</svg>
