<svg width="76" height="19" viewBox="0 0 76 19" fill="none" xmlns="http://www.w3.org/2000/svg">
<path d="M0.938904 0.54546H5.49004L10.2969 12.2727H10.5014L15.3082 0.54546H19.8594V18H16.2798V6.63921H16.1349L11.6179 17.9148H9.18038L4.66334 6.5966H4.51845V18H0.938904V0.54546Z" fill="#FEAA62"/>
<path d="M38.9396 9.27273C38.9396 11.1761 38.5788 12.7955 37.8572 14.1307C37.1413 15.4659 36.164 16.4858 34.9254 17.1903C33.6925 17.8892 32.3061 18.2386 30.7663 18.2386C29.2152 18.2386 27.8231 17.8864 26.5902 17.1818C25.3572 16.4773 24.3828 15.4574 23.6669 14.1222C22.951 12.7869 22.593 11.1705 22.593 9.27273C22.593 7.36932 22.951 5.75001 23.6669 4.41478C24.3828 3.07955 25.3572 2.06251 26.5902 1.36364C27.8231 0.659097 29.2152 0.306824 30.7663 0.306824C32.3061 0.306824 33.6925 0.659097 34.9254 1.36364C36.164 2.06251 37.1413 3.07955 37.8572 4.41478C38.5788 5.75001 38.9396 7.36932 38.9396 9.27273ZM35.1981 9.27273C35.1981 8.03978 35.0135 7.00001 34.6442 6.15341C34.2805 5.30682 33.7663 4.66478 33.1015 4.22728C32.4368 3.78978 31.6584 3.57103 30.7663 3.57103C29.8743 3.57103 29.0959 3.78978 28.4311 4.22728C27.7663 4.66478 27.2493 5.30682 26.88 6.15341C26.5163 7.00001 26.3345 8.03978 26.3345 9.27273C26.3345 10.5057 26.5163 11.5455 26.88 12.3921C27.2493 13.2386 27.7663 13.8807 28.4311 14.3182C29.0959 14.7557 29.8743 14.9744 30.7663 14.9744C31.6584 14.9744 32.4368 14.7557 33.1015 14.3182C33.7663 13.8807 34.2805 13.2386 34.6442 12.3921C35.0135 11.5455 35.1981 10.5057 35.1981 9.27273Z" fill="#FEAA62"/>
<path d="M57.7131 9.27273C57.7131 11.1761 57.3523 12.7955 56.6307 14.1307C55.9148 15.4659 54.9375 16.4858 53.6988 17.1903C52.4659 17.8892 51.0795 18.2386 49.5398 18.2386C47.9886 18.2386 46.5966 17.8864 45.3636 17.1818C44.1307 16.4773 43.1562 15.4574 42.4403 14.1222C41.7244 12.7869 41.3665 11.1705 41.3665 9.27273C41.3665 7.36932 41.7244 5.75001 42.4403 4.41478C43.1562 3.07955 44.1307 2.06251 45.3636 1.36364C46.5966 0.659097 47.9886 0.306824 49.5398 0.306824C51.0795 0.306824 52.4659 0.659097 53.6988 1.36364C54.9375 2.06251 55.9148 3.07955 56.6307 4.41478C57.3523 5.75001 57.7131 7.36932 57.7131 9.27273ZM53.9716 9.27273C53.9716 8.03978 53.7869 7.00001 53.4176 6.15341C53.054 5.30682 52.5398 4.66478 51.875 4.22728C51.2102 3.78978 50.4318 3.57103 49.5398 3.57103C48.6477 3.57103 47.8693 3.78978 47.2045 4.22728C46.5398 4.66478 46.0227 5.30682 45.6534 6.15341C45.2898 7.00001 45.1079 8.03978 45.1079 9.27273C45.1079 10.5057 45.2898 11.5455 45.6534 12.3921C46.0227 13.2386 46.5398 13.8807 47.2045 14.3182C47.8693 14.7557 48.6477 14.9744 49.5398 14.9744C50.4318 14.9744 51.2102 14.7557 51.875 14.3182C52.5398 13.8807 53.054 13.2386 53.4176 12.3921C53.7869 11.5455 53.9716 10.5057 53.9716 9.27273Z" fill="#FEAA62"/>
<path d="M75.0462 0.54546V18H71.8587L64.2649 7.01421H64.1371V18H60.4467V0.54546H63.6854L71.2194 11.5227H71.3729V0.54546H75.0462Z" fill="#FEAA62"/>
</svg>
