<svg width="63" height="19" viewBox="0 0 63 19" fill="none" xmlns="http://www.w3.org/2000/svg">
<path d="M15.0657 0.54546V18H11.8782L4.28443 7.01421H4.15659V18H0.466248V0.54546H3.70488L11.239 11.5227H11.3924V0.54546H15.0657Z" fill="#FEAA62"/>
<path d="M18.1147 18V0.54546H29.876V3.58807H21.805V7.74716H29.2709V10.7898H21.805V14.9574H29.9101V18H18.1147Z" fill="#FEAA62"/>
<path d="M42.2787 5.56535C42.2106 4.87785 41.918 4.34376 41.4009 3.96307C40.8839 3.58239 40.1822 3.39205 39.2958 3.39205C38.6935 3.39205 38.185 3.47728 37.7702 3.64773C37.3555 3.81251 37.0373 4.04262 36.8157 4.33807C36.5998 4.63353 36.4918 4.96876 36.4918 5.34376C36.4805 5.65626 36.5458 5.92898 36.6878 6.16194C36.8356 6.39489 37.0373 6.5966 37.293 6.76705C37.5486 6.93182 37.8441 7.07671 38.1793 7.20171C38.5145 7.32103 38.8725 7.4233 39.2532 7.50853L40.8214 7.88353C41.5827 8.05398 42.2816 8.28126 42.918 8.56535C43.5543 8.84944 44.1055 9.19887 44.5714 9.61364C45.0373 10.0284 45.3981 10.5171 45.6537 11.0796C45.9151 11.6421 46.0486 12.2869 46.0543 13.0142C46.0486 14.0824 45.7759 15.0085 45.2361 15.7926C44.702 16.571 43.9293 17.1761 42.918 17.608C41.9123 18.0341 40.6992 18.2472 39.2787 18.2472C37.8697 18.2472 36.6424 18.0313 35.5969 17.5994C34.5572 17.1676 33.7447 16.5284 33.1594 15.6818C32.5799 14.8296 32.2759 13.7756 32.2475 12.5199H35.8185C35.8583 13.1051 36.0259 13.5938 36.3214 13.9858C36.6225 14.3722 37.0231 14.6648 37.5231 14.8636C38.0287 15.0568 38.5998 15.1534 39.2361 15.1534C39.8611 15.1534 40.4037 15.0625 40.864 14.8807C41.3299 14.6989 41.6907 14.446 41.9464 14.1222C42.202 13.7983 42.3299 13.4261 42.3299 13.0057C42.3299 12.6136 42.2134 12.2841 41.9805 12.0171C41.7532 11.75 41.418 11.5227 40.9748 11.3352C40.5373 11.1477 40.0003 10.9773 39.364 10.8239L37.4634 10.3466C35.9918 9.98864 34.8299 9.42898 33.9776 8.66762C33.1253 7.90626 32.702 6.88069 32.7077 5.59091C32.702 4.5341 32.9833 3.6108 33.5515 2.82103C34.1253 2.03126 34.9123 1.41478 35.9123 0.971597C36.9123 0.528415 38.0486 0.306824 39.3214 0.306824C40.6168 0.306824 41.7475 0.528415 42.7134 0.971597C43.685 1.41478 44.4407 2.03126 44.9805 2.82103C45.5202 3.6108 45.7986 4.52557 45.8157 5.56535H42.2787Z" fill="#FEAA62"/>
<path d="M47.8718 3.58807V0.54546H62.207V3.58807H56.8633V18H53.2155V3.58807H47.8718Z" fill="#FEAA62"/>
</svg>
