<svg width="82" height="31" viewBox="0 0 82 31" fill="none" xmlns="http://www.w3.org/2000/svg">
<path d="M28.1637 15.4545C28.1637 18.6269 27.5624 21.3257 26.3597 23.5511C25.1665 25.7765 23.5378 27.4763 21.4734 28.6506C19.4184 29.8153 17.1078 30.3977 14.5415 30.3977C11.9563 30.3977 9.63624 29.8106 7.58132 28.6364C5.5264 27.4621 3.90234 25.7623 2.70916 23.5369C1.51598 21.3115 0.919388 18.6174 0.919388 15.4545C0.919388 12.2822 1.51598 9.58332 2.70916 7.35794C3.90234 5.13257 5.5264 3.43749 7.58132 2.27272C9.63624 1.09847 11.9563 0.511353 14.5415 0.511353C17.1078 0.511353 19.4184 1.09847 21.4734 2.27272C23.5378 3.43749 25.1665 5.13257 26.3597 7.35794C27.5624 9.58332 28.1637 12.2822 28.1637 15.4545ZM21.9279 15.4545C21.9279 13.3996 21.6201 11.6667 21.0046 10.2557C20.3986 8.84469 19.5415 7.77461 18.4336 7.04544C17.3256 6.31628 16.0283 5.95169 14.5415 5.95169C13.0548 5.95169 11.7575 6.31628 10.6495 7.04544C9.54155 7.77461 8.6798 8.84469 8.06427 10.2557C7.45821 11.6667 7.15518 13.3996 7.15518 15.4545C7.15518 17.5095 7.45821 19.2424 8.06427 20.6534C8.6798 22.0644 9.54155 23.1345 10.6495 23.8636C11.7575 24.5928 13.0548 24.9574 14.5415 24.9574C16.0283 24.9574 17.3256 24.5928 18.4336 23.8636C19.5415 23.1345 20.3986 22.0644 21.0046 20.6534C21.6201 19.2424 21.9279 17.5095 21.9279 15.4545Z" fill="#FEAA62"/>
<path d="M57.0522 0.90908V30H51.7397L39.0835 11.6903H38.8704V30H32.7198V0.90908H38.1175L50.6744 19.2045H50.93V0.90908H57.0522Z" fill="#FEAA62"/>
<path d="M62.1339 30V0.90908H81.7362V5.9801H68.2844V12.9119H80.7276V17.9829H68.2844V24.929H81.793V30H62.1339Z" fill="#FEAA62"/>
</svg>
