<svg width="56" height="19" viewBox="0 0 56 19" fill="none" xmlns="http://www.w3.org/2000/svg">
<path d="M17.256 9.27273C17.256 11.1761 16.8952 12.7955 16.1736 14.1307C15.4577 15.4659 14.4804 16.4858 13.2418 17.1903C12.0089 17.8892 10.6225 18.2386 9.08272 18.2386C7.53158 18.2386 6.13954 17.8864 4.90658 17.1818C3.67363 16.4773 2.6992 15.4574 1.98329 14.1222C1.26738 12.7869 0.909424 11.1705 0.909424 9.27273C0.909424 7.36932 1.26738 5.75001 1.98329 4.41478C2.6992 3.07955 3.67363 2.06251 4.90658 1.36364C6.13954 0.659097 7.53158 0.306824 9.08272 0.306824C10.6225 0.306824 12.0089 0.659097 13.2418 1.36364C14.4804 2.06251 15.4577 3.07955 16.1736 4.41478C16.8952 5.75001 17.256 7.36932 17.256 9.27273ZM13.5145 9.27273C13.5145 8.03978 13.3299 7.00001 12.9606 6.15341C12.5969 5.30682 12.0827 4.66478 11.4179 4.22728C10.7532 3.78978 9.97477 3.57103 9.08272 3.57103C8.19067 3.57103 7.41226 3.78978 6.74749 4.22728C6.08272 4.66478 5.56567 5.30682 5.19636 6.15341C4.83272 7.00001 4.6509 8.03978 4.6509 9.27273C4.6509 10.5057 4.83272 11.5455 5.19636 12.3921C5.56567 13.2386 6.08272 13.8807 6.74749 14.3182C7.41226 14.7557 8.19067 14.9744 9.08272 14.9744C9.97477 14.9744 10.7532 14.7557 11.4179 14.3182C12.0827 13.8807 12.5969 13.2386 12.9606 12.3921C13.3299 11.5455 13.5145 10.5057 13.5145 9.27273Z" fill="#FEAA62"/>
<path d="M23.2624 18L18.2681 0.54546H22.2993L25.1885 12.6733H25.3334L28.5209 0.54546H31.9726L35.1516 12.6989H35.305L38.1942 0.54546H42.2255L37.2312 18H33.6346L30.3107 6.58807H30.1743L26.859 18H23.2624Z" fill="#FEAA62"/>
<path d="M44.2006 18V0.54546H47.891V14.9574H55.3739V18H44.2006Z" fill="#FEAA62"/>
</svg>
