<svg width="71" height="16" viewBox="0 0 71 16" fill="none" xmlns="http://www.w3.org/2000/svg">
<path d="M0.316895 15V0.45454H6.05553C7.15875 0.45454 8.09862 0.665241 8.87513 1.08664C9.65165 1.50331 10.2435 2.08333 10.6507 2.8267C11.0626 3.56534 11.2686 4.41761 11.2686 5.38352C11.2686 6.34943 11.0603 7.2017 10.6436 7.94034C10.2269 8.67897 9.62324 9.25426 8.83252 9.66619C8.04653 10.0781 7.09483 10.2841 5.97741 10.2841H2.31974V7.8196H5.48025C6.0721 7.8196 6.55979 7.7178 6.94332 7.5142C7.33157 7.30587 7.6204 7.01941 7.80979 6.65482C8.00392 6.28551 8.10099 5.86174 8.10099 5.38352C8.10099 4.90056 8.00392 4.47916 7.80979 4.11931C7.6204 3.75473 7.33157 3.47301 6.94332 3.27414C6.55506 3.07054 6.06263 2.96874 5.46604 2.96874H3.39218V15H0.316895Z" fill="#FEAA62"/>
<path d="M13.2661 15V0.45454H23.0672V2.99005H16.3414V6.45596H22.563V8.99147H16.3414V12.4645H23.0957V15H13.2661Z" fill="#FEAA62"/>
<path d="M37.6784 0.45454V15H35.0221L28.694 5.84517H28.5875V15H25.5122V0.45454H28.2111L34.4895 9.60227H34.6173V0.45454H37.6784Z" fill="#FEAA62"/>
<path d="M53.053 5.54687H49.9422C49.8854 5.14441 49.7694 4.78693 49.5942 4.47443C49.419 4.15719 49.1941 3.88731 48.9195 3.66477C48.6449 3.44223 48.3277 3.27177 47.9678 3.1534C47.6127 3.03503 47.2268 2.97585 46.8101 2.97585C46.0573 2.97585 45.4015 3.16287 44.8428 3.53693C44.2841 3.90624 43.8509 4.44602 43.5431 5.15625C43.2353 5.86174 43.0815 6.71874 43.0815 7.72727C43.0815 8.7642 43.2353 9.63541 43.5431 10.3409C43.8556 11.0464 44.2912 11.5791 44.8499 11.9389C45.4086 12.2988 46.0549 12.4787 46.7888 12.4787C47.2008 12.4787 47.5819 12.4242 47.9323 12.3153C48.2874 12.2064 48.6023 12.0478 48.8769 11.8395C49.1515 11.6264 49.3788 11.3684 49.5587 11.0653C49.7434 10.7623 49.8712 10.4167 49.9422 10.0284L53.053 10.0426C52.9726 10.7102 52.7713 11.3542 52.4494 11.9744C52.1321 12.59 51.7036 13.1416 51.1638 13.6293C50.6288 14.1122 49.9896 14.4957 49.2462 14.7798C48.5076 15.0592 47.6719 15.1989 46.7391 15.1989C45.4418 15.1989 44.2817 14.9053 43.259 14.3182C42.241 13.7311 41.4361 12.8812 40.8442 11.7685C40.2571 10.6558 39.9636 9.30871 39.9636 7.72727C39.9636 6.14109 40.2619 4.79166 40.8584 3.67897C41.455 2.56628 42.2647 1.71874 43.2874 1.13636C44.3101 0.549237 45.4607 0.255676 46.7391 0.255676C47.5819 0.255676 48.3632 0.374048 49.0829 0.61079C49.8073 0.847533 50.4489 1.19318 51.0076 1.64772C51.5663 2.09753 52.0208 2.64914 52.3712 3.30255C52.7263 3.95596 52.9536 4.70407 53.053 5.54687Z" fill="#FEAA62"/>
<path d="M58.3336 0.45454V15H55.2583V0.45454H58.3336Z" fill="#FEAA62"/>
<path d="M60.8638 15V0.45454H63.9391V12.4645H70.1749V15H60.8638Z" fill="#FEAA62"/>
</svg>
