<svg width="68" height="17" viewBox="0 0 68 17" fill="none" xmlns="http://www.w3.org/2000/svg">
<path d="M6.03746 9.94324H8.6511L9.96502 11.6336L11.2576 13.1393L13.6937 16.1932H10.8244L9.14826 14.1336L8.28888 12.912L6.03746 9.94324ZM13.9139 7.72733C13.9139 9.3135 13.6132 10.6629 13.0119 11.7756C12.4153 12.8883 11.6009 13.7382 10.5687 14.3253C9.54125 14.9077 8.38595 15.1989 7.10281 15.1989C5.81019 15.1989 4.65015 14.9054 3.62269 14.3182C2.59523 13.7311 1.7832 12.8812 1.18661 11.7685C0.590021 10.6558 0.291725 9.30877 0.291725 7.72733C0.291725 6.14115 0.590021 4.79172 1.18661 3.67903C1.7832 2.56634 2.59523 1.71881 3.62269 1.13642C4.65015 0.549298 5.81019 0.255737 7.10281 0.255737C8.38595 0.255737 9.54125 0.549298 10.5687 1.13642C11.6009 1.71881 12.4153 2.56634 13.0119 3.67903C13.6132 4.79172 13.9139 6.14115 13.9139 7.72733ZM10.796 7.72733C10.796 6.69987 10.6421 5.83339 10.3343 5.1279C10.0313 4.4224 9.6028 3.88737 9.04883 3.52278C8.49485 3.1582 7.84618 2.97591 7.10281 2.97591C6.35943 2.97591 5.71076 3.1582 5.15678 3.52278C4.60281 3.88737 4.17193 4.4224 3.86417 5.1279C3.56114 5.83339 3.40962 6.69987 3.40962 7.72733C3.40962 8.75479 3.56114 9.62127 3.86417 10.3268C4.17193 11.0323 4.60281 11.5673 5.15678 11.9319C5.71076 12.2965 6.35943 12.4787 7.10281 12.4787C7.84618 12.4787 8.49485 12.2965 9.04883 11.9319C9.6028 11.5673 10.0313 11.0323 10.3343 10.3268C10.6421 9.62127 10.796 8.75479 10.796 7.72733Z" fill="#FEAA62"/>
<path d="M25.1763 0.454601H28.2516V9.90062C28.2516 10.9612 27.9983 11.8893 27.4917 12.6847C26.9898 13.4802 26.2866 14.1004 25.3823 14.5455C24.4779 14.9859 23.4244 15.206 22.2218 15.206C21.0144 15.206 19.9585 14.9859 19.0542 14.5455C18.1498 14.1004 17.4467 13.4802 16.9448 12.6847C16.4429 11.8893 16.1919 10.9612 16.1919 9.90062V0.454601H19.2672V9.63784C19.2672 10.1918 19.388 10.6842 19.6294 11.1151C19.8757 11.546 20.2213 11.8845 20.6664 12.1307C21.1114 12.377 21.6299 12.5001 22.2218 12.5001C22.8184 12.5001 23.3368 12.377 23.7772 12.1307C24.2222 11.8845 24.5655 11.546 24.807 11.1151C25.0532 10.6842 25.1763 10.1918 25.1763 9.63784V0.454601Z" fill="#FEAA62"/>
<path d="M30.7818 15.0001V0.454601H40.5829V2.99011H33.8571V6.45602H40.0787V8.99153H33.8571V12.4645H40.6113V15.0001H30.7818Z" fill="#FEAA62"/>
<path d="M43.0279 15.0001V0.454601H52.829V2.99011H46.1032V6.45602H52.3248V8.99153H46.1032V12.4645H52.8574V15.0001H43.0279Z" fill="#FEAA62"/>
<path d="M67.4402 0.454601V15.0001H64.7839L58.4558 5.84523H58.3493V15.0001H55.274V0.454601H57.9728L64.2512 9.60233H64.3791V0.454601H67.4402Z" fill="#FEAA62"/>
</svg>
