<svg width="77" height="13" viewBox="0 0 77 13" fill="none" xmlns="http://www.w3.org/2000/svg">
<path d="M0.0348053 12V0.363681H4.62571C5.5045 0.363681 6.2545 0.520878 6.87571 0.835272C7.50071 1.14588 7.97609 1.58717 8.30185 2.15914C8.6314 2.72732 8.79617 3.39588 8.79617 4.16482C8.79617 4.93754 8.6295 5.60232 8.29617 6.15914C7.96284 6.71217 7.47988 7.13641 6.84731 7.43186C6.21852 7.72732 5.45715 7.87504 4.56321 7.87504H1.48935V5.89777H4.16549C4.63518 5.89777 5.02534 5.83338 5.33594 5.70459C5.64655 5.5758 5.87761 5.38262 6.02912 5.12504C6.18443 4.86747 6.26208 4.54739 6.26208 4.16482C6.26208 3.77845 6.18443 3.4527 6.02912 3.18754C5.87761 2.92239 5.64465 2.72164 5.33026 2.58527C5.01965 2.44512 4.62761 2.37504 4.15412 2.37504H2.49503V12H0.0348053ZM6.3189 6.70459L9.21094 12H6.49503L3.66549 6.70459H6.3189Z" fill="#FEAA62"/>
<path d="M12.5405 12H9.90412L13.9212 0.363681H17.0916L21.103 12H18.4666L15.5519 3.02277H15.4609L12.5405 12ZM12.3757 7.42618H18.603V9.34664H12.3757V7.42618Z" fill="#FEAA62"/>
<path d="M24.9638 0.363681V12H22.5036V0.363681H24.9638Z" fill="#FEAA62"/>
<path d="M36.7209 0.363681V12H34.5959L29.5334 4.67618H29.4482V12H26.9879V0.363681H29.147L34.1698 7.68186H34.272V0.363681H36.7209Z" fill="#FEAA62"/>
<path d="M38.7536 12V0.363681H43.4126C44.2687 0.363681 44.9827 0.490575 45.5547 0.744363C46.1267 0.998151 46.5566 1.35042 46.8445 1.80118C47.1323 2.24815 47.2763 2.7633 47.2763 3.34664C47.2763 3.80118 47.1854 4.2008 47.0036 4.5455C46.8217 4.88641 46.5717 5.16671 46.2536 5.38641C45.9392 5.60232 45.5793 5.75573 45.174 5.84664V5.96027C45.6172 5.97921 46.032 6.10421 46.4183 6.33527C46.8085 6.56633 47.1248 6.8902 47.3672 7.30686C47.6096 7.71974 47.7308 8.21217 47.7308 8.78414C47.7308 9.40156 47.5774 9.9527 47.2706 10.4375C46.9676 10.9186 46.5187 11.2993 45.924 11.5796C45.3293 11.8599 44.5964 12 43.7251 12H38.7536ZM41.2138 9.98868H43.2195C43.9051 9.98868 44.4051 9.858 44.7195 9.59664C45.0339 9.33148 45.1911 8.97921 45.1911 8.53982C45.1911 8.21785 45.1134 7.93376 44.9581 7.68754C44.8028 7.44133 44.5812 7.24815 44.2933 7.108C44.0092 6.96785 43.6702 6.89777 43.2763 6.89777H41.2138V9.98868ZM41.2138 5.233H43.0376C43.3748 5.233 43.674 5.17429 43.9354 5.05686C44.2005 4.93565 44.4089 4.7652 44.5604 4.5455C44.7157 4.3258 44.7933 4.06254 44.7933 3.75573C44.7933 3.33527 44.6437 2.99626 44.3445 2.73868C44.049 2.4811 43.6286 2.35232 43.0831 2.35232H41.2138V5.233Z" fill="#FEAA62"/>
<path d="M60.0249 6.18186C60.0249 7.4508 59.7843 8.53035 59.3033 9.4205C58.826 10.3107 58.1745 10.9906 57.3487 11.4603C56.5268 11.9262 55.6025 12.1591 54.576 12.1591C53.5419 12.1591 52.6139 11.9243 51.7919 11.4546C50.9699 10.9849 50.3203 10.305 49.843 9.41482C49.3658 8.52467 49.1271 7.44701 49.1271 6.18186C49.1271 4.91292 49.3658 3.83338 49.843 2.94323C50.3203 2.05307 50.9699 1.37504 51.7919 0.909136C52.6139 0.439438 53.5419 0.20459 54.576 0.20459C55.6025 0.20459 56.5268 0.439438 57.3487 0.909136C58.1745 1.37504 58.826 2.05307 59.3033 2.94323C59.7843 3.83338 60.0249 4.91292 60.0249 6.18186ZM57.5305 6.18186C57.5305 5.35989 57.4074 4.66671 57.1612 4.10232C56.9188 3.53792 56.576 3.10989 56.1328 2.81823C55.6896 2.52656 55.1707 2.38073 54.576 2.38073C53.9813 2.38073 53.4624 2.52656 53.0192 2.81823C52.576 3.10989 52.2313 3.53792 51.9851 4.10232C51.7427 4.66671 51.6215 5.35989 51.6215 6.18186C51.6215 7.00383 51.7427 7.69701 51.9851 8.26141C52.2313 8.8258 52.576 9.25383 53.0192 9.5455C53.4624 9.83717 53.9813 9.983 54.576 9.983C55.1707 9.983 55.6896 9.83717 56.1328 9.5455C56.576 9.25383 56.9188 8.8258 57.1612 8.26141C57.4074 7.69701 57.5305 7.00383 57.5305 6.18186Z" fill="#FEAA62"/>
<path d="M64.0291 12L60.6996 0.363681H63.3871L65.3132 8.44891H65.4098L67.5348 0.363681H69.8359L71.9553 8.46595H72.0575L73.9837 0.363681H76.6712L73.3416 12H70.9439L68.728 4.39209H68.6371L66.4268 12H64.0291Z" fill="#FEAA62"/>
</svg>
