<svg width="160" height="175" viewBox="0 0 160 175" fill="none" xmlns="http://www.w3.org/2000/svg">
<g filter="url(#filter0_d_538_92)">
<path d="M1 31C1 14.4315 14.4315 1 31 1H121C137.569 1 151 14.4315 151 31V136C151 152.569 137.569 166 121 166H31C14.4315 166 1 152.569 1 136V31Z" fill="#F8EBE0"/>
<path d="M2 31C2 14.9837 14.9837 2 31 2H121C137.016 2 150 14.9837 150 31V136C150 152.016 137.016 165 121 165H31C14.9837 165 2 152.016 2 136V31Z" stroke="white" stroke-width="2"/>
</g>
<defs>
<filter id="filter0_d_538_92" x="0" y="0" width="160" height="175" filterUnits="userSpaceOnUse" color-interpolation-filters="sRGB">
<feFlood flood-opacity="0" result="BackgroundImageFix"/>
<feColorMatrix in="SourceAlpha" type="matrix" values="0 0 0 0 0 0 0 0 0 0 0 0 0 0 0 0 0 0 127 0" result="hardAlpha"/>
<feMorphology radius="1" operator="dilate" in="SourceAlpha" result="effect1_dropShadow_538_92"/>
<feOffset dx="4" dy="4"/>
<feGaussianBlur stdDeviation="2"/>
<feComposite in2="hardAlpha" operator="out"/>
<feColorMatrix type="matrix" values="0 0 0 0 0 0 0 0 0 0 0 0 0 0 0 0 0 0 0.25 0"/>
<feBlend mode="normal" in2="BackgroundImageFix" result="effect1_dropShadow_538_92"/>
<feBlend mode="normal" in="SourceGraphic" in2="effect1_dropShadow_538_92" result="shape"/>
</filter>
</defs>
</svg>
