<svg width="119" height="28" viewBox="0 0 119 28" fill="none" xmlns="http://www.w3.org/2000/svg">
<path d="M15.9396 8.34799C15.8374 7.31674 15.3984 6.5156 14.6229 5.94458C13.8473 5.37356 12.7948 5.08805 11.4652 5.08805C10.5618 5.08805 9.79901 5.21589 9.17685 5.47157C8.55469 5.71873 8.07742 6.0639 7.74503 6.50708C7.42117 6.95026 7.25924 7.4531 7.25924 8.0156C7.24219 8.48435 7.3402 8.89344 7.55327 9.24288C7.77486 9.59231 8.07742 9.89487 8.46094 10.1505C8.84447 10.3977 9.28765 10.615 9.79049 10.8025C10.2933 10.9815 10.8303 11.1349 11.4013 11.2628L13.7536 11.8253C14.8956 12.0809 15.9439 12.4219 16.8984 12.848C17.853 13.2741 18.6797 13.7983 19.3786 14.4204C20.0774 15.0426 20.6186 15.7755 21.0021 16.6193C21.3942 17.463 21.5945 18.4304 21.603 19.5213C21.5945 21.1236 21.1854 22.5128 20.3757 23.6889C19.5746 24.8565 18.4155 25.7642 16.8984 26.4119C15.3899 27.0511 13.5703 27.3707 11.4396 27.3707C9.326 27.3707 7.48509 27.0469 5.91691 26.3991C4.35725 25.7514 3.1385 24.7926 2.26066 23.5227C1.39134 22.2443 0.935375 20.6633 0.892761 18.7798H6.2493C6.30895 19.6576 6.56037 20.3906 7.00356 20.9787C7.45526 21.5582 8.05611 21.9971 8.80611 22.2954C9.56464 22.5852 10.4212 22.7301 11.3757 22.7301C12.3132 22.7301 13.1271 22.5937 13.8175 22.321C14.5163 22.0483 15.0575 21.669 15.4411 21.1832C15.8246 20.6974 16.0163 20.1392 16.0163 19.5085C16.0163 18.9204 15.8416 18.4261 15.4922 18.0255C15.1513 17.625 14.6484 17.2841 13.9837 17.0028C13.3274 16.7216 12.522 16.4659 11.5675 16.2358L8.71663 15.5199C6.50924 14.9829 4.76634 14.1434 3.48793 13.0014C2.20952 11.8594 1.57458 10.321 1.5831 8.38634C1.57458 6.80111 1.99645 5.41617 2.84873 4.23151C3.70952 3.04685 4.88992 2.12214 6.38992 1.45736C7.88992 0.792592 9.59447 0.460205 11.5036 0.460205C13.4467 0.460205 15.1428 0.792592 16.5916 1.45736C18.049 2.12214 19.1825 3.04685 19.9922 4.23151C20.8019 5.41617 21.2195 6.78833 21.245 8.34799H15.9396Z" fill="#FEAA62"/>
<path d="M25.3264 27V0.81816H42.9684V5.38208H30.8619V11.6207H42.0607V16.1846H30.8619V22.4361H43.0195V27H25.3264Z" fill="#FEAA62"/>
<path d="M52.0994 0.81816L58.4276 20.7102H58.6705L65.0114 0.81816H71.1477L62.1222 27H54.9886L45.9503 0.81816H52.0994Z" fill="#FEAA62"/>
<path d="M74.299 27V0.81816H91.9411V5.38208H79.8345V11.6207H91.0334V16.1846H79.8345V22.4361H91.9922V27H74.299Z" fill="#FEAA62"/>
<path d="M118.241 0.81816V27H113.46L102.069 10.5213H101.877V27H96.342V0.81816H101.2L112.501 17.2841H112.731V0.81816H118.241Z" fill="#FEAA62"/>
</svg>
