<svg width="116" height="28" viewBox="0 0 116 28" fill="none" xmlns="http://www.w3.org/2000/svg">
<path d="M15.0568 8.34799C14.9546 7.31674 14.5156 6.5156 13.7401 5.94458C12.9645 5.37356 11.9119 5.08805 10.5824 5.08805C9.67898 5.08805 8.9162 5.21589 8.29404 5.47157C7.67188 5.71873 7.19461 6.0639 6.86222 6.50708C6.53836 6.95026 6.37643 7.4531 6.37643 8.0156C6.35938 8.48435 6.45739 8.89344 6.67046 9.24288C6.89205 9.59231 7.19461 9.89487 7.57813 10.1505C7.96165 10.3977 8.40484 10.615 8.90768 10.8025C9.41052 10.9815 9.94745 11.1349 10.5185 11.2628L12.8707 11.8253C14.0128 12.0809 15.0611 12.4219 16.0156 12.848C16.9702 13.2741 17.7969 13.7983 18.4957 14.4204C19.1946 15.0426 19.7358 15.7755 20.1193 16.6193C20.5114 17.463 20.7117 18.4304 20.7202 19.5213C20.7117 21.1236 20.3026 22.5128 19.4929 23.6889C18.6918 24.8565 17.5327 25.7642 16.0156 26.4119C14.5071 27.0511 12.6875 27.3707 10.5568 27.3707C8.44319 27.3707 6.60228 27.0469 5.0341 26.3991C3.47444 25.7514 2.25569 24.7926 1.37785 23.5227C0.508528 22.2443 0.0525624 20.6633 0.00994873 18.7798H5.36648C5.42614 19.6576 5.67756 20.3906 6.12074 20.9787C6.57245 21.5582 7.1733 21.9971 7.9233 22.2954C8.68182 22.5852 9.53836 22.7301 10.4929 22.7301C11.4304 22.7301 12.2443 22.5937 12.9347 22.321C13.6335 22.0483 14.1747 21.669 14.5582 21.1832C14.9418 20.6974 15.1335 20.1392 15.1335 19.5085C15.1335 18.9204 14.9588 18.4261 14.6094 18.0255C14.2685 17.625 13.7656 17.2841 13.1009 17.0028C12.4446 16.7216 11.6392 16.4659 10.6847 16.2358L7.83381 15.5199C5.62643 14.9829 3.88353 14.1434 2.60512 13.0014C1.32671 11.8594 0.691767 10.321 0.70029 8.38634C0.691767 6.80111 1.11364 5.41617 1.96591 4.23151C2.82671 3.04685 4.00711 2.12214 5.50711 1.45736C7.00711 0.792592 8.71165 0.460205 10.6207 0.460205C12.5639 0.460205 14.2599 0.792592 15.7088 1.45736C17.1662 2.12214 18.2997 3.04685 19.1094 4.23151C19.919 5.41617 20.3367 6.78833 20.3622 8.34799H15.0568Z" fill="#FEAA62"/>
<path d="M24.4435 27V0.81816H29.9791V11.6207H41.2163V0.81816H46.739V27H41.2163V16.1846H29.9791V27H24.4435Z" fill="#FEAA62"/>
<path d="M51.3029 27V0.81816H68.945V5.38208H56.8384V11.6207H68.0373V16.1846H56.8384V22.4361H68.9961V27H51.3029Z" fill="#FEAA62"/>
<path d="M73.3459 27V0.81816H90.9879V5.38208H78.8814V11.6207H90.0803V16.1846H78.8814V22.4361H91.0391V27H73.3459Z" fill="#FEAA62"/>
<path d="M95.3889 27V0.81816H105.718C107.704 0.81816 109.396 1.19742 110.794 1.95594C112.191 2.70594 113.257 3.74998 113.99 5.08805C114.731 6.41759 115.102 7.95168 115.102 9.69032C115.102 11.429 114.727 12.963 113.977 14.2926C113.227 15.6221 112.14 16.6576 110.717 17.3991C109.302 18.1406 107.589 18.5113 105.578 18.5113H98.994V14.0753H104.683C105.748 14.0753 106.626 13.892 107.316 13.5255C108.015 13.1505 108.535 12.6349 108.876 11.9787C109.225 11.3139 109.4 10.5511 109.4 9.69032C109.4 8.821 109.225 8.06248 108.876 7.41475C108.535 6.7585 108.015 6.2514 107.316 5.89344C106.618 5.52697 105.731 5.34373 104.657 5.34373H100.924V27H95.3889Z" fill="#FEAA62"/>
</svg>
