<svg width="64" height="31" viewBox="0 0 64 31" fill="none" xmlns="http://www.w3.org/2000/svg">
<path d="M17.3018 9.27556C17.1882 8.12972 16.7005 7.23957 15.8388 6.6051C14.977 5.97063 13.8075 5.6534 12.3303 5.6534C11.3265 5.6534 10.4789 5.79544 9.78765 6.07954C9.09636 6.35416 8.56605 6.73768 8.19674 7.2301C7.83689 7.72253 7.65696 8.28124 7.65696 8.90624C7.63802 9.42707 7.74693 9.88162 7.98367 10.2699C8.22988 10.6581 8.56605 10.9943 8.99219 11.2784C9.41833 11.553 9.91075 11.7945 10.4695 12.0028C11.0282 12.2017 11.6248 12.3721 12.2592 12.5142L14.8729 13.1392C16.1418 13.4233 17.3066 13.8021 18.3672 14.2756C19.4278 14.749 20.3464 15.3314 21.1229 16.0227C21.8994 16.714 22.5007 17.5284 22.9268 18.4659C23.3625 19.4034 23.585 20.4782 23.5945 21.6903C23.585 23.4706 23.1304 25.0142 22.2308 26.321C21.3407 27.6184 20.0528 28.6269 18.3672 29.3466C16.6911 30.0568 14.6693 30.4119 12.3019 30.4119C9.95336 30.4119 7.90791 30.0521 6.16549 29.3324C4.43253 28.6127 3.07836 27.5473 2.10299 26.1364C1.13708 24.7159 0.630448 22.9593 0.583099 20.8665H6.5348C6.60109 21.8418 6.88045 22.6562 7.37287 23.3096C7.87477 23.9536 8.54238 24.4413 9.37571 24.7727C10.2185 25.0947 11.1702 25.2557 12.2308 25.2557C13.2725 25.2557 14.1768 25.1042 14.9439 24.8011C15.7204 24.4981 16.3217 24.0767 16.7479 23.5369C17.174 22.9971 17.3871 22.3769 17.3871 21.6761C17.3871 21.0227 17.1929 20.4735 16.8047 20.0284C16.4259 19.5833 15.8672 19.2045 15.1286 18.892C14.3994 18.5795 13.5045 18.2954 12.4439 18.0398L9.27628 17.2443C6.82363 16.6477 4.88708 15.715 3.46662 14.446C2.04617 13.1771 1.34068 11.4678 1.35014 9.31817C1.34068 7.55681 1.80943 6.01798 2.75639 4.70169C3.71283 3.38541 5.02439 2.35794 6.69105 1.61931C8.35772 0.880671 10.2517 0.511353 12.3729 0.511353C14.532 0.511353 16.4164 0.880671 18.0263 1.61931C19.6456 2.35794 20.9051 3.38541 21.8047 4.70169C22.7043 6.01798 23.1683 7.5426 23.1967 9.27556H17.3018Z" fill="#FEAA62"/>
<path d="M33.8821 0.90908V30H27.7315V0.90908H33.8821Z" fill="#FEAA62"/>
<path d="M44.7095 0.90908L50.576 10.8239H50.8033L56.6982 0.90908H63.6442L54.7663 15.4545L63.843 30H56.7692L50.8033 20.071H50.576L44.6101 30H37.5646L46.6697 15.4545L37.7351 0.90908H44.7095Z" fill="#FEAA62"/>
</svg>
