<svg width="49" height="19" viewBox="0 0 49 19" fill="none" xmlns="http://www.w3.org/2000/svg">
<path d="M10.5444 5.56529C10.4762 4.87779 10.1836 4.34369 9.66656 3.96301C9.14952 3.58233 8.44781 3.39199 7.56145 3.39199C6.95918 3.39199 6.45065 3.47722 6.03588 3.64767C5.62111 3.81245 5.30293 4.04256 5.08134 4.33801C4.86543 4.63347 4.75747 4.9687 4.75747 5.3437C4.74611 5.6562 4.81145 5.92892 4.95349 6.16188C5.10122 6.39483 5.30293 6.59654 5.55861 6.76699C5.81429 6.93176 6.10974 7.07665 6.44497 7.20165C6.7802 7.32097 7.13815 7.42324 7.51884 7.50847L9.08702 7.88347C9.84838 8.05392 10.5472 8.28119 11.1836 8.56529C11.82 8.84938 12.3711 9.19881 12.837 9.61358C13.3029 10.0284 13.6637 10.517 13.9194 11.0795C14.1808 11.642 14.3143 12.2869 14.32 13.0141C14.3143 14.0823 14.0416 15.0085 13.5018 15.7926C12.9677 16.571 12.195 17.1761 11.1836 17.6079C10.1779 18.034 8.96486 18.2471 7.5444 18.2471C6.13531 18.2471 4.90804 18.0312 3.86259 17.5994C2.82281 17.1676 2.01031 16.5284 1.42509 15.6818C0.84554 14.8295 0.541562 13.7755 0.513153 12.5198H4.08418C4.12395 13.1051 4.29156 13.5937 4.58702 13.9857C4.88815 14.3721 5.28872 14.6647 5.78872 14.8636C6.2944 15.0568 6.86543 15.1534 7.50179 15.1534C8.12679 15.1534 8.6694 15.0624 9.12963 14.8806C9.59554 14.6988 9.95634 14.446 10.212 14.1221C10.4677 13.7982 10.5955 13.4261 10.5955 13.0056C10.5955 12.6136 10.4791 12.284 10.2461 12.017C10.0188 11.7499 9.68361 11.5227 9.24043 11.3352C8.80293 11.1477 8.26599 10.9772 7.62963 10.8238L5.72906 10.3465C4.25747 9.98858 3.09554 9.42892 2.24327 8.66756C1.39099 7.90619 0.967699 6.88063 0.97338 5.59085C0.967699 4.53404 1.24895 3.61074 1.81713 2.82097C2.39099 2.0312 3.17793 1.41472 4.17793 0.971536C5.17793 0.528354 6.31429 0.306763 7.58702 0.306763C8.88247 0.306763 10.0132 0.528354 10.9791 0.971536C11.9507 1.41472 12.7063 2.0312 13.2461 2.82097C13.7859 3.61074 14.0643 4.52551 14.0813 5.56529H10.5444Z" fill="#FEAA62"/>
<path d="M27.5835 0.545399H31.2738V11.8806C31.2738 13.1534 30.9698 14.267 30.3619 15.2215C29.7596 16.1761 28.9159 16.9204 27.8306 17.4545C26.7454 17.9829 25.4812 18.2471 24.038 18.2471C22.5891 18.2471 21.3221 17.9829 20.2369 17.4545C19.1516 16.9204 18.3079 16.1761 17.7056 15.2215C17.1034 14.267 16.8022 13.1534 16.8022 11.8806V0.545399H20.4926V11.5653C20.4926 12.2301 20.6374 12.821 20.9272 13.338C21.2227 13.8551 21.6374 14.2613 22.1715 14.5568C22.7056 14.8522 23.3278 14.9999 24.038 14.9999C24.7539 14.9999 25.3761 14.8522 25.9045 14.5568C26.4386 14.2613 26.8505 13.8551 27.1403 13.338C27.4357 12.821 27.5835 12.2301 27.5835 11.5653V0.545399Z" fill="#FEAA62"/>
<path d="M48.9095 0.545399V17.9999H45.722L38.1282 7.01415H38.0004V17.9999H34.31V0.545399H37.5487L45.0828 11.5227H45.2362V0.545399H48.9095Z" fill="#FEAA62"/>
</svg>
