<svg width="300" height="54" viewBox="0 0 300 54" fill="none" xmlns="http://www.w3.org/2000/svg">
<g filter="url(#filter0_d_538_108)">
<path d="M11.2869 47.9999H0.741455L16.8096 1.45448H29.4915L45.5369 47.9999H34.9915L23.3324 12.0908H22.9687L11.2869 47.9999ZM10.6278 29.7045H35.5369V37.3863H10.6278V29.7045Z" fill="#FF9C46"/>
<path d="M90.071 1.45448V47.9999H81.571L61.321 18.7045H60.9801V47.9999H51.1392V1.45448H59.7755L79.8665 30.7272H80.2756V1.45448H90.071Z" fill="#FF9C46"/>
<path d="M108.043 1.45448V47.9999H98.2017V1.45448H108.043Z" fill="#FF9C46"/>
<path d="M116.139 1.45448H128.276L141.094 32.7272H141.639L154.457 1.45448H166.594V47.9999H157.048V17.7045H156.662L144.616 47.7727H138.116L126.071 17.5908H125.685V47.9999H116.139V1.45448Z" fill="#FF9C46"/>
<path d="M182.724 47.9999H172.179L188.247 1.45448H200.929L216.974 47.9999H206.429L194.77 12.0908H194.406L182.724 47.9999ZM182.065 29.7045H206.974V37.3863H182.065V29.7045Z" fill="#FF9C46"/>
<path d="M222.577 47.9999V1.45448H232.418V39.8863H252.372V47.9999H222.577Z" fill="#FF9C46"/>
<path d="M284.139 14.8408C283.957 13.0075 283.177 11.5833 281.798 10.5681C280.419 9.55296 278.548 9.04539 276.185 9.04539C274.579 9.04539 273.223 9.27266 272.116 9.72721C271.01 10.1666 270.162 10.7802 269.571 11.5681C268.995 12.356 268.707 13.2499 268.707 14.2499C268.677 15.0833 268.851 15.8105 269.23 16.4318C269.624 17.053 270.162 17.5908 270.844 18.0454C271.526 18.4848 272.313 18.8711 273.207 19.2045C274.101 19.5227 275.056 19.7954 276.071 20.0227L280.253 21.0227C282.283 21.4772 284.147 22.0833 285.844 22.8408C287.541 23.5984 289.01 24.5302 290.253 25.6363C291.495 26.7424 292.457 28.0454 293.139 29.5454C293.836 31.0454 294.192 32.7651 294.207 34.7045C294.192 37.553 293.465 40.0227 292.026 42.1136C290.601 44.1893 288.541 45.803 285.844 46.9545C283.162 48.0908 279.927 48.659 276.139 48.659C272.382 48.659 269.109 48.0833 266.321 46.9318C263.548 45.7802 261.382 44.0757 259.821 41.8181C258.276 39.5454 257.465 36.7348 257.389 33.3863H266.912C267.018 34.9469 267.465 36.2499 268.253 37.2954C269.056 38.3257 270.124 39.106 271.457 39.6363C272.806 40.1515 274.329 40.409 276.026 40.409C277.692 40.409 279.139 40.1666 280.366 39.6818C281.609 39.1969 282.571 38.5227 283.253 37.659C283.935 36.7954 284.276 35.803 284.276 34.6818C284.276 33.6363 283.965 32.7575 283.344 32.0454C282.738 31.3333 281.844 30.7272 280.662 30.2272C279.495 29.7272 278.063 29.2727 276.366 28.8636L271.298 27.5908C267.374 26.6363 264.276 25.1439 262.003 23.1136C259.73 21.0833 258.601 18.3484 258.616 14.909C258.601 12.0908 259.351 9.62872 260.866 7.52266C262.397 5.4166 264.495 3.77266 267.162 2.59084C269.829 1.40902 272.859 0.818115 276.253 0.818115C279.707 0.818115 282.723 1.40902 285.298 2.59084C287.889 3.77266 289.904 5.4166 291.344 7.52266C292.783 9.62872 293.526 12.0681 293.571 14.8408H284.139Z" fill="#FF9C46"/>
</g>
<defs>
<filter id="filter0_d_538_108" x="0.741455" y="0.818115" width="298.466" height="52.8408" filterUnits="userSpaceOnUse" color-interpolation-filters="sRGB">
<feFlood flood-opacity="0" result="BackgroundImageFix"/>
<feColorMatrix in="SourceAlpha" type="matrix" values="0 0 0 0 0 0 0 0 0 0 0 0 0 0 0 0 0 0 127 0" result="hardAlpha"/>
<feOffset dx="3" dy="3"/>
<feGaussianBlur stdDeviation="1"/>
<feComposite in2="hardAlpha" operator="out"/>
<feColorMatrix type="matrix" values="0 0 0 0 0 0 0 0 0 0 0 0 0 0 0 0 0 0 0.3 0"/>
<feBlend mode="normal" in2="BackgroundImageFix" result="effect1_dropShadow_538_108"/>
<feBlend mode="normal" in="SourceGraphic" in2="effect1_dropShadow_538_108" result="shape"/>
</filter>
</defs>
</svg>
