<svg width="231" height="54" viewBox="0 0 231 54" fill="none" xmlns="http://www.w3.org/2000/svg">
<g filter="url(#filter0_d_537_63)">
<path d="M0.451721 47.9999V1.45448H18.8154C22.3457 1.45448 25.3532 2.12872 27.8381 3.47721C30.3229 4.81054 32.2169 6.6666 33.5199 9.04539C34.8381 11.409 35.4972 14.1363 35.4972 17.2272C35.4972 20.3181 34.8305 23.0454 33.4972 25.409C32.1638 27.7727 30.232 29.6136 27.7017 30.9318C25.1866 32.2499 22.1411 32.909 18.5654 32.909H6.86081V25.0227H16.9744C18.8684 25.0227 20.429 24.6969 21.6563 24.0454C22.8987 23.3787 23.8229 22.4621 24.429 21.2954C25.0502 20.1136 25.3608 18.7575 25.3608 17.2272C25.3608 15.6818 25.0502 14.3333 24.429 13.1818C23.8229 12.0151 22.8987 11.1136 21.6563 10.4772C20.4138 9.82569 18.8381 9.49994 16.929 9.49994H10.2926V47.9999H0.451721Z" fill="#FF9C46"/>
<path d="M84.6619 24.7272C84.6619 29.803 83.6998 34.1211 81.7756 37.6818C79.8665 41.2424 77.2604 43.9621 73.9574 45.8408C70.6695 47.7045 66.9726 48.6363 62.8665 48.6363C58.7301 48.6363 55.018 47.6969 51.7301 45.8181C48.4423 43.9393 45.8438 41.2196 43.9347 37.659C42.0256 34.0984 41.071 29.7878 41.071 24.7272C41.071 19.6514 42.0256 15.3333 43.9347 11.7727C45.8438 8.21206 48.4423 5.49993 51.7301 3.6363C55.018 1.75751 58.7301 0.818115 62.8665 0.818115C66.9726 0.818115 70.6695 1.75751 73.9574 3.6363C77.2604 5.49993 79.8665 8.21206 81.7756 11.7727C83.6998 15.3333 84.6619 19.6514 84.6619 24.7272ZM74.6847 24.7272C74.6847 21.4393 74.1923 18.6666 73.2074 16.409C72.2377 14.1515 70.8665 12.4393 69.0938 11.2727C67.321 10.106 65.2453 9.52266 62.8665 9.52266C60.4877 9.52266 58.4119 10.106 56.6392 11.2727C54.8665 12.4393 53.4877 14.1515 52.5029 16.409C51.5332 18.6666 51.0483 21.4393 51.0483 24.7272C51.0483 28.0151 51.5332 30.7878 52.5029 33.0454C53.4877 35.303 54.8665 37.0151 56.6392 38.1818C58.4119 39.3484 60.4877 39.9318 62.8665 39.9318C65.2453 39.9318 67.321 39.3484 69.0938 38.1818C70.8665 37.0151 72.2377 35.303 73.2074 33.0454C74.1923 30.7878 74.6847 28.0151 74.6847 24.7272Z" fill="#FF9C46"/>
<path d="M91.9517 47.9999V1.45448H123.315V9.56812H101.793V20.659H121.702V28.7727H101.793V39.8863H123.406V47.9999H91.9517Z" fill="#FF9C46"/>
<path d="M131.139 1.45448H143.276L156.094 32.7272H156.639L169.457 1.45448H181.594V47.9999H172.048V17.7045H171.662L159.617 47.7727H153.117L141.071 17.5908H140.685V47.9999H131.139V1.45448Z" fill="#FF9C46"/>
<path d="M214.952 14.8408C214.77 13.0075 213.99 11.5833 212.611 10.5681C211.232 9.55296 209.361 9.04539 206.997 9.04539C205.391 9.04539 204.035 9.27266 202.929 9.72721C201.823 10.1666 200.974 10.7802 200.384 11.5681C199.808 12.356 199.52 13.2499 199.52 14.2499C199.49 15.0833 199.664 15.8105 200.043 16.4318C200.437 17.053 200.974 17.5908 201.656 18.0454C202.338 18.4848 203.126 18.8711 204.02 19.2045C204.914 19.5227 205.868 19.7954 206.884 20.0227L211.065 21.0227C213.096 21.4772 214.959 22.0833 216.656 22.8408C218.353 23.5984 219.823 24.5302 221.065 25.6363C222.308 26.7424 223.27 28.0454 223.952 29.5454C224.649 31.0454 225.005 32.7651 225.02 34.7045C225.005 37.553 224.277 40.0227 222.838 42.1136C221.414 44.1893 219.353 45.803 216.656 46.9545C213.974 48.0908 210.74 48.659 206.952 48.659C203.194 48.659 199.921 48.0833 197.134 46.9318C194.361 45.7802 192.194 44.0757 190.634 41.8181C189.088 39.5454 188.277 36.7348 188.202 33.3863H197.724C197.831 34.9469 198.277 36.2499 199.065 37.2954C199.868 38.3257 200.937 39.106 202.27 39.6363C203.618 40.1515 205.141 40.409 206.838 40.409C208.505 40.409 209.952 40.1666 211.179 39.6818C212.421 39.1969 213.384 38.5227 214.065 37.659C214.747 36.7954 215.088 35.803 215.088 34.6818C215.088 33.6363 214.777 32.7575 214.156 32.0454C213.55 31.3333 212.656 30.7272 211.474 30.2272C210.308 29.7272 208.876 29.2727 207.179 28.8636L202.111 27.5908C198.187 26.6363 195.088 25.1439 192.815 23.1136C190.543 21.0833 189.414 18.3484 189.429 14.909C189.414 12.0908 190.164 9.62872 191.679 7.52266C193.209 5.4166 195.308 3.77266 197.974 2.59084C200.641 1.40902 203.671 0.818115 207.065 0.818115C210.52 0.818115 213.535 1.40902 216.111 2.59084C218.702 3.77266 220.717 5.4166 222.156 7.52266C223.596 9.62872 224.338 12.0681 224.384 14.8408H214.952Z" fill="#FF9C46"/>
</g>
<defs>
<filter id="filter0_d_537_63" x="0.451721" y="0.818115" width="229.568" height="52.8408" filterUnits="userSpaceOnUse" color-interpolation-filters="sRGB">
<feFlood flood-opacity="0" result="BackgroundImageFix"/>
<feColorMatrix in="SourceAlpha" type="matrix" values="0 0 0 0 0 0 0 0 0 0 0 0 0 0 0 0 0 0 127 0" result="hardAlpha"/>
<feOffset dx="3" dy="3"/>
<feGaussianBlur stdDeviation="1"/>
<feComposite in2="hardAlpha" operator="out"/>
<feColorMatrix type="matrix" values="0 0 0 0 0 0 0 0 0 0 0 0 0 0 0 0 0 0 0.3 0"/>
<feBlend mode="normal" in2="BackgroundImageFix" result="effect1_dropShadow_537_63"/>
<feBlend mode="normal" in="SourceGraphic" in2="effect1_dropShadow_537_63" result="shape"/>
</filter>
</defs>
</svg>
