<svg width="317" height="54" viewBox="0 0 317 54" fill="none" xmlns="http://www.w3.org/2000/svg">
<g filter="url(#filter0_d_538_136)">
<path d="M39.1023 1.45448V47.9999H30.6023L10.3523 18.7045H10.0114V47.9999H0.170471V1.45448H8.80684L28.8977 30.7272H29.3068V1.45448H39.1023Z" fill="#FF9C46"/>
<path d="M75.983 1.45448H85.8239V31.6818C85.8239 35.0757 85.0133 38.0454 83.3921 40.5908C81.786 43.1363 79.536 45.1211 76.6421 46.5454C73.7481 47.9545 70.3769 48.659 66.5284 48.659C62.6648 48.659 59.286 47.9545 56.3921 46.5454C53.4981 45.1211 51.2481 43.1363 49.6421 40.5908C48.036 38.0454 47.233 35.0757 47.233 31.6818V1.45448H57.0739V30.8408C57.0739 32.6136 57.4602 34.1893 58.233 35.5681C59.0209 36.9469 60.1269 38.0302 61.5512 38.8181C62.9754 39.606 64.6345 39.9999 66.5284 39.9999C68.4375 39.9999 70.0966 39.606 71.5057 38.8181C72.9299 38.0302 74.0284 36.9469 74.8012 35.5681C75.589 34.1893 75.983 32.6136 75.983 30.8408V1.45448Z" fill="#FF9C46"/>
<path d="M93.9205 1.45448H106.057L118.875 32.7272H119.42L132.239 1.45448H144.375V47.9999H134.83V17.7045H134.443L122.398 47.7727H115.898L103.852 17.5908H103.466V47.9999H93.9205V1.45448Z" fill="#FF9C46"/>
<path d="M152.483 47.9999V1.45448H171.119C174.544 1.45448 177.4 1.96206 179.688 2.97721C181.975 3.99236 183.695 5.40145 184.847 7.20448C185.998 8.99236 186.574 11.053 186.574 13.3863C186.574 15.2045 186.21 16.803 185.483 18.1818C184.756 19.5454 183.756 20.6666 182.483 21.5454C181.225 22.409 179.786 23.0227 178.165 23.3863V23.8408C179.938 23.9166 181.597 24.4166 183.142 25.3408C184.703 26.2651 185.968 27.5605 186.938 29.2272C187.907 30.8787 188.392 32.8484 188.392 35.1363C188.392 37.606 187.778 39.8105 186.551 41.7499C185.339 43.6742 183.544 45.1969 181.165 46.3181C178.786 47.4393 175.854 47.9999 172.369 47.9999H152.483ZM162.324 39.9545H170.347C173.089 39.9545 175.089 39.4318 176.347 38.3863C177.604 37.3257 178.233 35.9166 178.233 34.159C178.233 32.8711 177.922 31.7348 177.301 30.7499C176.68 29.7651 175.794 28.9924 174.642 28.4318C173.506 27.8711 172.15 27.5908 170.574 27.5908H162.324V39.9545ZM162.324 20.9318H169.619C170.968 20.9318 172.165 20.6969 173.21 20.2272C174.271 19.7424 175.104 19.0605 175.71 18.1818C176.331 17.303 176.642 16.2499 176.642 15.0227C176.642 13.3408 176.044 11.9848 174.847 10.9545C173.665 9.92418 171.983 9.40902 169.801 9.40902H162.324V20.9318Z" fill="#FF9C46"/>
<path d="M194.795 47.9999V1.45448H226.159V9.56812H204.636V20.659H224.545V28.7727H204.636V39.8863H226.25V47.9999H194.795Z" fill="#FF9C46"/>
<path d="M233.983 47.9999V1.45448H252.347C255.862 1.45448 258.862 2.08327 261.347 3.34084C263.847 4.58327 265.748 6.34842 267.051 8.6363C268.369 10.909 269.028 13.5833 269.028 16.659C269.028 19.7499 268.362 22.409 267.028 24.6363C265.695 26.8484 263.763 28.5454 261.233 29.7272C258.718 30.909 255.672 31.4999 252.097 31.4999H239.801V23.5908H250.506C252.384 23.5908 253.945 23.3333 255.188 22.8181C256.43 22.303 257.354 21.5302 257.96 20.4999C258.581 19.4696 258.892 18.1893 258.892 16.659C258.892 15.1136 258.581 13.8105 257.96 12.7499C257.354 11.6893 256.422 10.8863 255.165 10.3408C253.922 9.78024 252.354 9.49994 250.46 9.49994H243.824V47.9999H233.983ZM259.119 26.8181L270.688 47.9999H259.824L248.506 26.8181H259.119Z" fill="#FF9C46"/>
<path d="M301.233 14.8408C301.051 13.0075 300.271 11.5833 298.892 10.5681C297.513 9.55296 295.642 9.04539 293.278 9.04539C291.672 9.04539 290.316 9.27266 289.21 9.72721C288.104 10.1666 287.256 10.7802 286.665 11.5681C286.089 12.356 285.801 13.2499 285.801 14.2499C285.771 15.0833 285.945 15.8105 286.324 16.4318C286.718 17.053 287.256 17.5908 287.938 18.0454C288.619 18.4848 289.407 18.8711 290.301 19.2045C291.195 19.5227 292.15 19.7954 293.165 20.0227L297.347 21.0227C299.377 21.4772 301.241 22.0833 302.938 22.8408C304.635 23.5984 306.104 24.5302 307.347 25.6363C308.589 26.7424 309.551 28.0454 310.233 29.5454C310.93 31.0454 311.286 32.7651 311.301 34.7045C311.286 37.553 310.559 40.0227 309.119 42.1136C307.695 44.1893 305.635 45.803 302.938 46.9545C300.256 48.0908 297.021 48.659 293.233 48.659C289.475 48.659 286.203 48.0833 283.415 46.9318C280.642 45.7802 278.475 44.0757 276.915 41.8181C275.369 39.5454 274.559 36.7348 274.483 33.3863H284.006C284.112 34.9469 284.559 36.2499 285.347 37.2954C286.15 38.3257 287.218 39.106 288.551 39.6363C289.9 40.1515 291.422 40.409 293.119 40.409C294.786 40.409 296.233 40.1666 297.46 39.6818C298.703 39.1969 299.665 38.5227 300.347 37.659C301.028 36.7954 301.369 35.803 301.369 34.6818C301.369 33.6363 301.059 32.7575 300.438 32.0454C299.831 31.3333 298.938 30.7272 297.756 30.2272C296.589 29.7272 295.157 29.2727 293.46 28.8636L288.392 27.5908C284.468 26.6363 281.369 25.1439 279.097 23.1136C276.824 21.0833 275.695 18.3484 275.71 14.909C275.695 12.0908 276.445 9.62872 277.96 7.52266C279.491 5.4166 281.589 3.77266 284.256 2.59084C286.922 1.40902 289.953 0.818115 293.347 0.818115C296.801 0.818115 299.816 1.40902 302.392 2.59084C304.983 3.77266 306.998 5.4166 308.438 7.52266C309.877 9.62872 310.619 12.0681 310.665 14.8408H301.233Z" fill="#FF9C46"/>
</g>
<defs>
<filter id="filter0_d_538_136" x="0.170471" y="0.818115" width="316.131" height="52.8409" filterUnits="userSpaceOnUse" color-interpolation-filters="sRGB">
<feFlood flood-opacity="0" result="BackgroundImageFix"/>
<feColorMatrix in="SourceAlpha" type="matrix" values="0 0 0 0 0 0 0 0 0 0 0 0 0 0 0 0 0 0 127 0" result="hardAlpha"/>
<feOffset dx="3" dy="3"/>
<feGaussianBlur stdDeviation="1"/>
<feComposite in2="hardAlpha" operator="out"/>
<feColorMatrix type="matrix" values="0 0 0 0 0 0 0 0 0 0 0 0 0 0 0 0 0 0 0.3 0"/>
<feBlend mode="normal" in2="BackgroundImageFix" result="effect1_dropShadow_538_136"/>
<feBlend mode="normal" in="SourceGraphic" in2="effect1_dropShadow_538_136" result="shape"/>
</filter>
</defs>
</svg>
