<svg width="389" height="54" viewBox="0 0 389 54" fill="none" xmlns="http://www.w3.org/2000/svg">
<g filter="url(#filter0_d_538_191)">
<path d="M10.8494 48H0.303986L16.3722 1.45454H29.054L45.0994 48H34.554L22.8949 12.0909H22.5313L10.8494 48ZM10.1903 29.7045H35.0994V37.3864H10.1903V29.7045Z" fill="#FF9C46"/>
<path d="M50.7017 48V1.45454H60.5426V39.8864H80.4972V48H50.7017Z" fill="#FF9C46"/>
<path d="M87.0142 48V1.45454H105.378C108.908 1.45454 111.916 2.12878 114.401 3.47727C116.885 4.8106 118.779 6.66666 120.082 9.04545C121.401 11.4091 122.06 14.1364 122.06 17.2273C122.06 20.3182 121.393 23.0455 120.06 25.4091C118.726 27.7727 116.795 29.6136 114.264 30.9318C111.749 32.25 108.704 32.9091 105.128 32.9091H93.4233V25.0227H103.537C105.431 25.0227 106.991 24.697 108.219 24.0455C109.461 23.3788 110.385 22.4621 110.991 21.2955C111.613 20.1136 111.923 18.7576 111.923 17.2273C111.923 15.6818 111.613 14.3333 110.991 13.1818C110.385 12.0151 109.461 11.1136 108.219 10.4773C106.976 9.82575 105.401 9.5 103.491 9.5H96.8551V48H87.0142Z" fill="#FF9C46"/>
<path d="M128.452 48V1.45454H138.293V20.6591H158.27V1.45454H168.088V48H158.27V28.7727H138.293V48H128.452Z" fill="#FF9C46"/>
<path d="M184.224 48H173.679L189.747 1.45454H202.429L218.474 48H207.929L196.27 12.0909H195.906L184.224 48ZM183.565 29.7045H208.474V37.3864H183.565V29.7045Z" fill="#FF9C46"/>
<path d="M224.077 48V1.45454H242.713C246.137 1.45454 248.993 1.96212 251.281 2.97727C253.569 3.99242 255.289 5.40151 256.44 7.20454C257.592 8.99242 258.168 11.053 258.168 13.3864C258.168 15.2045 257.804 16.803 257.077 18.1818C256.349 19.5455 255.349 20.6667 254.077 21.5455C252.819 22.4091 251.38 23.0227 249.759 23.3864V23.8409C251.531 23.9167 253.19 24.4167 254.736 25.3409C256.296 26.2651 257.562 27.5606 258.531 29.2273C259.501 30.8788 259.986 32.8485 259.986 35.1364C259.986 37.6061 259.372 39.8106 258.145 41.75C256.933 43.6742 255.137 45.197 252.759 46.3182C250.38 47.4394 247.448 48 243.963 48H224.077ZM233.918 39.9545H241.94C244.683 39.9545 246.683 39.4318 247.94 38.3864C249.198 37.3258 249.827 35.9167 249.827 34.1591C249.827 32.8712 249.516 31.7348 248.895 30.75C248.274 29.7651 247.387 28.9924 246.236 28.4318C245.099 27.8712 243.743 27.5909 242.168 27.5909H233.918V39.9545ZM233.918 20.9318H241.213C242.562 20.9318 243.759 20.697 244.804 20.2273C245.865 19.7424 246.698 19.0606 247.304 18.1818C247.925 17.303 248.236 16.25 248.236 15.0227C248.236 13.3409 247.637 11.9848 246.44 10.9545C245.259 9.92424 243.577 9.40908 241.395 9.40908H233.918V20.9318Z" fill="#FF9C46"/>
<path d="M266.389 48V1.45454H297.753V9.56818H276.23V20.6591H296.139V28.7727H276.23V39.8864H297.844V48H266.389Z" fill="#FF9C46"/>
<path d="M303.804 9.56818V1.45454H342.031V9.56818H327.781V48H318.054V9.56818H303.804Z" fill="#FF9C46"/>
<path d="M373.577 14.8409C373.395 13.0076 372.615 11.5833 371.236 10.5682C369.857 9.55302 367.986 9.04545 365.622 9.04545C364.016 9.04545 362.66 9.27272 361.554 9.72727C360.448 10.1667 359.599 10.7803 359.009 11.5682C358.433 12.3561 358.145 13.25 358.145 14.25C358.115 15.0833 358.289 15.8106 358.668 16.4318C359.062 17.053 359.599 17.5909 360.281 18.0455C360.963 18.4848 361.751 18.8712 362.645 19.2045C363.539 19.5227 364.493 19.7955 365.509 20.0227L369.69 21.0227C371.721 21.4773 373.584 22.0833 375.281 22.8409C376.978 23.5985 378.448 24.5303 379.69 25.6364C380.933 26.7424 381.895 28.0455 382.577 29.5455C383.274 31.0455 383.63 32.7651 383.645 34.7045C383.63 37.553 382.902 40.0227 381.463 42.1136C380.039 44.1894 377.978 45.803 375.281 46.9545C372.599 48.0909 369.365 48.6591 365.577 48.6591C361.819 48.6591 358.546 48.0833 355.759 46.9318C352.986 45.7803 350.819 44.0758 349.259 41.8182C347.713 39.5454 346.902 36.7348 346.827 33.3864H356.349C356.455 34.947 356.902 36.25 357.69 37.2954C358.493 38.3258 359.562 39.1061 360.895 39.6364C362.243 40.1515 363.766 40.4091 365.463 40.4091C367.13 40.4091 368.577 40.1667 369.804 39.6818C371.046 39.197 372.009 38.5227 372.69 37.6591C373.372 36.7955 373.713 35.803 373.713 34.6818C373.713 33.6364 373.402 32.7576 372.781 32.0455C372.175 31.3333 371.281 30.7273 370.099 30.2273C368.933 29.7273 367.501 29.2727 365.804 28.8636L360.736 27.5909C356.812 26.6364 353.713 25.1439 351.44 23.1136C349.168 21.0833 348.039 18.3485 348.054 14.9091C348.039 12.0909 348.789 9.62878 350.304 7.52272C351.834 5.41666 353.933 3.77272 356.599 2.5909C359.266 1.40909 362.296 0.818176 365.69 0.818176C369.145 0.818176 372.16 1.40909 374.736 2.5909C377.327 3.77272 379.342 5.41666 380.781 7.52272C382.221 9.62878 382.963 12.0682 383.009 14.8409H373.577Z" fill="#FF9C46"/>
</g>
<defs>
<filter id="filter0_d_538_191" x="0.303986" y="0.818176" width="388.341" height="52.8409" filterUnits="userSpaceOnUse" color-interpolation-filters="sRGB">
<feFlood flood-opacity="0" result="BackgroundImageFix"/>
<feColorMatrix in="SourceAlpha" type="matrix" values="0 0 0 0 0 0 0 0 0 0 0 0 0 0 0 0 0 0 127 0" result="hardAlpha"/>
<feOffset dx="3" dy="3"/>
<feGaussianBlur stdDeviation="1"/>
<feComposite in2="hardAlpha" operator="out"/>
<feColorMatrix type="matrix" values="0 0 0 0 0 0 0 0 0 0 0 0 0 0 0 0 0 0 0.3 0"/>
<feBlend mode="normal" in2="BackgroundImageFix" result="effect1_dropShadow_538_191"/>
<feBlend mode="normal" in="SourceGraphic" in2="effect1_dropShadow_538_191" result="shape"/>
</filter>
</defs>
</svg>
