<svg width="117" height="27" viewBox="0 0 117 27" fill="none" xmlns="http://www.w3.org/2000/svg">
<path d="M0.969788 5.38216V0.818237H22.4726V5.38216H14.457V27.0001H8.98541V5.38216H0.969788Z" fill="#FEAA62"/>
<path d="M26.0138 27.0001V0.818237H31.5493V11.6208H42.7865V0.818237H48.3093V27.0001H42.7865V16.1847H31.5493V27.0001H26.0138Z" fill="#FEAA62"/>
<path d="M52.8732 27.0001V0.818237H63.2027C65.18 0.818237 66.8675 1.17193 68.2652 1.87932C69.6715 2.57818 70.7411 3.57108 71.4741 4.85801C72.2155 6.13642 72.5863 7.64068 72.5863 9.37079C72.5863 11.1094 72.2113 12.6052 71.4613 13.858C70.7113 15.1023 69.6246 16.0569 68.2013 16.7216C66.7866 17.3864 65.0735 17.7188 63.0621 17.7188H56.1459V13.2699H62.1672C63.2241 13.2699 64.1019 13.1251 64.8008 12.8353C65.4996 12.5455 66.0195 12.1109 66.3604 11.5313C66.7098 10.9518 66.8846 10.2316 66.8846 9.37079C66.8846 8.50148 66.7098 7.76852 66.3604 7.17193C66.0195 6.57534 65.4954 6.12363 64.788 5.81682C64.0891 5.50148 63.207 5.34381 62.1417 5.34381H58.4087V27.0001H52.8732ZM67.0124 15.0853L73.5195 27.0001H67.4087L61.0422 15.0853H67.0124Z" fill="#FEAA62"/>
<path d="M76.4982 27.0001V0.818237H94.1402V5.38216H82.0337V11.6208H93.2326V16.1847H82.0337V22.4361H94.1914V27.0001H76.4982Z" fill="#FEAA62"/>
<path d="M98.5412 27.0001V0.818237H116.183V5.38216H104.077V11.6208H115.276V16.1847H104.077V22.4361H116.234V27.0001H98.5412Z" fill="#FEAA62"/>
</svg>
