<svg width="61" height="15" viewBox="0 0 61 15" fill="none" xmlns="http://www.w3.org/2000/svg">
<path d="M0.831329 2.9901V0.45459H12.7774V2.9901H8.32423V15H5.28445V2.9901H0.831329Z" fill="#FEAA62"/>
<path d="M14.7447 15V0.45459H20.4833C21.5818 0.45459 22.5193 0.651086 23.2958 1.04408C24.0771 1.43234 24.6713 1.98395 25.0785 2.69891C25.4904 3.40914 25.6964 4.24484 25.6964 5.20601C25.6964 6.17192 25.4881 7.00289 25.0714 7.69891C24.6547 8.3902 24.051 8.9205 23.2603 9.28982C22.4743 9.65914 21.5226 9.84379 20.4052 9.84379H16.5629V7.3722H19.908C20.4952 7.3722 20.9828 7.29171 21.3711 7.13073C21.7594 6.96974 22.0482 6.72826 22.2376 6.40629C22.4317 6.08432 22.5288 5.68423 22.5288 5.20601C22.5288 4.72306 22.4317 4.31586 22.2376 3.98442C22.0482 3.65298 21.757 3.40203 21.364 3.23158C20.9757 3.05639 20.4857 2.96879 19.8938 2.96879H17.82V15H14.7447ZM22.5998 8.38073L26.2149 15H22.82L19.283 8.38073H22.5998Z" fill="#FEAA62"/>
<path d="M30.3768 15H27.0813L32.1026 0.45459H36.0657L41.0799 15H37.7845L34.141 3.77845H34.0274L30.3768 15ZM30.1708 9.28271H37.9549V11.6833H30.1708V9.28271Z" fill="#FEAA62"/>
<path d="M45.9059 0.45459V15H42.8306V0.45459H45.9059Z" fill="#FEAA62"/>
<path d="M60.6023 0.45459V15H57.946L51.6179 5.84521H51.5114V15H48.4361V0.45459H51.135L57.4134 9.60232H57.5412V0.45459H60.6023Z" fill="#FEAA62"/>
</svg>
