<svg width="108" height="22" viewBox="0 0 108 22" fill="none" xmlns="http://www.w3.org/2000/svg">
<path d="M0.875183 4.18619V0.636475H17.5996V4.18619H11.3652V21.0001H7.10956V4.18619H0.875183Z" fill="#FEAA62"/>
<path d="M32.932 0.636475H37.2374V13.8609C37.2374 15.3458 36.8828 16.645 36.1735 17.7586C35.4708 18.8723 34.4865 19.7406 33.2204 20.3637C31.9543 20.9802 30.4793 21.2885 28.7956 21.2885C27.1053 21.2885 25.6271 20.9802 24.361 20.3637C23.0949 19.7406 22.1105 18.8723 21.4079 17.7586C20.7052 16.645 20.3539 15.3458 20.3539 13.8609V0.636475H24.6593V13.493C24.6593 14.2686 24.8283 14.958 25.1664 15.5612C25.5111 16.1644 25.995 16.6384 26.6181 16.9831C27.2412 17.3278 27.967 17.5001 28.7956 17.5001C29.6309 17.5001 30.3567 17.3278 30.9732 16.9831C31.5963 16.6384 32.0769 16.1644 32.415 15.5612C32.7597 14.958 32.932 14.2686 32.932 13.493V0.636475Z" fill="#FEAA62"/>
<path d="M40.7797 21.0001V0.636475H48.8137C50.3516 0.636475 51.6641 0.911569 52.7512 1.46176C53.845 2.00532 54.6769 2.77757 55.247 3.77852C55.8237 4.77284 56.112 5.94282 56.112 7.28846C56.112 8.64074 55.8204 9.80409 55.237 10.7785C54.6537 11.7463 53.8085 12.4887 52.7015 13.0058C51.6012 13.5228 50.2688 13.7814 48.7044 13.7814H43.3251V10.3211H48.0084C48.8303 10.3211 49.5131 10.2084 50.0566 9.98307C50.6002 9.75769 51.0046 9.41962 51.2697 8.96886C51.5415 8.5181 51.6774 7.95797 51.6774 7.28846C51.6774 6.61233 51.5415 6.04225 51.2697 5.57824C51.0046 5.11422 50.5969 4.76289 50.0467 4.52426C49.5031 4.27899 48.8171 4.15636 47.9885 4.15636H45.0851V21.0001H40.7797ZM51.7768 11.7331L56.8379 21.0001H52.0851L47.1334 11.7331H51.7768Z" fill="#FEAA62"/>
<path d="M58.3791 4.18619V0.636475H75.1035V4.18619H68.8691V21.0001H64.6135V4.18619H58.3791Z" fill="#FEAA62"/>
<path d="M77.8578 21.0001V0.636475H82.1632V17.4504H90.8933V21.0001H77.8578Z" fill="#FEAA62"/>
<path d="M93.7445 21.0001V0.636475H107.466V4.18619H98.0499V9.03846H106.76V12.5882H98.0499V17.4504H107.506V21.0001H93.7445Z" fill="#FEAA62"/>
</svg>
