<svg width="95" height="31" viewBox="0 0 95 31" fill="none" xmlns="http://www.w3.org/2000/svg">
<path d="M0.514191 5.9801V0.90908H24.4062V5.9801H15.5V30H9.42044V5.9801H0.514191Z" fill="#FEAA62"/>
<path d="M34.8892 30L26.5653 0.90908H33.2841L38.0994 21.1221H38.3409L43.6534 0.90908H49.4062L54.7045 21.1648H54.9602L59.7756 0.90908H66.4943L58.1704 30H52.1761L46.6364 10.9801H46.4091L40.8835 30H34.8892Z" fill="#FEAA62"/>
<path d="M94.8785 15.4545C94.8785 18.6269 94.2772 21.3257 93.0746 23.5511C91.8814 25.7765 90.2526 27.4763 88.1882 28.6506C86.1333 29.8153 83.8227 30.3977 81.2564 30.3977C78.6712 30.3977 76.3511 29.8106 74.2962 28.6364C72.2412 27.4621 70.6172 25.7623 69.424 23.5369C68.2308 21.3115 67.6342 18.6174 67.6342 15.4545C67.6342 12.2822 68.2308 9.58332 69.424 7.35794C70.6172 5.13257 72.2412 3.43749 74.2962 2.27272C76.3511 1.09847 78.6712 0.511353 81.2564 0.511353C83.8227 0.511353 86.1333 1.09847 88.1882 2.27272C90.2526 3.43749 91.8814 5.13257 93.0746 7.35794C94.2772 9.58332 94.8785 12.2822 94.8785 15.4545ZM88.6427 15.4545C88.6427 13.3996 88.335 11.6667 87.7194 10.2557C87.1134 8.84469 86.2564 7.77461 85.1484 7.04544C84.0405 6.31628 82.7431 5.95169 81.2564 5.95169C79.7696 5.95169 78.4723 6.31628 77.3643 7.04544C76.2564 7.77461 75.3946 8.84469 74.7791 10.2557C74.173 11.6667 73.87 13.3996 73.87 15.4545C73.87 17.5095 74.173 19.2424 74.7791 20.6534C75.3946 22.0644 76.2564 23.1345 77.3643 23.8636C78.4723 24.5928 79.7696 24.9574 81.2564 24.9574C82.7431 24.9574 84.0405 24.5928 85.1484 23.8636C86.2564 23.1345 87.1134 22.0644 87.7194 20.6534C88.335 19.2424 88.6427 17.5095 88.6427 15.4545Z" fill="#FEAA62"/>
</svg>
