<svg width="87" height="13" viewBox="0 0 87 13" fill="none" xmlns="http://www.w3.org/2000/svg">
<path d="M7.39417 0.363647H9.85439V7.92047C9.85439 8.76895 9.65174 9.51137 9.24644 10.1477C8.84492 10.7841 8.28242 11.2803 7.55894 11.6364C6.83545 11.9886 5.99265 12.1648 5.03053 12.1648C4.06462 12.1648 3.21992 11.9886 2.49644 11.6364C1.77295 11.2803 1.21045 10.7841 0.808938 10.1477C0.407423 9.51137 0.206665 8.76895 0.206665 7.92047V0.363647H2.66689V7.71024C2.66689 8.15342 2.76348 8.54736 2.95667 8.89206C3.15363 9.23675 3.43015 9.50759 3.78621 9.70456C4.14227 9.90153 4.55704 10 5.03053 10C5.5078 10 5.92257 9.90153 6.27485 9.70456C6.63091 9.50759 6.90553 9.23675 7.09871 8.89206C7.29568 8.54736 7.39417 8.15342 7.39417 7.71024V0.363647Z" fill="#FEAA62"/>
<path d="M11.8785 0.363647H14.9126L18.1172 8.18183H18.2535L21.4581 0.363647H24.4922V12H22.1058V4.42615H22.0092L18.9979 11.9432H17.3729L14.3615 4.39774H14.2649V12H11.8785V0.363647Z" fill="#FEAA62"/>
<path d="M26.5192 12V0.363647H31.1783C32.0343 0.363647 32.7483 0.490541 33.3203 0.744329C33.8923 0.998117 34.3222 1.35039 34.6101 1.80115C34.898 2.24812 35.0419 2.76327 35.0419 3.3466C35.0419 3.80115 34.951 4.20077 34.7692 4.54547C34.5873 4.88637 34.3373 5.16668 34.0192 5.38637C33.7048 5.60228 33.3449 5.75569 32.9396 5.8466V5.96024C33.3828 5.97918 33.7976 6.10418 34.1839 6.33524C34.5741 6.5663 34.8904 6.89016 35.1328 7.30683C35.3752 7.71971 35.4964 8.21213 35.4964 8.7841C35.4964 9.40153 35.343 9.95266 35.0362 10.4375C34.7332 10.9186 34.2843 11.2993 33.6896 11.5796C33.0949 11.8599 32.362 12 31.4908 12H26.5192ZM28.9794 9.98865H30.9851C31.6707 9.98865 32.1707 9.85797 32.4851 9.5966C32.7995 9.33145 32.9567 8.97918 32.9567 8.53978C32.9567 8.21781 32.879 7.93372 32.7237 7.68751C32.5684 7.4413 32.3468 7.24812 32.0589 7.10797C31.7748 6.96781 31.4358 6.89774 31.0419 6.89774H28.9794V9.98865ZM28.9794 5.23297H30.8033C31.1404 5.23297 31.4396 5.17425 31.701 5.05683C31.9661 4.93562 32.1745 4.76516 32.326 4.54547C32.4813 4.32577 32.5589 4.06251 32.5589 3.75569C32.5589 3.33524 32.4093 2.99622 32.1101 2.73865C31.8146 2.48107 31.3942 2.35228 30.8487 2.35228H28.9794V5.23297Z" fill="#FEAA62"/>
<path d="M37.0973 12V0.363647H41.6882C42.567 0.363647 43.317 0.520844 43.9382 0.835238C44.5632 1.14584 45.0386 1.58713 45.3643 2.1591C45.6939 2.72728 45.8587 3.39584 45.8587 4.16478C45.8587 4.93751 45.692 5.60228 45.3587 6.1591C45.0253 6.71213 44.5424 7.13637 43.9098 7.43183C43.281 7.72728 42.5196 7.87501 41.6257 7.87501H38.5518V5.89774H41.228C41.6977 5.89774 42.0878 5.83334 42.3984 5.70456C42.709 5.57577 42.9401 5.38259 43.0916 5.12501C43.2469 4.86744 43.3246 4.54736 43.3246 4.16478C43.3246 3.77842 43.2469 3.45266 43.0916 3.18751C42.9401 2.92236 42.7071 2.7216 42.3927 2.58524C42.0821 2.44509 41.6901 2.37501 41.2166 2.37501H39.5575V12H37.0973ZM43.3814 6.70456L46.2734 12H43.5575L40.728 6.70456H43.3814Z" fill="#FEAA62"/>
<path d="M47.5973 12V0.363647H55.4382V2.39206H50.0575V5.16478H55.0348V7.19319H50.0575V9.9716H55.4609V12H47.5973Z" fill="#FEAA62"/>
<path d="M57.3942 12V0.363647H59.8544V9.9716H64.843V12H57.3942Z" fill="#FEAA62"/>
<path d="M66.4723 12V0.363647H68.9325V9.9716H73.9212V12H66.4723Z" fill="#FEAA62"/>
<path d="M77.853 12H75.2166L79.2337 0.363647H82.4041L86.4155 12H83.7791L80.8643 3.02274H80.7734L77.853 12ZM77.6882 7.42615H83.9155V9.3466H77.6882V7.42615Z" fill="#FEAA62"/>
</svg>
