<svg width="98" height="95" viewBox="0 0 98 95" fill="none" xmlns="http://www.w3.org/2000/svg">
<path d="M5.9264 54.9677C8.51756 47.6826 16.5545 43.789 23.8775 46.2711L38.4123 51.1978C45.7352 53.6799 49.5711 61.5978 46.98 68.8829L41.863 83.2695C39.2718 90.5546 31.2349 94.4482 23.9119 91.966L9.37713 87.0394C2.05416 84.5573 -1.78174 76.6393 0.809417 69.3542L5.9264 54.9677Z" fill="#FF9C46"/>
<path d="M24.6362 52.2173C22.2077 51.3921 19.5276 52.7097 18.6598 55.1556L10.7929 77.3274C9.92505 79.7732 11.194 82.4327 13.6225 83.2578L22.4286 86.2499C27.2926 87.9026 32.6433 85.2719 34.3814 80.3733C35.5246 77.1515 34.8214 73.7448 32.8129 71.3232C34.6476 70.2153 36.1306 68.4909 36.9001 66.3222C38.6382 61.4236 36.1047 56.114 31.2408 54.4613L24.6362 52.2173ZM26.5206 67.7644L19.9161 65.5204L23.0628 56.6516L29.6674 58.8957C32.0959 59.7209 33.3648 62.3803 32.497 64.8261C31.6292 67.272 28.9492 68.5896 26.5206 67.7644ZM18.3427 69.9547L27.1487 72.9468C29.5773 73.772 30.8462 76.4314 29.9784 78.8773C29.1106 81.3231 26.4305 82.6407 24.002 81.8156L15.1959 78.8235L18.3427 69.9547Z" fill="white"/>
<path d="M53.4666 65.2733C53.4666 57.5413 59.7346 51.2733 67.4666 51.2733H83.1177C90.8497 51.2733 97.1177 57.5413 97.1177 65.2733V80.2405C97.1177 87.9725 90.8497 94.2405 83.1177 94.2405H67.4666C59.7346 94.2405 53.4666 87.9725 53.4666 80.2405V65.2733Z" fill="#914BBC"/>
<path d="M85.1711 65.1397C80.7741 60.5672 74.2104 60.5672 69.8134 65.1397C65.4165 69.7122 65.4165 77.1232 69.8134 81.6957C74.2104 86.2681 80.7741 86.2681 85.1711 81.6957C86.0504 80.7812 87.4786 80.7812 88.358 81.6957C89.2373 82.6102 89.2373 84.0953 88.358 85.0098C82.2022 91.4112 72.7893 91.4112 66.6336 85.0098C60.4779 78.6083 60.4779 68.2343 66.6336 61.8329C72.7893 55.4314 82.2022 55.4314 88.358 61.8329C89.2373 62.7474 89.2373 64.2325 88.358 65.147C87.4786 66.0615 86.0504 66.0615 85.1711 65.147V65.1397Z" fill="white"/>
<path d="M26.1807 25.3607C22.8587 18.3785 25.8672 10.1139 32.9003 6.90118L45.2113 1.2775C52.2444 -1.93523 60.6388 1.12049 63.9608 8.10266L69.7658 20.3036C73.0878 27.2858 70.0794 35.5504 63.0463 38.7631L50.7353 44.3868C43.7022 47.5996 35.3077 44.5438 31.9857 37.5617L26.1807 25.3607Z" fill="#35B36A"/>
<path d="M40.1981 9.89109C40.1675 9.05182 40.6544 8.28015 41.425 7.94346C42.1956 7.60676 43.1064 7.76767 43.7225 8.35116L63.715 27.1307C64.5642 27.9276 64.6124 29.2465 63.8235 30.0784C63.0346 30.9103 61.7083 30.9381 60.8591 30.1412L56.8862 26.41L45.0944 31.5622L45.2683 36.9534C45.305 38.1053 44.3972 39.0537 43.2387 39.0727C42.0803 39.0916 41.1121 38.1747 41.0754 37.0228L40.1981 9.89109ZM44.9502 27.0394L53.5521 23.2809L44.5555 14.8301L44.9502 27.0394Z" fill="white"/>
</svg>
