<svg width="101" height="101" viewBox="0 0 101 101" fill="none" xmlns="http://www.w3.org/2000/svg">
<path d="M28.2417 14C28.2417 6.268 34.5097 0 42.2417 0H58.7583C66.4903 0 72.7583 6.26802 72.7583 14V29.8925C72.7583 37.6245 66.4903 43.8925 58.7583 43.8925H42.2417C34.5097 43.8925 28.2417 37.6245 28.2417 29.8925V14Z" fill="#35B36A"/>
<path d="M54.2097 6.7432C54.2097 5.82332 53.6993 4.9814 52.8825 4.54485C52.0658 4.10829 51.0763 4.15507 50.3067 4.66958L42.7676 9.65876C41.6053 10.4227 41.299 11.9663 42.0686 13.12C42.8382 14.2738 44.401 14.5778 45.5555 13.8138L46.0774 13.4673C47.4068 12.5847 49.1836 13.5378 49.1836 15.1335V32.1837C49.1836 33.2883 48.2882 34.1837 47.1836 34.1837H44.1576C42.7676 34.1837 41.6446 35.2985 41.6446 36.6783C41.6446 38.0581 42.7676 39.1729 44.1576 39.1729H59.2358C60.6258 39.1729 61.7488 38.0581 61.7488 36.6783C61.7488 35.2985 60.6258 34.1837 59.2358 34.1837H56.2097C55.1051 34.1837 54.2097 33.2883 54.2097 32.1837V6.7432Z" fill="white"/>
<path d="M0 69.2196C0 61.4876 6.26801 55.2196 14 55.2196H32.4313C40.1633 55.2196 46.4313 61.4876 46.4313 69.2196V87C46.4313 94.732 40.1633 101 32.4313 101H14C6.26801 101 0 94.732 0 87V69.2196Z" fill="#FF9C46"/>
<path d="M20.4783 66.1422C18.8384 66.1422 17.2596 66.778 16.1003 67.9224L13.7436 70.2261C12.7902 71.1611 11.2419 71.1611 10.2885 70.2261C9.33511 69.2912 9.33511 67.7728 10.2885 66.8378L12.6453 64.534C14.7274 62.4995 17.5418 61.3551 20.4783 61.3551C26.5875 61.3551 31.5451 66.217 31.5451 72.2083C31.5451 75.088 30.3782 77.848 28.3036 79.8825L17.9156 90.0774H31.5451C32.8951 90.0774 33.9858 91.147 33.9858 92.471C33.9858 93.7949 32.8951 94.8645 31.5451 94.8645H12.0198C11.0359 94.8645 10.1436 94.2811 9.76223 93.3835C9.38088 92.4859 9.59443 91.4612 10.2885 90.7731L24.8486 76.5017C26.0079 75.3647 26.6638 73.8164 26.6638 72.2083C26.6638 68.8573 23.8952 66.1422 20.4783 66.1422Z" fill="white"/>
<path d="M54.5687 68.7477C54.5687 61.0157 60.8367 54.7477 68.5687 54.7477H87C94.732 54.7477 101 61.0157 101 68.7477V86.528C101 94.26 94.732 100.528 87 100.528H68.5687C60.8367 100.528 54.5687 94.26 54.5687 86.528V68.7477Z" fill="#914BBC"/>
<path d="M65.5782 63.2767C65.5782 61.9528 66.6691 60.8832 68.0194 60.8832H86.3287C87.3357 60.8832 88.2359 61.489 88.6021 62.409C88.9683 63.3291 88.7165 64.3762 87.9765 65.0419L77.9598 74.0476H79.6153C85.3446 74.0476 89.9905 78.6027 89.9905 84.22C89.9905 89.8373 85.3446 94.3925 79.6153 94.3925H73.619C70.3844 94.3925 67.4244 92.5974 65.9825 89.7626L65.8376 89.4783C65.2349 88.2965 65.7231 86.8604 66.9285 86.2695C68.1339 85.6786 69.5986 86.1573 70.2013 87.3391L70.3462 87.6233C70.9642 88.8425 72.2382 89.6055 73.619 89.6055H79.6153C82.6516 89.6055 85.1081 87.197 85.1081 84.22C85.1081 81.2431 82.6516 78.8346 79.6153 78.8346H71.6813C70.6743 78.8346 69.7741 78.2288 69.4079 77.3087C69.0417 76.3887 69.2934 75.3416 70.0334 74.6759L80.0501 65.6702H68.0194C66.6691 65.6702 65.5782 64.6006 65.5782 63.2767Z" fill="white"/>
</svg>
