<svg width="42" height="42" viewBox="0 0 42 42" fill="none" xmlns="http://www.w3.org/2000/svg">
<path d="M41.183 20.9105C41.183 22.3482 40.1345 23.4744 38.9461 23.4744H36.7092L36.7581 36.2697C36.7581 36.4854 36.7441 36.701 36.7231 36.9167V38.2026C36.7231 39.9678 35.4718 41.3975 33.927 41.3975H32.8085C32.7316 41.3975 32.6547 41.3975 32.5778 41.3895C32.4799 41.3975 32.3821 41.3975 32.2842 41.3975H28.3346C26.7897 41.3975 25.5384 39.9678 25.5384 38.2026V31.1739C25.5384 29.7602 24.5388 28.6181 23.3015 28.6181H18.8276C17.5903 28.6181 16.5907 29.7602 16.5907 31.1739V38.2026C16.5907 39.9678 15.3394 41.3975 13.7945 41.3975H9.88686C9.782 41.3975 9.67715 41.3895 9.57229 41.3815C9.4884 41.3895 9.40452 41.3975 9.32063 41.3975H8.20216C6.65728 41.3975 5.40599 39.9678 5.40599 38.2026V29.257C5.40599 29.1852 5.40599 29.1053 5.41298 29.0334V23.4744H3.16905C1.91077 23.4744 0.932114 22.3562 0.932114 20.9105C0.932114 20.1917 1.14183 19.5527 1.63116 18.9936L19.5546 1.14239C20.044 0.583289 20.6032 0.503418 21.0925 0.503418C21.5819 0.503418 22.1411 0.66316 22.5605 1.06252L40.4141 18.9936C40.9733 19.5527 41.2529 20.1917 41.183 20.9105Z" fill="#FF9C46"/>
<path d="M16.3862 21.265V10.2837H18.708V14.8146H23.4212V10.2837H25.7375V21.265H23.4212V16.7288H18.708V21.265H16.3862Z" fill="black"/>
</svg>
