<svg width="110" height="86" viewBox="0 0 110 86" fill="none" xmlns="http://www.w3.org/2000/svg">
<g filter="url(#filter0_d_506_405)">
<path d="M35.7333 58.6235V53.1005H36.8667L37.5608 54.4865C38.4463 56.2615 40.55 57.0606 42.3987 56.3252C43.8508 55.7453 44.8 54.3451 44.8 52.7822V47.4431C44.8 46.0924 44.205 44.8761 43.2629 44.0487H43.6667C44.29 44.0487 44.8 43.5395 44.8 42.9172C44.8 42.2949 44.29 41.7857 43.6667 41.7857H35.7333C30.7254 41.7857 26.6667 45.8378 26.6667 50.8375H14.54C12.3654 50.8375 10.46 51.9902 9.40458 53.7228C6.35167 54.1259 4 56.7353 4 59.8893V63.8495C4 64.79 4.75792 65.5467 5.7 65.5467C6.64208 65.5467 7.4 64.79 7.4 63.8495V59.8893C7.4 58.9417 7.8675 58.1072 8.58292 57.591C8.69625 58.5103 9.02917 59.3872 9.54625 60.1651L11.5437 63.1635C12.1317 64.0404 11.9971 65.1931 11.4588 66.1054C10.29 68.0854 9.99958 70.504 10.7504 72.7457L11.99 76.4513C12.3017 77.3777 13.1658 78 14.1433 78H16.5304C18.0746 78 19.1725 76.4866 18.6838 75.0228L17.2104 70.603C17.0617 70.1504 17.175 69.6554 17.515 69.3159L18.4146 68.4178C19.3496 67.4844 19.8738 66.2185 19.8738 64.9032C19.8738 64.7405 19.8667 64.5779 19.8525 64.4152L25.8025 66.1124C26.0929 66.1973 26.3833 66.2609 26.6737 66.3104V75.73C26.6737 76.9817 27.6867 77.9929 28.9404 77.9929H31.2071C32.4608 77.9929 33.4738 76.9817 33.4738 75.73V64.1111C34.8338 62.7534 35.705 60.8794 35.7404 58.7578V58.6235H35.7333ZM39.1333 46.3116C39.4339 46.3116 39.7222 46.4308 39.9347 46.643C40.1473 46.8552 40.2667 47.143 40.2667 47.4431C40.2667 47.7432 40.1473 48.031 39.9347 48.2432C39.7222 48.4554 39.4339 48.5746 39.1333 48.5746C38.8328 48.5746 38.5445 48.4554 38.3319 48.2432C38.1194 48.031 38 47.7432 38 47.4431C38 47.143 38.1194 46.8552 38.3319 46.643C38.5445 46.4308 38.8328 46.3116 39.1333 46.3116Z" fill="#FF9C46"/>
<path d="M84.4427 52.9966L82.8341 43.1862C82.7018 42.3799 82.0124 41.7857 81.2046 41.7857C80.6823 41.7857 80.1948 42.0333 79.8815 42.4577L78.7046 44.0491H75.0766C74.1922 44.0491 73.3426 44.4098 72.7159 45.0464L71.4624 46.3125H67.5628C66.6366 46.3125 65.8915 47.0693 65.8915 48.01V49.7076C65.8915 52.8339 68.3845 55.3661 71.4624 55.3661H76.2882L76.6434 57.5234L84.4427 52.9966ZM77.0334 59.8999V75.7366C77.0334 76.9885 78.0292 78 79.2617 78H81.4901C82.7227 78 83.7185 76.9885 83.7185 75.7366V67.5884C85.3897 68.4584 87.2838 68.9464 89.2894 68.9464C91.2949 68.9464 93.189 68.4584 94.8603 67.5884V75.7366C94.8603 76.9885 95.8561 78 97.0886 78H99.317C100.55 78 101.545 76.9885 101.545 75.7366V59.4543C103.551 58.6834 105.125 56.9575 105.668 54.7507L105.932 53.6544C106.232 52.4449 105.508 51.2142 104.31 50.91C103.112 50.6059 101.907 51.3415 101.608 52.558L101.336 53.6544C101.093 54.6588 100.201 55.3661 99.1777 55.3661H84.8466L77.0334 59.8999ZM73.6908 47.4442C73.6908 47.1441 73.8082 46.8562 74.0171 46.644C74.2261 46.4317 74.5095 46.3125 74.805 46.3125C75.1005 46.3125 75.3839 46.4317 75.5928 46.644C75.8018 46.8562 75.9192 47.1441 75.9192 47.4442C75.9192 47.7443 75.8018 48.0322 75.5928 48.2444C75.3839 48.4567 75.1005 48.5759 74.805 48.5759C74.5095 48.5759 74.2261 48.4567 74.0171 48.2444C73.8082 48.0322 73.6908 47.7443 73.6908 47.4442Z" fill="#9D2B6C"/>
<path d="M56.4708 8.46732L52.9662 7.58318C52.5272 7.47437 52.2031 7.10031 52.1558 6.64464C52.1086 6.18897 52.3449 5.7537 52.7433 5.54967L55.4984 4.16225L52.5812 1.95871C52.2099 1.67986 52.0545 1.19019 52.2031 0.741316C52.3517 0.292446 52.7636 0 53.2295 0H64.0339C66.0732 0 67.9977 0.965751 69.2199 2.61161L73.1095 7.83482C73.5282 8.39931 73.7578 9.08622 73.7578 9.79353C73.7578 11.5958 72.3059 13.058 70.5165 13.058H69.0646C67.9167 13.058 66.816 12.6024 66.0057 11.7862L65.1143 10.8817H62.9534V12.3439C62.9534 14.0306 63.8178 15.6016 65.2358 16.4994L72.4342 21.0289C74.6019 22.3959 75.9186 24.7831 75.9186 27.3607C75.9186 31.4821 72.6031 34.8214 68.5042 34.8214H34.8824C34.6595 34.8214 34.4367 34.7942 34.2341 34.7262C33.6129 34.5358 33.1064 34.0733 32.8633 33.468C32.7688 33.2368 32.7147 32.9987 32.7012 32.7403C32.6877 32.4887 32.7215 32.2438 32.789 32.0126C32.9781 31.3869 33.4373 30.8768 34.045 30.6252C34.2476 30.5436 34.4637 30.4892 34.6865 30.4756L61.9608 28.0204C62.5213 27.9728 62.9534 27.4967 62.9534 26.9254C62.9534 26.633 62.8386 26.3541 62.636 26.1501L59.6378 23.1304C57.612 21.0901 56.4708 18.3221 56.4708 15.4384V8.46732ZM67.2752 4.91717C67.2752 4.91037 67.2752 4.90356 67.2752 4.89676C67.2752 4.88996 67.2752 4.88316 67.2752 4.87636V4.91717ZM67.1874 5.42044L64.0541 4.63152C64.0406 4.71994 64.0339 4.80835 64.0339 4.89676C64.0339 5.8013 64.7564 6.52902 65.6545 6.52902C66.3703 6.52902 66.9713 6.06655 67.1874 5.42044ZM41.5406 7.92324C42.6412 6.93708 44.2686 6.82146 45.4909 7.64439L54.3099 13.5613V15.4384C54.3099 17.6692 54.8772 19.8455 55.9306 21.7634H40.2643C39.8119 21.7634 39.4067 21.4777 39.2514 21.0561C39.0961 20.6344 39.2176 20.1515 39.562 19.8523L44.2484 15.7989L33.9437 17.3971C33.4711 17.4719 33.0051 17.2203 32.8025 16.785C32.5999 16.3497 32.7012 15.8261 33.0591 15.5064L41.5406 7.92324Z" fill="#35B36A"/>
</g>
<defs>
<filter id="filter0_d_506_405" x="0" y="0" width="110" height="86" filterUnits="userSpaceOnUse" color-interpolation-filters="sRGB">
<feFlood flood-opacity="0" result="BackgroundImageFix"/>
<feColorMatrix in="SourceAlpha" type="matrix" values="0 0 0 0 0 0 0 0 0 0 0 0 0 0 0 0 0 0 127 0" result="hardAlpha"/>
<feOffset dy="4"/>
<feGaussianBlur stdDeviation="2"/>
<feComposite in2="hardAlpha" operator="out"/>
<feColorMatrix type="matrix" values="0 0 0 0 0 0 0 0 0 0 0 0 0 0 0 0 0 0 0.25 0"/>
<feBlend mode="normal" in2="BackgroundImageFix" result="effect1_dropShadow_506_405"/>
<feBlend mode="normal" in="SourceGraphic" in2="effect1_dropShadow_506_405" result="shape"/>
</filter>
</defs>
</svg>
