<svg width="67" height="16" viewBox="0 0 67 16" fill="none" xmlns="http://www.w3.org/2000/svg">
<path d="M3.95648 0.454601L7.4721 11.5057H7.60704L11.1298 0.454601H14.5389L9.52466 15.0001H5.56159L0.540283 0.454601H3.95648Z" fill="#FEAA62"/>
<path d="M19.3649 0.454601V15.0001H16.2896V0.454601H19.3649Z" fill="#FEAA62"/>
<path d="M35.2615 7.72733C35.2615 9.3135 34.9609 10.6629 34.3595 11.7756C33.7629 12.8883 32.9485 13.7382 31.9163 14.3253C30.8889 14.9077 29.7336 15.1989 28.4504 15.1989C27.1578 15.1989 25.9978 14.9054 24.9703 14.3182C23.9429 13.7311 23.1308 12.8812 22.5342 11.7685C21.9377 10.6558 21.6394 9.30877 21.6394 7.72733C21.6394 6.14115 21.9377 4.79172 22.5342 3.67903C23.1308 2.56634 23.9429 1.71881 24.9703 1.13642C25.9978 0.549298 27.1578 0.255737 28.4504 0.255737C29.7336 0.255737 30.8889 0.549298 31.9163 1.13642C32.9485 1.71881 33.7629 2.56634 34.3595 3.67903C34.9609 4.79172 35.2615 6.14115 35.2615 7.72733ZM32.1436 7.72733C32.1436 6.69987 31.9897 5.83339 31.682 5.1279C31.3789 4.4224 30.9504 3.88737 30.3965 3.52278C29.8425 3.1582 29.1938 2.97591 28.4504 2.97591C27.7071 2.97591 27.0584 3.1582 26.5044 3.52278C25.9504 3.88737 25.5196 4.4224 25.2118 5.1279C24.9088 5.83339 24.7573 6.69987 24.7573 7.72733C24.7573 8.75479 24.9088 9.62127 25.2118 10.3268C25.5196 11.0323 25.9504 11.5673 26.5044 11.9319C27.0584 12.2965 27.7071 12.4787 28.4504 12.4787C29.1938 12.4787 29.8425 12.2965 30.3965 11.9319C30.9504 11.5673 31.3789 11.0323 31.682 10.3268C31.9897 9.62127 32.1436 8.75479 32.1436 7.72733Z" fill="#FEAA62"/>
<path d="M37.5396 15.0001V0.454601H40.6149V12.4645H46.8507V15.0001H37.5396Z" fill="#FEAA62"/>
<path d="M51.9625 0.454601V15.0001H48.8872V0.454601H51.9625Z" fill="#FEAA62"/>
<path d="M66.6589 0.454601V15.0001H64.0026L57.6745 5.84523H57.568V15.0001H54.4927V0.454601H57.1916L63.47 9.60233H63.5978V0.454601H66.6589Z" fill="#FEAA62"/>
</svg>
