<svg width="93" height="11" viewBox="0 0 93 11" fill="none" xmlns="http://www.w3.org/2000/svg">
<path d="M3.02319 9.99994L0.317932 0.545399H2.50153L4.06651 7.11465H4.14499L5.87155 0.545399H7.74123L9.46317 7.1285H9.54627L11.1113 0.545399H13.2949L10.5896 9.99994H8.64144L6.84101 3.81848H6.76715L4.97134 9.99994H3.02319Z" fill="#FEAA62"/>
<path d="M15.0422 9.99994H12.9001L16.164 0.545399H18.74L21.9992 9.99994H19.8572L17.4889 2.70591H17.4151L15.0422 9.99994ZM14.9083 6.28368H19.968V7.84405H14.9083V6.28368Z" fill="#FEAA62"/>
<path d="M21.6218 2.19348V0.545399H29.3867V2.19348H26.4922V9.99994H24.5164V2.19348H21.6218Z" fill="#FEAA62"/>
<path d="M30.6655 9.99994V0.545399H37.0362V2.19348H32.6644V4.44632H36.7085V6.0944H32.6644V8.35186H37.0547V9.99994H30.6655Z" fill="#FEAA62"/>
<path d="M38.6255 9.99994V0.545399H42.3556C43.0696 0.545399 43.679 0.673122 44.1837 0.928567C44.6915 1.18093 45.0778 1.53948 45.3424 2.00421C45.6102 2.46585 45.7441 3.00906 45.7441 3.63382C45.7441 4.26166 45.6087 4.80179 45.3378 5.25421C45.067 5.70354 44.6746 6.04824 44.1606 6.2883C43.6497 6.52835 43.0311 6.64838 42.3048 6.64838H39.8073V5.04185H41.9816C42.3633 5.04185 42.6803 4.98953 42.9326 4.88489C43.185 4.78025 43.3727 4.62329 43.4958 4.41401C43.622 4.20473 43.6851 3.94467 43.6851 3.63382C43.6851 3.3199 43.622 3.05522 43.4958 2.83979C43.3727 2.62435 43.1835 2.46124 42.928 2.35044C42.6756 2.23657 42.3571 2.17963 41.9724 2.17963H40.6244V9.99994H38.6255ZM43.7313 5.69739L46.0811 9.99994H43.8744L41.5754 5.69739H43.7313Z" fill="#FEAA62"/>
<path d="M47.1567 0.545399H49.6219L52.2256 6.89767H52.3364L54.9401 0.545399H57.4053V9.99994H55.4664V3.84618H55.3879L52.9412 9.95378H51.6208L49.1741 3.8231H49.0956V9.99994H47.1567V0.545399Z" fill="#FEAA62"/>
<path d="M59.0522 9.99994V0.545399H65.423V2.19348H61.0512V4.44632H65.0952V6.0944H61.0512V8.35186H65.4414V9.99994H59.0522Z" fill="#FEAA62"/>
<path d="M67.0122 9.99994V0.545399H69.0111V8.35186H73.0644V9.99994H67.0122Z" fill="#FEAA62"/>
<path d="M82.7082 5.27267C82.7082 6.30369 82.5128 7.18082 82.1219 7.90406C81.7341 8.62731 81.2048 9.17975 80.5338 9.56138C79.866 9.93993 79.115 10.1292 78.281 10.1292C77.4408 10.1292 76.6868 9.93839 76.0189 9.55676C75.3511 9.17513 74.8233 8.6227 74.4355 7.89945C74.0477 7.1762 73.8538 6.30061 73.8538 5.27267C73.8538 4.24166 74.0477 3.36453 74.4355 2.64128C74.8233 1.91803 75.3511 1.36713 76.0189 0.988581C76.6868 0.606952 77.4408 0.416138 78.281 0.416138C79.115 0.416138 79.866 0.606952 80.5338 0.988581C81.2048 1.36713 81.7341 1.91803 82.1219 2.64128C82.5128 3.36453 82.7082 4.24166 82.7082 5.27267ZM80.6816 5.27267C80.6816 4.60482 80.5815 4.04161 80.3815 3.58304C80.1845 3.12447 79.906 2.7767 79.5459 2.53972C79.1858 2.30274 78.7642 2.18425 78.281 2.18425C77.7978 2.18425 77.3762 2.30274 77.0161 2.53972C76.656 2.7767 76.3759 3.12447 76.1759 3.58304C75.9789 4.04161 75.8804 4.60482 75.8804 5.27267C75.8804 5.94052 75.9789 6.50373 76.1759 6.9623C76.3759 7.42087 76.656 7.76865 77.0161 8.00563C77.3762 8.24261 77.7978 8.3611 78.281 8.3611C78.7642 8.3611 79.1858 8.24261 79.5459 8.00563C79.906 7.76865 80.1845 7.42087 80.3815 6.9623C80.5815 6.50373 80.6816 5.94052 80.6816 5.27267Z" fill="#FEAA62"/>
<path d="M92.097 0.545399V9.99994H90.3704L86.2571 4.04931H86.1879V9.99994H84.1889V0.545399H85.9432L90.0242 6.49142H90.1073V0.545399H92.097Z" fill="#FEAA62"/>
</svg>
