<svg width="76" height="18" viewBox="0 0 76 18" fill="none" xmlns="http://www.w3.org/2000/svg">
<path d="M4.77418 0.54541L8.29406 6.49427H8.43043L11.9674 0.54541H16.135L10.8083 9.27268L16.2543 18H12.01L8.43043 12.0426H8.29406L4.71452 18H0.487244L5.95031 9.27268L0.589516 0.54541H4.77418Z" fill="#FEAA62"/>
<path d="M25.2458 7.83234V10.713H17.2855V7.83234H25.2458Z" fill="#FEAA62"/>
<path d="M28.4077 18V0.54541H35.2941C36.6122 0.54541 37.7372 0.781206 38.6691 1.2528C39.6066 1.71871 40.3196 2.38064 40.8083 3.23859C41.3026 4.09086 41.5497 5.09371 41.5497 6.24712C41.5497 7.40621 41.2997 8.40337 40.7997 9.23859C40.2997 10.0681 39.5753 10.7045 38.6264 11.1477C37.6833 11.5909 36.5412 11.8125 35.2003 11.8125H30.5895V8.84655H34.6037C35.3083 8.84655 35.8935 8.74996 36.3594 8.55677C36.8253 8.36359 37.1719 8.07382 37.3992 7.68746C37.6321 7.30109 37.7486 6.82098 37.7486 6.24712C37.7486 5.66757 37.6321 5.17893 37.3992 4.78121C37.1719 4.38348 36.8225 4.08234 36.3509 3.8778C35.885 3.66757 35.2969 3.56246 34.5867 3.56246H32.098V18H28.4077ZM37.8338 10.0568L42.1719 18H38.098L33.8537 10.0568H37.8338Z" fill="#FEAA62"/>
<path d="M47.1662 18H43.2117L49.2372 0.54541H53.9929L60.01 18H56.0554L51.6833 4.53405H51.5469L47.1662 18ZM46.9191 11.1392H56.26V14.0198H46.9191V11.1392Z" fill="#FEAA62"/>
<path d="M59.3068 0.54541H63.4404L67.4205 8.06246H67.5909L71.5711 0.54541H75.7046L69.3381 11.8295V18H65.6733V11.8295L59.3068 0.54541Z" fill="#FEAA62"/>
</svg>
