<svg width="69" height="19" viewBox="0 0 69 19" fill="none" xmlns="http://www.w3.org/2000/svg">
<path d="M0.912231 0.545399H5.04575L9.02587 8.06245H9.19632L13.1764 0.545399H17.31L10.9435 11.8295V17.9999H7.27871V11.8295L0.912231 0.545399Z" fill="#FEAA62"/>
<path d="M34.3107 9.27267C34.3107 11.1761 33.9499 12.7954 33.2283 14.1306C32.5124 15.4659 31.5351 16.4857 30.2965 17.1903C29.0635 17.8892 27.6771 18.2386 26.1374 18.2386C24.5862 18.2386 23.1942 17.8863 21.9612 17.1818C20.7283 16.4772 19.7539 15.4573 19.0379 14.1221C18.322 12.7869 17.9641 11.1704 17.9641 9.27267C17.9641 7.36926 18.322 5.74995 19.0379 4.41472C19.7539 3.07949 20.7283 2.06244 21.9612 1.36358C23.1942 0.659036 24.5862 0.306763 26.1374 0.306763C27.6771 0.306763 29.0635 0.659036 30.2965 1.36358C31.5351 2.06244 32.5124 3.07949 33.2283 4.41472C33.9499 5.74995 34.3107 7.36926 34.3107 9.27267ZM30.5692 9.27267C30.5692 8.03972 30.3845 6.99994 30.0152 6.15335C29.6516 5.30676 29.1374 4.66472 28.4726 4.22722C27.8078 3.78972 27.0294 3.57097 26.1374 3.57097C25.2453 3.57097 24.4669 3.78972 23.8021 4.22722C23.1374 4.66472 22.6203 5.30676 22.251 6.15335C21.8874 6.99994 21.7056 8.03972 21.7056 9.27267C21.7056 10.5056 21.8874 11.5454 22.251 12.392C22.6203 13.2386 23.1374 13.8806 23.8021 14.3181C24.4669 14.7556 25.2453 14.9744 26.1374 14.9744C27.0294 14.9744 27.8078 14.7556 28.4726 14.3181C29.1374 13.8806 29.6516 13.2386 30.0152 12.392C30.3845 11.5454 30.5692 10.5056 30.5692 9.27267Z" fill="#FEAA62"/>
<path d="M34.9669 0.545399H39.1004L43.0806 8.06245H43.251L47.2311 0.545399H51.3646L44.9982 11.8295V17.9999H41.3334V11.8295L34.9669 0.545399Z" fill="#FEAA62"/>
<path d="M68.3654 9.27267C68.3654 11.1761 68.0046 12.7954 67.283 14.1306C66.5671 15.4659 65.5898 16.4857 64.3512 17.1903C63.1182 17.8892 61.7318 18.2386 60.1921 18.2386C58.6409 18.2386 57.2489 17.8863 56.0159 17.1818C54.783 16.4772 53.8085 15.4573 53.0926 14.1221C52.3767 12.7869 52.0188 11.1704 52.0188 9.27267C52.0188 7.36926 52.3767 5.74995 53.0926 4.41472C53.8085 3.07949 54.783 2.06244 56.0159 1.36358C57.2489 0.659036 58.6409 0.306763 60.1921 0.306763C61.7318 0.306763 63.1182 0.659036 64.3512 1.36358C65.5898 2.06244 66.5671 3.07949 67.283 4.41472C68.0046 5.74995 68.3654 7.36926 68.3654 9.27267ZM64.6239 9.27267C64.6239 8.03972 64.4392 6.99994 64.0699 6.15335C63.7063 5.30676 63.1921 4.66472 62.5273 4.22722C61.8625 3.78972 61.0841 3.57097 60.1921 3.57097C59.3 3.57097 58.5216 3.78972 57.8568 4.22722C57.1921 4.66472 56.675 5.30676 56.3057 6.15335C55.9421 6.99994 55.7602 8.03972 55.7602 9.27267C55.7602 10.5056 55.9421 11.5454 56.3057 12.392C56.675 13.2386 57.1921 13.8806 57.8568 14.3181C58.5216 14.7556 59.3 14.9744 60.1921 14.9744C61.0841 14.9744 61.8625 14.7556 62.5273 14.3181C63.1921 13.8806 63.7063 13.2386 64.0699 12.392C64.4392 11.5454 64.6239 10.5056 64.6239 9.27267Z" fill="#FEAA62"/>
</svg>
