<svg width="79" height="18" viewBox="0 0 79 18" fill="none" xmlns="http://www.w3.org/2000/svg">
<path d="M0.192827 18V15.8096L8.90305 3.58802H0.175781V0.54541H13.5394V2.73575L4.82067 14.9573H13.5565V18H0.192827Z" fill="#FEAA62"/>
<path d="M16.3881 18V0.54541H28.1495V3.58802H20.0785V7.74712H27.5444V10.7897H20.0785V14.9573H28.1836V18H16.3881Z" fill="#FEAA62"/>
<path d="M31.0835 18V0.54541H38.0721C39.3562 0.54541 40.4272 0.735751 41.2852 1.11643C42.1431 1.49712 42.788 2.02552 43.2198 2.70166C43.6516 3.37212 43.8675 4.14484 43.8675 5.01984C43.8675 5.70166 43.7312 6.30109 43.4585 6.81814C43.1857 7.3295 42.8107 7.74996 42.3335 8.0795C41.8619 8.40336 41.3221 8.63348 40.7141 8.76984V8.9403C41.3789 8.96871 42.0011 9.15621 42.5806 9.5028C43.1658 9.84939 43.6403 10.3352 44.0039 10.9602C44.3675 11.5795 44.5494 12.3181 44.5494 13.1761C44.5494 14.1022 44.3192 14.9289 43.859 15.6562C43.4045 16.3778 42.7312 16.9488 41.8391 17.3693C40.9471 17.7897 39.8477 18 38.5408 18H31.0835ZM34.7738 14.9829H37.7823C38.8107 14.9829 39.5607 14.7869 40.0323 14.3948C40.5039 13.9971 40.7397 13.4687 40.7397 12.8096C40.7397 12.3267 40.6232 11.9005 40.3903 11.5312C40.1573 11.1619 39.8249 10.8721 39.3931 10.6619C38.967 10.4517 38.4585 10.3465 37.8675 10.3465H34.7738V14.9829ZM34.7738 7.84939H37.5096C38.0153 7.84939 38.4641 7.76132 38.8562 7.58518C39.2539 7.40337 39.5664 7.14768 39.7937 6.81814C40.0266 6.48859 40.1431 6.09371 40.1431 5.63348C40.1431 5.0028 39.9187 4.49427 39.4698 4.10791C39.0266 3.72155 38.396 3.52836 37.5778 3.52836H34.7738V7.84939Z" fill="#FEAA62"/>
<path d="M46.9506 18V0.54541H53.837C55.1552 0.54541 56.2802 0.781206 57.212 1.2528C58.1495 1.71871 58.8626 2.38064 59.3512 3.23859C59.8455 4.09086 60.0927 5.09371 60.0927 6.24712C60.0927 7.40621 59.8427 8.40337 59.3427 9.23859C58.8427 10.0681 58.1183 10.7045 57.1694 11.1477C56.2262 11.5909 55.0842 11.8125 53.7433 11.8125H49.1325V8.84655H53.1467C53.8512 8.84655 54.4364 8.74996 54.9023 8.55677C55.3683 8.36359 55.7148 8.07382 55.9421 7.68746C56.1751 7.30109 56.2915 6.82098 56.2915 6.24712C56.2915 5.66757 56.1751 5.17893 55.9421 4.78121C55.7148 4.38348 55.3654 4.08234 54.8938 3.8778C54.4279 3.66757 53.8398 3.56246 53.1296 3.56246H50.641V18H46.9506ZM56.3768 10.0568L60.7148 18H56.641L52.3967 10.0568H56.3768Z" fill="#FEAA62"/>
<path d="M65.7092 18H61.7546L67.7802 0.54541H72.5359L78.5529 18H74.5984L70.2262 4.53405H70.0898L65.7092 18ZM65.462 11.1392H74.8029V14.0198H65.462V11.1392Z" fill="#FEAA62"/>
</svg>
